<?xml version="1.0" standalone="no"?>
<!DOCTYPE svg PUBLIC "-//W3C//DTD SVG 1.1//EN" "http://www.w3.org/Graphics/SVG/1.1/DTD/svg11.dtd" >
<svg xmlns="http://www.w3.org/2000/svg">
<metadata></metadata>
<defs>
<font id="hacen_vanillaregular" horiz-adv-x="991" >
<font-face units-per-em="2048" ascent="1638" descent="-410" />
<missing-glyph horiz-adv-x="435" />
<glyph unicode="&#x651;&#x64b;" horiz-adv-x="425" d="M398 1823q6 -11 6 -16q0 -4 -1 -6.5t-1 -7.5q0 -2 0.5 -5t2.5 -8q15 -41 15 -83q0 -24 -5.5 -46.5t-17 -40t-29 -27.5t-41.5 -10q-17 0 -29 6t-26 16q-5 -14 -14 -31t-24 -33t-38 -26.5t-54 -10.5q-22 0 -36.5 8t-23.5 21.5t-12.5 30.5t-3.5 34q0 22 4.5 41.5t9.5 30.5 q0 -1 1 -1t4.5 4t8 9t8.5 9t6 4q1 0 1 -1q-3 -14 -5.5 -27.5t-2.5 -24.5q0 -19 8 -31t29 -12q25 0 40.5 8t24.5 21t13 29.5t5.5 33.5t3 32.5t4.5 27.5l1 -1q2 0 5 3.5t6 8t6.5 8t5.5 3.5q1 0 2 -1q-1 -5 -1 -13q0 -38 19.5 -64t47.5 -26q5 0 13.5 2t16.5 6.5t14 11.5t6 17 q0 20 -14 42t-29 37q5 10 14.5 15.5t20 10t20 9.5t15.5 13zM401 1903l-340 -193l17 91l340 193zM390 2031l-340 -193l17 91l340 193z" />
<glyph unicode="&#x651;&#x64c;" horiz-adv-x="484" arabic-form="isolated" d="M425 1928q-9 -15 -30 -38t-49 -44.5t-60.5 -37t-64.5 -15.5q-33 0 -49 13.5t-16 30.5q0 19 9 39.5t9 35.5q0 10 -7 16t-27 6q-15 0 -38.5 -4t-58.5 -13q25 29 58.5 43.5t64.5 14.5q30 0 51 -14.5t21 -43.5q0 -14 -5.5 -31t-18.5 -37q48 17 89.5 38t75.5 53 q-48 10 -67.5 30.5t-19.5 45.5q0 22 12 43t31.5 37.5t44.5 27t50 10.5q21 -2 28.5 -19t7.5 -40q0 -26 -5.5 -50t-9.5 -33l40 -10l-18 -65zM396 1846q26 -31 39.5 -69.5t13.5 -78.5q0 -25 -5.5 -48t-17.5 -40t-30 -27.5t-42 -10.5q-17 0 -28.5 6.5t-25.5 16.5 q-5 -12 -13.5 -29t-23 -32.5t-36 -26.5t-50.5 -11q-26 0 -43.5 12.5t-28 32.5t-14.5 44.5t-4 48.5q0 26 4 47t9 32q0 -1 1 -1t5 4t8.5 9t8.5 9t6 4q1 0 1 -1q-3 -12 -5 -26.5t-2 -29.5q0 -17 2.5 -33t9 -28.5t16.5 -20t25 -7.5q33 0 48 17.5t21 42t7.5 49.5t6.5 40l1 -1 q2 0 5 3.5t6.5 8t6.5 8t5 3.5t2 -1q-1 -5 -1 -14q0 -38 19.5 -64t47.5 -26q5 0 13.5 2t16.5 6t14 10.5t6 16.5q0 20 -14 43t-28 38q11 20 19.5 37.5t17.5 34.5zM403 2065q-6 6 -13.5 7t-12.5 1q-17 0 -24 -9t-7 -20q0 -17 20 -25l45 -18q0 5 1 9q0 4 0.5 9t0.5 11 q0 12 -2 22.5t-8 14.5v-2z" />
<glyph unicode="&#x651;&#x64d;" horiz-adv-x="425" arabic-form="isolated" d="M370 2050q24 -30 36.5 -67.5t12.5 -75.5q0 -26 -6 -49.5t-18 -41.5t-30 -28.5t-42 -10.5q-18 0 -29.5 7t-26.5 18q-5 -12 -13.5 -28.5t-23.5 -31.5t-36 -25.5t-49 -10.5q-26 0 -43 12t-27.5 31.5t-14.5 43t-4 47.5q0 28 4.5 51.5t10.5 34.5q0 -1 1 -1t5 4l8.5 8.5 l8.5 8.5t6 4q1 0 1 -1q-8 -29 -8 -62t11.5 -59t40.5 -26q32 0 47.5 17t22 41t8 49t7.5 40l1 -1q2 0 5 3.5t7 7.5t7 7.5t5 3.5t2 -1q-1 -5 -1 -9v-9q0 -37 18.5 -62t46.5 -25q5 0 13 2t16 6t14 11t6 17q0 19 -12.5 41t-26.5 38q11 20 20 37t19 34zM391 1684l-350 -141l33 75 l350 141zM381 1579l-350 -141l33 75l350 141z" />
<glyph unicode="&#x651;&#x64e;" horiz-adv-x="425" arabic-form="isolated" d="M398 1823q6 -11 6 -16q0 -4 -1 -6.5t-1 -7.5q0 -2 0.5 -5t2.5 -8q15 -41 15 -83q0 -24 -5.5 -46.5t-17 -40t-29 -27.5t-41.5 -10q-17 0 -29 6t-26 16q-5 -14 -14 -31t-24 -33t-38 -26.5t-54 -10.5q-22 0 -36.5 8t-23.5 21.5t-12.5 30.5t-3.5 34q0 22 4.5 41.5t9.5 30.5 q0 -1 1 -1t4.5 4t8 9t8.5 9t6 4q1 0 1 -1q-3 -14 -5.5 -27.5t-2.5 -24.5q0 -19 8 -31t29 -12q25 0 40.5 8t24.5 21t13 29.5t5.5 33.5t3 32.5t4.5 27.5l1 -1q2 0 5 3.5t6 8t6.5 8t5.5 3.5q1 0 2 -1q-1 -5 -1 -13q0 -38 19.5 -64t47.5 -26q5 0 13.5 2t16.5 6.5t14 11.5t6 17 q0 20 -14 42t-29 37q5 10 14.5 15.5t20 10t20 9.5t15.5 13zM401 1903l-340 -193l17 91l340 193z" />
<glyph unicode="&#x651;&#x64f;" horiz-adv-x="437" arabic-form="isolated" d="M372 1846q26 -31 39.5 -69.5t13.5 -78.5q0 -25 -5.5 -48t-17.5 -40t-30 -27.5t-42 -10.5q-17 0 -28.5 6.5t-25.5 16.5q-5 -12 -13.5 -29t-23 -32.5t-36 -26.5t-50.5 -11q-26 0 -43.5 12.5t-28 33t-14.5 45t-4 48.5q0 26 4 47t9 32q0 -1 1 -1t5 4l8.5 8.5l8.5 8.5t6 4 q1 0 1 -1q-3 -12 -5 -26.5t-2 -29.5q0 -17 2.5 -33t9 -28.5t16.5 -20t25 -7.5q33 0 48 17.5t21 42t7.5 49.5t6.5 40l1 -1q2 0 5 3.5t6.5 8t6.5 8t5 3.5t2 -1q-1 -5 -1 -14q0 -38 19.5 -64t47.5 -26q5 0 13.5 2t16.5 6t14 10.5t6 16.5q0 20 -14 43t-28 38q11 20 19.5 37.5 t17.5 34.5zM347 1915q-11 -18 -36 -40.5t-59 -42.5t-74.5 -33.5t-81.5 -13.5q-45 0 -66.5 3t-26.5 3l-2 -1q0 1 1 1q60 20 103 34t77 28t61.5 31t54.5 43q-51 9 -72 30t-21 46q0 22 13 43.5t34 38t47 27t52 10.5q23 -2 31 -19.5t8 -40.5q0 -25 -6 -49.5t-11 -34.5l43 -10 l-19 -63zM322 2054q-6 5 -13 6.5t-12 1.5q-17 0 -26 -9t-9 -20q0 -18 20.5 -27t48.5 -17q0 4 1 9q0 4 0.5 9.5t0.5 11.5q0 11 -2 22t-9 14v-1z" />
<glyph unicode="&#x651;&#x650;" horiz-adv-x="425" arabic-form="isolated" d="M385 1972q24 -30 36.5 -67.5t12.5 -75.5q0 -26 -6 -49.5t-18 -41.5t-30 -28.5t-42 -10.5q-18 0 -29.5 7t-26.5 18q-5 -12 -13.5 -28.5t-23.5 -31.5t-36 -25.5t-49 -10.5q-26 0 -43 12t-27.5 31.5t-14.5 43t-4 47.5q0 28 4.5 51.5t10.5 34.5q0 -1 1 -1t5 4l8.5 8.5 l8.5 8.5t6 4q1 0 1 -1q-8 -29 -8 -62t11.5 -59t40.5 -26q32 0 47.5 17t22 41t8 49t7.5 40l1 -1q2 0 5 3.5t7 7.5t7 7.5t5 3.5t2 -1q-1 -5 -1 -9v-9q0 -37 18.5 -62t46.5 -25q5 0 13 2t16 6t14 11t6 17q0 19 -12.5 41t-26.5 38q11 20 20 37t19 34zM422 1590l-340 -193l17 91 l340 193z" />
<glyph unicode="&#x640;&#x651;&#x64e;" horiz-adv-x="375" arabic-form="medial" d="M298 1190q6 -11 6 -16q0 -4 -1 -6.5t-1 -7.5q0 -2 0.5 -5t2.5 -8q15 -41 15 -83q0 -24 -5.5 -46.5t-17 -40t-29 -27.5t-41.5 -10q-17 0 -29 6t-26 16q-5 -14 -14 -31t-24 -33t-38 -26.5t-54 -10.5q-22 0 -36.5 8t-23.5 21.5t-12.5 30.5t-3.5 34q0 22 4.5 41.5t9.5 30.5 q0 -1 1 -1t4.5 4t8 9t8.5 9t6 4q1 0 1 -1q-3 -14 -5.5 -27.5t-2.5 -24.5q0 -19 8 -31t29 -12q25 0 40.5 8t24.5 21t13 29.5t5.5 33.5t3 33t4.5 27l1 -1q2 0 5 3.5t6 8t6.5 8t5.5 3.5q1 0 2 -1q-1 -5 -1 -13q0 -38 19.5 -64t47.5 -26q5 0 13.5 2t16.5 6.5t14 11.5t6 17 q0 20 -14 42t-29 37q5 10 14.5 15.5t20 10t20 9.5t15.5 13zM301 1270l-340 -193l17 91l340 193z" />
<glyph unicode="&#x640;&#x651;&#x64f;" horiz-adv-x="480" arabic-form="medial" d="M365 1238q26 -31 39.5 -69.5t13.5 -78.5q0 -25 -5.5 -48t-17.5 -40t-30 -27.5t-42 -10.5q-17 0 -28.5 6.5t-25.5 16.5q-5 -12 -13.5 -29t-23 -32.5t-36 -26.5t-50.5 -11q-26 0 -43.5 12.5t-28 33t-14.5 45t-4 48.5q0 26 4 47t9 32q0 -1 1 -1t5 4l8.5 8.5l8.5 8.5t6 4 q1 0 1 -1q-3 -12 -5 -26.5t-2 -29.5q0 -17 2.5 -33t9 -28.5t16.5 -20t25 -7.5q33 0 48 17.5t21 42t7.5 49.5t6.5 40l1 -1q2 0 5 3.5t6.5 8t6.5 8t5 3.5t2 -1q-1 -5 -1 -14q0 -38 19.5 -64t47.5 -26q5 0 13.5 2t16.5 6t14 10.5t6 16.5q0 20 -14 43t-28 38q11 20 19.5 37.5 t17.5 34.5zM340 1307q-11 -18 -36 -40.5t-59 -42.5t-74.5 -33.5t-81.5 -13.5q-45 0 -66.5 3t-26.5 3l-2 -1q0 1 1 1q60 20 103 34t77 28t61.5 31t54.5 43q-51 9 -72 30t-21 46q0 22 13 43.5t34 38t47 27t52 10.5q23 -2 31 -19.5t8 -40.5q0 -25 -6 -49.5t-11 -34.5l43 -10 l-19 -63zM315 1446q-6 5 -13 6.5t-12 1.5q-17 0 -26 -9t-9 -20q0 -18 20.5 -27t48.5 -17q0 4 1 9q0 4 0.5 9.5t0.5 11.5q0 11 -2 22t-9 14v-1z" />
<glyph unicode="&#xfedf;&#xfee0;&#xfeea;" horiz-adv-x="2023" arabic-form="isolated" d="M1171 173q-57 0 -102.5 9t-80.5 25t-62.5 38.5t-48.5 49.5q-31 -68 -76 -99.5t-102 -31.5q-48 0 -102 25.5t-109 70t-109.5 105t-104 130t-91.5 145.5t-73 151.5t-48.5 147t-17.5 133.5q0 47 12.5 86.5t37.5 68t62.5 44.5t86.5 16q65 0 153 -29t207 -97q-8 27 -14.5 52.5 t-11.5 45.5l149 38q35 -135 60.5 -234.5t43.5 -169t29 -113t17.5 -68t8.5 -32.5t2 -7q13 -53 31.5 -113.5t48 -112.5t72 -86.5t105.5 -34.5q29 2 53 22.5t50 52.5q24 31 34.5 81t10.5 114q0 63 -9.5 137t-25.5 154.5t-38 165.5t-47 169.5t-51.5 166.5t-52.5 156l167 44 q72 -224 114.5 -386.5t65.5 -278t31.5 -191t12.5 -126.5q3 -36 10.5 -83t25.5 -90t49.5 -74t81.5 -34q52 0 87 20.5t56.5 55t30.5 81.5t9 100q0 20 -1 41.5t-4 44.5q-6 46 -23.5 112t-42.5 142.5t-54.5 158.5t-58.5 160.5t-56.5 148t-47.5 120.5q-7 17 -14 36.5t-14 36.5 t-12 31t-7 20l144 51q2 -6 7 -18t11 -27t12 -31.5t12 -30.5q20 -51 48 -122.5t58.5 -153.5t61.5 -169.5t57.5 -170t45.5 -155t26 -124.5q3 -26 4.5 -53.5t1.5 -53.5q0 -83 -16 -155.5t-54 -127t-101 -87t-156 -34.5q-87 2 -148.5 40t-106.5 109q-2 2 -2 3l-1 1l-1 -1 q0 -1 0.5 -1.5t0.5 -1.5q-2 -2 -3 -4q-38 -60 -91 -98t-113 -47zM657 946q-156 103 -255 148t-151 45q-37 0 -47 -19.5t-10 -53.5q0 -41 14.5 -94.5t39.5 -113t59 -121.5t72.5 -121t80.5 -112t83 -93t79.5 -64.5t70.5 -27.5q14 1 26.5 12t22.5 35.5t17.5 63t10.5 94.5 q-8 27 -15 53t-14 51l1 -2q-1 3 -3 7zM1379 323q2 -4 2 -5v-1q0 -1 -1 1l-2 4z" />
<glyph unicode="&#x640;&#x64e;" horiz-adv-x="448" arabic-form="medial" d="M396 1157q-97 -52 -191.5 -102.5t-191.5 -102.5q5 24 8 39.5t7 37.5q99 52 191.5 101.5t191.5 102.5z" />
<glyph unicode="&#x640;&#x64f;" horiz-adv-x="490" arabic-form="medial" d="M360 1221q-11 -23 -36.5 -51.5t-60.5 -53.5t-76 -42.5t-83 -17.5q-28 0 -47 1t-30 2.5t-16 2.5l-5 1q61 26 105.5 44t79.5 36t63 39.5t56 54.5q-52 12 -73.5 38t-21.5 58q0 27 12.5 54t33 48.5t46.5 35.5t52 14t35.5 -22t9.5 -54t-6 -63t-11 -44l44 -13l-19 -80z M335 1398q-6 7 -14.5 8.5t-13.5 1.5q-17 0 -25.5 -11.5t-8.5 -25.5q0 -23 21 -34t50 -22q0 5 1 11q0 5 0.5 12t0.5 15q0 15 -2 28.5t-9 18.5v-2z" />
<glyph unicode="&#x640;&#x650;" horiz-adv-x="669" arabic-form="medial" d="M392 506q-97 -52 -191.5 -102.5t-191.5 -102.5q5 23 8 39t7 38q99 52 191.5 101.5t191.5 102.5z" />
<glyph unicode="&#x640;&#x651;" horiz-adv-x="448" arabic-form="medial" d="M386 1293q17 -26 25 -57.5t8 -61.5q0 -28 -6.5 -54.5t-19 -47t-31 -33t-43.5 -12.5t-37.5 9t-27.5 23q-6 -11 -16 -25t-24.5 -26.5t-34.5 -21t-45 -8.5t-42 9.5t-27 25t-14 35.5t-4 41q0 37 9 70t18 47q0 -1 1 -1t5.5 3.5t9.5 7t9.5 7t6.5 3.5q1 0 1 -1 q-8 -17 -12.5 -39.5t-4.5 -43.5q0 -29 11.5 -48.5t40.5 -19.5q28 0 43.5 15.5t24 37.5t13 44.5t12.5 37.5l1 -1q5 0 13.5 9.5t12.5 9.5q2 0 2 -1q-4 -15 -4 -32q0 -34 17 -57t44 -23q6 0 14 1.5t15.5 5t13 10.5t5.5 19q0 19 -9.5 40.5t-20.5 36.5q13 18 24.5 34t22.5 32z " />
<glyph unicode="&#xfedf;&#xfe82;" horiz-adv-x="1157" arabic-form="isolated" d="M1086 1143q0 -20 1.5 -43.5t1.5 -49.5q0 -38 -5 -80t-20 -86t-43 -89.5t-74 -90.5q53 -100 84 -187.5t31 -159.5q0 -79 -43.5 -136t-113.5 -94t-157.5 -55t-175.5 -18q-77 0 -145.5 13t-120 38.5t-82 63t-30.5 87.5q0 57 34 108t88.5 97.5t122 89t134.5 81.5 q51 29 92 52.5t84 55.5q-56 90 -123.5 186t-139 190.5t-143.5 185t-137 170.5q-14 18 -29.5 36t-29.5 35h1q-15 18 -31.5 39.5t-33 42.5t-32 41t-26.5 35l118 98q17 -22 38.5 -50t45.5 -58.5t49 -61.5t49 -60q65 -80 136.5 -170t142.5 -184t138 -188.5t124 -183.5 q23 27 36.5 54t20.5 53t9 52t2 50q0 26 -1 48.5t-1 42.5v643h154v-643zM908 359q-2 50 -23 113.5t-59 135.5q-36 -25 -73.5 -48t-75.5 -46q-5 -2 -8.5 -3.5t-17.5 -11.5q-51 -31 -99.5 -61t-89 -60t-70.5 -59.5t-42 -59.5q0 -12 20.5 -21.5t52.5 -16.5t71 -10.5t75 -3.5 q59 0 119.5 9t109 28t79.5 47.5t31 67.5zM-20 1901q0 15 6.5 35t20.5 37t36 29t54 12q15 0 35 -4t41.5 -9.5t43 -9.5t39.5 -4q48 0 125 72q-39 -164 -132 -164q-16 0 -35.5 4t-39.5 9t-39.5 9t-34.5 4q-55 0 -89 -34z" />
<glyph unicode="&#xfee0;&#xfe82;" horiz-adv-x="1215" arabic-form="final" d="M1173 173q-81 3 -144.5 48.5t-105.5 130.5q-35 -62 -79 -104.5t-98 -69.5q-52 -27 -107.5 -39t-115.5 -12q-96 0 -198.5 31.5t-202.5 85.5l74 135q82 -45 166 -72t158 -27q39 0 75.5 6.5t69.5 22t62 40.5t53 62q-186 297 -379.5 606t-379.5 606l131 81l694 -1112 q6 32 8.5 67t4.5 74q0 257 1 526.5t1 526.5h154v-1131q0 -76 13 -136.5t35 -103t51.5 -65.5t63.5 -24h46v-153h-51zM6 1792q0 15 6.5 35t20.5 37t36 29t54 12q15 0 35 -4t41.5 -9.5t43 -9.5t39.5 -4q48 0 125 72q-39 -164 -132 -164q-16 0 -35.5 4t-39.5 9t-39.5 9t-34.5 4 q-55 0 -89 -34z" />
<glyph unicode="&#xfedf;&#xfe84;" horiz-adv-x="1157" arabic-form="isolated" d="M1084 1143q0 -20 1.5 -43.5t1.5 -49.5q0 -38 -5 -80t-20 -86t-43 -89.5t-74 -90.5q53 -99 84 -187t31 -160q0 -79 -43.5 -136t-113.5 -94t-157.5 -55t-175.5 -18q-77 0 -145 13t-120 38.5t-82 63t-30 87.5q0 58 36.5 110t93 100t126 91t135.5 83q24 15 45 26.5t40 23 t38.5 24t40.5 27.5q-54 89 -121.5 184t-140 189.5t-145 185.5t-137.5 172q-21 25 -45 54.5t-48 60t-47 59.5t-41 55l118 98q16 -22 38 -50t46 -58.5t49 -61.5t49 -60q65 -80 136.5 -170t142.5 -183.5t138.5 -188t123.5 -184.5q23 27 37 53.5t21 53t9 52t2 50.5q0 26 -1 48.5 t-1 42.5v643h153v-643zM907 360q-2 50 -24 113t-60 136q-45 -31 -88.5 -57.5t-85.5 -52.5q-50 -30 -98.5 -60.5t-89 -60.5t-70.5 -60t-43 -59q0 -12 20.5 -21.5t52.5 -16.5t71 -10.5t75 -3.5q60 0 120.5 9t109 28t79.5 48t31 68zM153 2069q-17 11 -38 18.5t-38 7.5 q-14 0 -22 -5.5t-8 -16.5q0 -36 20 -53t77 -17q23 14 53.5 32t51.5 30l43 -69l-266 -154l-44 70l55 31q-39 23 -57 56t-18 66q0 22 8 42t22.5 35.5t35 24.5t46.5 9q23 0 50.5 -8t58.5 -27z" />
<glyph unicode="&#xfee0;&#xfe84;" horiz-adv-x="1215" arabic-form="final" d="M1172 173q-80 2 -144.5 48t-106.5 131q-35 -62 -79 -104.5t-97 -69.5q-51 -27 -107 -39t-116 -12q-95 0 -198.5 31.5t-202.5 85.5l73 134q81 -44 165 -71t159 -27q38 0 75 7t70 23t62.5 40.5t52.5 60.5q-186 297 -379 606t-379 606l131 81l694 -1112q5 30 8.5 67t4.5 73 q0 258 1 527.5t1 526.5h154v-1131q0 -77 12.5 -137.5t34.5 -102.5t52 -65t64 -24h46v-153h-51zM158 1986q-17 11 -38 18.5t-38 7.5q-14 0 -22 -5.5t-8 -16.5q0 -36 20 -53t77 -17q23 14 53.5 32t51.5 30l43 -69l-266 -154l-44 70l55 31q-39 23 -57 56t-18 66q0 22 8 42 t22.5 35.5t35 24.5t46.5 9q23 0 50.5 -8t58.5 -27z" />
<glyph unicode="&#xfedf;&#xfe88;" horiz-adv-x="1157" arabic-form="isolated" d="M1087 1143q0 -20 1.5 -43.5t1.5 -49.5q0 -38 -5 -80t-20 -86t-43 -89.5t-74 -90.5q53 -99 84 -187t31 -160q0 -53 -20 -95.5t-55 -76.5t-82 -58.5t-101.5 -40.5t-114 -24t-118.5 -8q-76 0 -144.5 13t-120 38.5t-82 63t-30.5 87.5q0 58 36.5 110.5t93.5 100t126.5 90.5 t135.5 83q24 15 44.5 26.5t40 23t38.5 24t41 27.5q-54 89 -122 184t-140 189.5t-145 185.5t-137 172q-21 25 -45 54.5t-48 59.5t-47 59.5t-42 55.5l118 98q16 -22 38 -50t46 -58.5t49.5 -61.5t49.5 -60q65 -80 136.5 -170t142 -183.5t138 -188.5t124.5 -184q23 27 36.5 53.5 t20.5 53t9 52t2 50.5q0 26 -1 48.5t-1 42.5v643h154v-643zM909 360q-2 50 -23.5 113t-59.5 136q-45 -31 -88.5 -57.5t-86.5 -52.5q-50 -30 -98 -60t-88.5 -60.5t-70.5 -60.5t-43 -59q0 -12 20.5 -21.5t52.5 -16.5t70.5 -10.5t74.5 -3.5q60 0 120.5 9t109.5 28t79.5 48 t30.5 68zM320 -136q-17 11 -38 18.5t-38 7.5q-14 0 -22 -5.5t-8 -16.5q0 -36 20 -53t77 -17q23 14 53.5 32t51.5 30l43 -69l-266 -154l-44 70l55 31q-39 23 -57 56t-18 66q0 22 8 42t22.5 35.5t35 24.5t46.5 9q23 0 50.5 -8t58.5 -27z" />
<glyph unicode="&#xfee0;&#xfe88;" horiz-adv-x="1215" arabic-form="final" d="M1174 173q-80 2 -144.5 48t-106.5 131q-35 -62 -79 -104.5t-97 -69.5q-51 -27 -107 -39t-116 -12q-95 0 -198.5 31.5t-202.5 85.5l73 134q81 -44 165 -71t159 -27q38 0 75 7t70 23t62.5 40.5t52.5 60.5q-186 297 -379 606t-379 606l131 81l694 -1112q5 30 8.5 67t4.5 73 q0 258 1 527.5t1 526.5h154v-1131q0 -77 13 -137.5t35 -102.5t51.5 -65t63.5 -24h46v-153h-51zM299 -78q-17 11 -38 18.5t-38 7.5q-14 0 -22 -5.5t-8 -16.5q0 -36 20 -53t77 -17q23 14 53.5 32t51.5 30l43 -69l-266 -154l-44 70l55 31q-39 23 -57 56t-18 66q0 22 8 42 t22.5 35.5t35 24.5t46.5 9q23 0 50.5 -8t58.5 -27z" />
<glyph unicode="&#xfedf;&#xfe8e;" horiz-adv-x="1157" arabic-form="isolated" d="M1087 1143q0 -20 1.5 -43.5t1.5 -49.5q0 -38 -5 -80t-20 -86t-43 -89.5t-74 -90.5q53 -99 84 -187t31 -160q0 -53 -20 -95.5t-55 -76.5t-82 -58.5t-101.5 -40.5t-114 -24t-118.5 -8q-76 0 -144.5 13t-120 38.5t-82 63t-30.5 87.5q0 58 36.5 110.5t93.5 100t126.5 90.5 t135.5 83q24 15 44.5 26.5t40 23t38.5 24t41 27.5q-54 89 -122 184t-140 189.5t-145 185.5t-137 172q-21 25 -45 54.5t-48 59.5t-47 59.5t-42 55.5l118 98q16 -22 38 -50t46 -58.5t49.5 -61.5t49.5 -60q65 -80 136.5 -170t142 -183.5t138 -188.5t124.5 -184q23 27 36.5 53.5 t20.5 53t9 52t2 50.5q0 26 -1 48.5t-1 42.5v643h154v-643zM909 360q-2 50 -23.5 113t-59.5 136q-45 -31 -88.5 -57.5t-86.5 -52.5q-50 -30 -98 -60t-88.5 -60.5t-70.5 -60.5t-43 -59q0 -12 20.5 -21.5t52.5 -16.5t70.5 -10.5t74.5 -3.5q60 0 120.5 9t109.5 28t79.5 48 t30.5 68z" />
<glyph unicode="&#xfee0;&#xfe8e;" horiz-adv-x="1215" arabic-form="final" d="M1174 173q-80 2 -144.5 48t-106.5 131q-35 -62 -79 -104.5t-97 -69.5q-51 -27 -107 -39t-116 -12q-95 0 -198.5 31.5t-202.5 85.5l73 134q81 -44 165 -71t159 -27q38 0 75 7t70 23t62.5 40.5t52.5 60.5q-186 297 -379 606t-379 606l131 81l694 -1112q5 30 8.5 67t4.5 73 q0 258 1 527.5t1 526.5h154v-1131q0 -77 13 -137.5t35 -102.5t51.5 -65t63.5 -24h46v-153h-51z" />
<glyph unicode="&#xfcf4;" horiz-adv-x="532" arabic-form="medial" d="M424 1178q-11 -23 -36.5 -51.5t-60.5 -53.5t-76 -42.5t-83 -17.5q-28 0 -47 1t-30 2.5t-16 2.5l-5 1q61 26 105.5 44t79.5 36t63 39.5t56 54.5q-52 12 -73.5 38t-21.5 58q0 27 12.5 54t33 48.5t46.5 35.5t52 14t35.5 -22t9.5 -54t-6 -63t-11 -44l44 -13l-19 -80z M399 1355q-6 7 -14.5 8.5t-13.5 1.5q-17 0 -25.5 -11.5t-8.5 -25.5q0 -23 21 -34t50 -22q0 5 1 11q0 5 0.5 12t0.5 15q0 15 -2 28.5t-9 18.5v-2z" />
<glyph unicode="&#xfe70;" horiz-adv-x="408" arabic-form="isolated" d="M389 1675l-340 -193l17 91l340 193zM403 1842l-340 -193l17 91l340 193z" />
<glyph unicode="&#xfe71;" horiz-adv-x="669" arabic-form="medial" d="M383 1154q-97 -52 -191 -102.5t-191 -102.5q5 23 8 39t7 38q99 52 191.5 101.5t191.5 102.5zM416 1345q-97 -52 -191.5 -102.5t-191.5 -102.5q5 23 8.5 38.5t7.5 38.5q99 52 191 101.5t191 102.5z" />
<glyph unicode="&#xfe72;" horiz-adv-x="469" arabic-form="isolated" d="M409 1632q-8 -18 -28 -45.5t-47 -53t-58 -43.5t-62 -18t-46 16t-15 36q0 23 8 47t8 41q0 12 -6.5 19.5t-26.5 7.5q-14 0 -36.5 -4.5t-54.5 -15.5q23 34 55.5 51t61.5 17t49 -16.5t20 -51.5q0 -34 -23 -80q46 20 85.5 44t71.5 62q-45 11 -64 35.5t-19 53.5q0 26 12 51 t30.5 45t42 32.5t47.5 12.5q20 -2 27 -23t7 -47q0 -29 -5 -58t-9 -40l38 -12l-17 -76zM388 1793q-6 6 -12.5 8t-12.5 2q-15 0 -22 -11t-7 -24q0 -20 19 -30t43 -21q0 5 1 10q0 5 0.5 10.5t0.5 12.5q0 14 -2 27.5t-8 17.5v-2z" />
<glyph unicode="&#xfe74;" horiz-adv-x="408" arabic-form="isolated" d="M384 -83q-97 -52 -191.5 -102.5t-191.5 -102.5q5 23 8 38.5t7 38.5q99 52 191.5 101.5t191.5 102.5zM416 107q-97 -52 -191.5 -102.5t-191.5 -102.5q5 24 8.5 39.5t7.5 38.5q99 52 191 101t191 102z" />
<glyph unicode="&#xfe76;" horiz-adv-x="408" arabic-form="isolated" d="M396 1583q-97 -52 -191.5 -102.5t-191.5 -102.5q5 24 8 39.5t7 37.5q99 52 191.5 101.5t191.5 102.5z" />
<glyph unicode="&#xfe78;" horiz-adv-x="414" arabic-form="isolated" d="M366 1664q-11 -23 -36.5 -51.5t-60.5 -53.5t-76 -42.5t-83 -17.5q-28 0 -47 1t-30 2.5t-16 2.5l-5 1q61 26 105.5 44t79.5 36t63 39.5t56 54.5q-52 12 -73.5 38t-21.5 58q0 27 12.5 54t33 48.5t46.5 35.5t52 14t35.5 -22t9.5 -54t-6 -63t-11 -44l44 -13l-19 -80z M341 1841q-6 7 -14.5 8.5t-13.5 1.5q-17 0 -25.5 -11.5t-8.5 -25.5q0 -23 21 -34t50 -22q0 5 1 11q0 5 0.5 12t0.5 15q0 15 -2 28.5t-9 18.5v-2z" />
<glyph unicode="&#xfe7a;" horiz-adv-x="408" arabic-form="isolated" d="M392 -363q-97 -52 -191.5 -102.5t-191.5 -102.5q5 23 8 39t7 38q99 52 191.5 101.5t191.5 102.5z" />
<glyph unicode="&#xfe7c;" horiz-adv-x="425" arabic-form="isolated" d="M398 1823q17 -26 25 -57.5t8 -61.5q0 -28 -6.5 -54.5t-19 -47t-31 -33t-43.5 -12.5t-37.5 9t-27.5 23q-6 -11 -16 -25t-24.5 -26.5t-34.5 -21t-45 -8.5t-42 9.5t-27 25t-14 35.5t-4 41q0 37 9 70t18 47q0 -1 1 -1t5.5 3.5t9.5 7t9.5 7t6.5 3.5q1 0 1 -1 q-8 -17 -12.5 -39.5t-4.5 -43.5q0 -29 11.5 -48.5t40.5 -19.5q28 0 43.5 15.5t24 37.5t13 44.5t12.5 37.5l1 -1q5 0 13.5 9.5t12.5 9.5q2 0 2 -1q-4 -15 -4 -32q0 -34 17 -57t44 -23q6 0 14 1.5t15.5 5t13 10.5t5.5 19q0 19 -9.5 40.5t-20.5 36.5q13 18 24.5 34t22.5 32z " />
<glyph unicode="&#xfe7e;" horiz-adv-x="328" arabic-form="isolated" d="M347 1696q1 -4 1 -8v-8q0 -31 -14.5 -65t-37.5 -78v1q0 1 1 2l-3 -5q-13 -8 -30 -15.5t-36.5 -13.5t-40.5 -9.5t-40 -3.5q-40 0 -65 19.5t-25 69.5q0 37 12 78t32.5 75t48.5 56.5t60 22.5q25 0 48.5 -12t42.5 -29.5t31 -38t15 -38.5zM283 1628q-3 13 -12.5 28.5t-23 28.5 t-29.5 21.5t-32 8.5q-32 0 -48 -21t-16 -43q0 -28 20.5 -40t48.5 -12q23 0 47.5 7.5t43.5 20.5z" />
<glyph unicode="&#xfe7f;" horiz-adv-x="2797" arabic-form="medial" d="M90 727h2611v-504h-2611v504zM1364 886q-21 -12 -45 -26t-49.5 -25.5t-50.5 -19.5t-49 -8q-31 0 -55.5 20.5t-43.5 65.5q-17 -12 -30 -20.5t-25.5 -15.5t-25.5 -12t-30 -11q-18 -6 -32 -6q-17 0 -33 11.5t-16 33.5q0 7 2.5 15t6.5 17q18 40 49 76.5t68.5 64t77.5 44 t76 16.5q27 0 48 -16t21 -52q0 -15 -13.5 -34t-30 -39t-30 -42t-13.5 -43q0 -15 9 -21.5t23 -6.5q21 0 49.5 10t56.5 23t51.5 25.5t33.5 18.5q8 37 32.5 68.5t55.5 54.5t63.5 36.5t57.5 13.5q14 0 20 -5t6 -13q0 -10 -11 -20.5t-30 -12.5q-19 -7 -44 -19t-47.5 -30t-38 -41 t-15.5 -52q0 -32 16.5 -45t42.5 -13t59 10t64.5 23.5t58 27.5t41.5 21q0 36 19 71t48.5 62.5t66.5 44t73 16.5q22 0 36.5 -4.5t22 -11t10.5 -15t3 -15.5q0 -26 -29 -52t-67 -49t-74.5 -40.5t-52.5 -25.5q16 -23 41 -33.5t57 -10.5q30 0 64.5 8.5t70 23.5t70 35.5t64.5 43.5 q19 14 38 32t40 33q4 3 13 8t19.5 10.5t21.5 9t20 3.5q15 0 15 -13q0 -5 -4 -16.5t-10 -22.5q-16 -45 -25.5 -75t-11.5 -47q0 -5 6 -5q7 0 20 6.5t29.5 16t34 22t32.5 24.5q4 2 23 15t43 27.5t48 26.5t38 12q12 0 12 -12q-3 -29 -3 -57q0 -12 1 -24.5t4.5 -22t10 -15.5 t17.5 -6q17 0 31 5.5t27 13.5t25.5 18t27.5 19l8 -21q-12 -9 -30 -25t-38.5 -31.5t-42.5 -27t-42 -11.5q-15 0 -25 6t-15 15t-7 19t-2 19t1 18.5t1 17.5q0 11 -3.5 21t-14.5 10q-10 0 -27.5 -9.5t-38.5 -24t-45 -31t-48 -31t-46 -24.5t-40 -10q-11 2 -22 8t-11 19 q0 23 4.5 44.5t18.5 62.5q0 1 -15.5 -10t-43 -28t-64 -37t-77 -37.5t-83 -29t-82.5 -11.5q-41 0 -76.5 16.5t-49.5 46.5q-19 -8 -47.5 -22t-62 -27.5t-68.5 -23t-66 -9.5q-35 0 -61.5 16.5t-35.5 60.5zM524 1295q8 37 25.5 64t46.5 27q10 0 19.5 -3.5t9.5 -17.5 q0 -9 -8 -24.5t-17 -28.5l-97 -192q105 5 209 36t189 97q35 31 61.5 43.5t43.5 12.5q25 0 25 -21q0 -19 -23 -47.5t-73 -54.5q-33 -34 -63 -72t-54 -82t-40 -96t-20 -115q0 -19 -15 -19q-12 0 -18 13.5t-6 45.5q0 73 22.5 140.5t56.5 124.5q-76 -25 -155 -36.5t-161 -11.5 l-80 -160q-16 -31 -39.5 -54t-55.5 -23q-24 0 -50 18.5t-47 49t-35 68.5t-14 77q0 34 16.5 56.5t54.5 22.5q51 0 104.5 -8.5t107.5 -8.5zM1103 265h91v320l318 -320h109v421h-91v-320l-313 320h-114v-421zM1709 265h430v76h-331v108h299v75h-299v87h322v75h-421v-421z M2202 686v-77h183v-344h89v344h183v77h-455zM427 1080q-108 3 -214 21q-13 -10 -13 -35q0 -23 9.5 -52.5t25.5 -56t36 -45t40 -18.5q15 0 29 12t26 40zM1183 1059q-5 1 -10 1h-10q-36 0 -70.5 -17t-65 -43.5t-56 -58.5t-43.5 -61q41 0 77.5 16.5t68.5 42t59 57.5t50 63z M880 390v-125h126v125h-126zM1914 1091q-50 -5 -99 -38t-78 -99q40 17 73.5 34t58.5 33t39 30t14 25q0 10 -8 15z" />
<glyph unicode="&#x621;" horiz-adv-x="1095" arabic-form="isolated" d="M761 817q-104 52 -185 75t-143 23q-52 0 -93 -13.5t-69 -37.5t-42.5 -56.5t-14.5 -70.5q0 -48 23 -98.5t69 -98t116 -88t165 -68.5q92 53 193 112t192 112l75 -134l-873 -507l-76 135l314 181q-70 31 -125 70t-96.5 82.5t-69 90.5t-42.5 95q-9 29 -13 57.5t-5 57.5 q0 67 24.5 127.5t72 105.5t117 71.5t158.5 26.5q79 0 177.5 -26t219.5 -86z" />
<glyph unicode="&#x622;" horiz-adv-x="407" arabic-form="isolated" d="M284 1786v-1258q0 -103 -23.5 -192t-67.5 -161l-129 79q31 55 49 123.5t18 150.5v1258h153zM11 1901q0 15 6.5 35t20.5 37t36 29t54 12q15 0 35 -4t41.5 -9.5t43 -9.5t39.5 -4q48 0 125 72q-39 -164 -132 -164q-16 0 -35.5 4t-39.5 9t-39.5 9t-34.5 4q-55 0 -89 -34z" />
<glyph unicode="&#x622;" horiz-adv-x="412" arabic-form="final" d="M227 1786v-1131q0 -76 13 -136.5t35 -103t51.5 -65.5t63.5 -24h46v-153h-51q-66 2 -123 35.5t-99 95t-66 150t-24 201.5v1131h154zM11 1901q0 15 6.5 35t20.5 37t36 29t54 12q15 0 35 -4t41.5 -9.5t43 -9.5t39.5 -4q48 0 125 72q-39 -164 -132 -164q-16 0 -35.5 4 t-39.5 9t-39.5 9t-34.5 4q-55 0 -89 -34z" />
<glyph unicode="&#x623;" horiz-adv-x="407" arabic-form="isolated" d="M285 1786v-1258q0 -103 -24 -192t-67 -161l-130 79q31 55 49 124t18 150v1258h154zM221 2101q-17 11 -38 18.5t-38 7.5q-14 0 -22 -5.5t-8 -16.5q0 -36 20 -53t77 -17q23 14 53.5 32t51.5 30l43 -69l-266 -154l-44 70l55 31q-39 23 -57 56t-18 66q0 22 8 42t22.5 35.5 t35 24.5t46.5 9q23 0 50.5 -8t58.5 -27z" />
<glyph unicode="&#x623;" horiz-adv-x="412" arabic-form="final" d="M227 1786v-1131q0 -77 13 -137.5t35 -102.5t52 -65t64 -24h46v-153h-51q-66 2 -123 35t-99 94.5t-66 150.5t-24 202v1131h153zM205 2127q-17 11 -38 18.5t-38 7.5q-14 0 -22 -5.5t-8 -16.5q0 -36 20 -53t77 -17q23 14 53.5 32t51.5 30l43 -69l-266 -154l-44 70l55 31 q-39 23 -57 56t-18 66q0 22 8 42t22.5 35.5t35 24.5t46.5 9q23 0 50.5 -8t58.5 -27z" />
<glyph unicode="&#x624;" horiz-adv-x="860" arabic-form="isolated" d="M429 1296q70 -4 125.5 -28t99 -64t74.5 -93t51 -114.5t30.5 -128.5t11.5 -134q0 -136 -13.5 -263t-47.5 -239.5t-92.5 -205.5t-148 -160t-213.5 -104t-289 -37v155q103 0 186 17.5t148.5 49.5t114.5 75.5t82 96.5q12 22 23.5 45.5t22.5 48.5q-75 -45 -174 -45 q-67 0 -121.5 24t-97.5 65.5t-74.5 96.5t-52.5 117t-31 127.5t-10 126.5q0 57 9 121.5t28 128t50 121.5t74.5 102.5t101.5 71t132 26.5h1zM668 725q-2 70 -13.5 142.5t-38.5 132.5t-72 99.5t-113 42.5q-48 0 -84.5 -20.5t-63.5 -54.5t-45.5 -77.5t-29.5 -89.5t-16 -91 t-5 -82q0 -44 6 -90.5t19 -91.5t32.5 -85.5t46 -71t61 -48.5t76.5 -18q58 0 103 34.5t75 91t45.5 129t16.5 148.5zM409 1648q-20 14 -46 22.5t-47 8.5q-17 0 -27 -6t-10 -20q0 -21 5.5 -37.5t19 -27t36.5 -16t58 -5.5q14 8 31 18.5t34.5 21t33.5 20t29 16.5l53 -84 l-326 -189l-54 86l68 38q-48 29 -70 68.5t-22 79.5q0 27 9.5 52t27 43.5t43 30t57.5 11.5q29 0 62 -10t71 -33z" />
<glyph unicode="&#x624;" horiz-adv-x="891" arabic-form="final" d="M435 1296q97 0 171 -48t123.5 -127t74.5 -180t25 -207q0 -109 -7.5 -210.5t-27.5 -197.5h114v-153h-158q-27 -71 -62 -133q-43 -72 -104 -130.5t-143 -99.5t-185.5 -63t-231.5 -22v155q120 0 210.5 21t157.5 59.5t113.5 93t78.5 121.5q-113 7 -197 32.5t-144.5 65.5 t-99 92t-61 111.5t-31.5 124.5t-9 130q0 107 24.5 208.5t74 181t123 127.5t171.5 48zM435 1142q-60 0 -105 -36t-75 -94t-45 -131.5t-15 -149.5q0 -77 16.5 -149t64 -127.5t133.5 -90.5t226 -38q23 92 31.5 193.5t8.5 211.5q0 76 -15 150t-45 132t-75 93.5t-105 35.5z M393 1648q-20 14 -46 22.5t-47 8.5q-17 0 -27 -6t-10 -20q0 -21 5.5 -37.5t19 -27t36.5 -16t58 -5.5q14 8 31 18.5t34.5 21t33.5 20t29 16.5l53 -84l-326 -189l-54 86l68 38q-48 29 -70 68.5t-22 79.5q0 27 9.5 52t27 43.5t43 30t57.5 11.5q29 0 62 -10t71 -33z" />
<glyph unicode="&#x625;" horiz-adv-x="407" arabic-form="isolated" d="M285 1786v-1258q0 -103 -23.5 -192t-67.5 -161l-129 79q31 55 49 124t18 150v1258h153zM226 -68q-17 11 -38 18.5t-38 7.5q-14 0 -22 -5.5t-8 -16.5q0 -36 20 -53t77 -17q23 14 53.5 32t51.5 30l43 -69l-266 -154l-44 70l55 31q-39 23 -57 56t-18 66q0 22 8 42t22.5 35.5 t35 24.5t46.5 9q23 0 50.5 -8t58.5 -27z" />
<glyph unicode="&#x625;" horiz-adv-x="412" arabic-form="final" d="M229 1786v-1131q0 -77 13 -137.5t35 -102.5t51.5 -65t63.5 -24h46v-153h-51q-66 2 -123 35t-99 94.5t-66 150.5t-24 202v1131h154zM226 -68q-17 11 -38 18.5t-38 7.5q-14 0 -22 -5.5t-8 -16.5q0 -36 20 -53t77 -17q23 14 53.5 32t51.5 30l43 -69l-266 -154l-44 70l55 31 q-39 23 -57 56t-18 66q0 22 8 42t22.5 35.5t35 24.5t46.5 9q23 0 50.5 -8t58.5 -27z" />
<glyph unicode="&#x626;" horiz-adv-x="1340" arabic-form="isolated" d="M1086 1142q-125 0 -214.5 -15.5t-146.5 -42t-84 -62.5t-27 -77q0 -38 17.5 -80t48.5 -83.5t73.5 -81.5t93.5 -75q32 -22 68 -48.5t73 -56t73.5 -62.5t69.5 -68q72 -78 119 -168.5t51 -193.5q0 -66 -22 -120.5t-61 -98.5t-92.5 -77t-116 -55t-132 -33t-140.5 -11 q-165 0 -274.5 40.5t-175 111.5t-93 167t-27.5 206q0 61 8 127.5t21 135t30.5 137.5t35.5 137l149 -41q-18 -63 -34 -128t-28.5 -128.5t-20 -124t-7.5 -115.5q0 -77 18.5 -144.5t65.5 -118t127.5 -79.5t204.5 -29q76 0 149.5 15t131 45t93.5 75t36 104q-2 69 -38.5 135.5 t-90.5 125.5q-28 30 -61 58.5t-67 55t-67.5 51t-61.5 45.5q-45 31 -86.5 68.5t-76.5 77.5t-63 81t-45 81q-14 35 -21.5 71t-7.5 70q0 70 34 133.5t108.5 111.5t193.5 76.5t289 28.5v-154zM196 1027q-20 14 -46 22.5t-47 8.5q-17 0 -27 -6t-10 -20q0 -21 5.5 -37.5t19 -27 t36.5 -16t58 -5.5q14 8 31 18.5t34.5 21t33.5 20t29 16.5l53 -84l-326 -189l-54 86l68 38q-48 29 -70 68.5t-22 79.5q0 27 9.5 52t27 43.5t43 30t57.5 11.5q29 0 62 -10t71 -33z" />
<glyph unicode="&#x626;" horiz-adv-x="1225" arabic-form="final" d="M587 420q121 -1 226.5 -24.5t183.5 -69.5h239v-153h-91q18 -34 26 -68.5t8 -77.5q0 -65 -22 -119.5t-61 -98.5t-92 -77t-115.5 -55t-132 -33t-140.5 -11q-165 0 -274.5 40.5t-175 111.5t-93 167t-27.5 206q0 61 8 127.5t21 135t30.5 137.5t35.5 137l149 -41 q-18 -63 -34 -128t-29 -128.5t-20.5 -124t-7.5 -115.5q0 -77 18.5 -144.5t66 -118t128 -79.5t204.5 -29q76 0 149.5 15t131.5 45t93.5 75t35.5 105t-38 104.5t-100 74.5t-140.5 45t-160.5 15v154zM304 1069q-20 14 -46 22.5t-47 8.5q-17 0 -27 -6t-10 -20q0 -21 5.5 -37.5 t19 -27t36.5 -16t58 -5.5q14 8 31 18.5t34.5 21t33.5 20t29 16.5l53 -84l-326 -189l-54 86l68 38q-48 29 -70 68.5t-22 79.5q0 27 9.5 52t27 43.5t43 30t57.5 11.5q29 0 62 -10t71 -33z" />
<glyph unicode="&#x626;" horiz-adv-x="558" arabic-form="initial" d="M-25 326h196q53 0 88.5 20t57 55t30.5 82t9 100q0 58 -9 122t-23 128t-31 126t-34.5 116.5t-33 98t-25.5 71.5l144 52q14 -38 37 -106.5t47 -152t45 -176t31 -178.5q3 -26 4.5 -54.5t1.5 -54.5q0 -84 -16.5 -157.5t-56 -127.5t-104.5 -85.5t-162 -31.5h-196v153z M289 1632q-20 14 -46 22.5t-47 8.5q-17 0 -27 -6t-10 -20q0 -21 5.5 -37.5t19 -27t36.5 -16t58 -5.5q14 8 31 18.5t34.5 21t33.5 20t29 16.5l53 -84l-326 -189l-54 86l68 38q-48 29 -70 68.5t-22 79.5q0 27 9.5 52t27 43.5t43 30t57.5 11.5q29 0 62 -10t71 -33z" />
<glyph unicode="&#x626;" horiz-adv-x="526" arabic-form="medial" d="M340 1191v-536q0 -77 13 -137.5t35 -102.5t51.5 -65t63.5 -24h46v-153h-51q-75 2 -133.5 38t-101.5 111q-43 -66 -104.5 -107.5t-131.5 -41.5h-49v153h45q34 1 63.5 23.5t51.5 64.5t35 102.5t13 137.5v537h154zM299 1581q-20 14 -46 22.5t-47 8.5q-17 0 -27 -6t-10 -20 q0 -21 5.5 -37.5t19 -27t36.5 -16t58 -5.5q14 8 31 18.5t34.5 21t33.5 20t29 16.5l53 -84l-326 -189l-54 86l68 38q-48 29 -70 68.5t-22 79.5q0 27 9.5 52t27 43.5t43 30t57.5 11.5q29 0 62 -10t71 -33z" />
<glyph unicode="&#x627;" horiz-adv-x="407" arabic-form="isolated" d="M283 1786v-1258q0 -103 -23.5 -192t-67.5 -161l-129 79q31 55 49 124t18 150v1258h153z" />
<glyph unicode="&#x627;" horiz-adv-x="412" arabic-form="final" d="M229 1786v-1131q0 -77 13 -137.5t35 -102.5t51.5 -65t63.5 -24h46v-153h-50q-66 2 -123 35t-99 94.5t-66 150.5t-24 202v1131h153z" />
<glyph unicode="&#x628;" horiz-adv-x="1350" arabic-form="isolated" d="M1160 1222q8 -28 17 -51.5t16 -37.5q21 -50 40 -104.5t33 -111.5t22 -114t9 -112q0 -59 -12 -118t-36.5 -115t-63 -108t-91.5 -97q-53 -42 -114.5 -74.5t-128.5 -55t-136 -34.5t-137 -12q-64 0 -128 9.5t-122.5 30t-109.5 52.5t-88.5 76.5t-59 102.5t-21.5 130 q0 63 22.5 142t72.5 176l136 -69q-76 -156 -76 -251q0 -69 34 -116.5t88 -76t121 -41t133 -12.5q113 0 221.5 35.5t193.5 105.5q80 66 113.5 146.5t33.5 171.5q0 50 -8.5 99.5t-22 99t-30.5 98.5t-34 97v-1q-3 7 -7 19.5t-9 25t-9 24.5t-7 20zM543 -177q0 20 8 37.5t21 30 t30 20t36 7.5q40 0 67.5 -27.5t27.5 -67.5q0 -20 -7.5 -37t-20 -30t-30 -20.5t-37.5 -7.5q-19 0 -36 7.5t-30 20.5t-21 30t-8 37z" />
<glyph unicode="&#x628;" horiz-adv-x="1501" arabic-form="final" d="M1297 1192v-264t-0.5 -160t-0.5 -82v-28v-3q1 -77 13.5 -138t34.5 -103t51.5 -64.5t64.5 -23.5h46v-153h-51q-80 2 -147 50.5t-109 137.5q-49 -72 -119.5 -125.5t-152.5 -88.5t-171 -52.5t-174 -17.5q-61 0 -124 9t-122 29t-111 51t-90.5 74t-60.5 100t-22 128 q0 37 7 78.5t19.5 84t30.5 84.5t39 80l138 -69q-17 -30 -31.5 -64t-25.5 -68t-17.5 -66.5t-6.5 -59.5q0 -68 35.5 -113.5t91 -73t122.5 -39.5t130 -12q69 0 137 13.5t131 40t118 66.5t98 93l-1 -1q26 35 41.5 72t23 76t9.5 80t2 83l1 439h153zM673 -161q0 20 8 37.5t21 30 t30 20t36 7.5q40 0 67.5 -27.5t27.5 -67.5t-27.5 -67.5t-67.5 -27.5q-19 0 -36 7.5t-30 20t-21 30t-8 37.5z" />
<glyph unicode="&#x628;" horiz-adv-x="558" arabic-form="initial" d="M-25 326h196q53 0 88.5 20t57 55t30.5 82t9 100q0 58 -9 122t-23 128t-31 126t-34.5 116.5t-33 98t-25.5 71.5l144 52q14 -38 37 -106.5t47 -152t45 -176t31 -178.5q3 -26 4.5 -54.5t1.5 -54.5q0 -84 -16.5 -157.5t-56 -127.5t-104.5 -85.5t-162 -31.5h-196v153z M141 -107q0 19 7.5 36.5t20.5 30.5t30.5 20.5t36.5 7.5q20 0 37.5 -7.5t30 -20.5t20 -30.5t7.5 -36.5q0 -40 -27.5 -68t-67.5 -28q-19 0 -36.5 7.5t-30.5 20.5t-20.5 30.5t-7.5 37.5z" />
<glyph unicode="&#x628;" horiz-adv-x="526" arabic-form="medial" d="M340 1191v-536q0 -77 13 -137.5t35 -102.5t51.5 -65t63.5 -24h46v-153h-51q-75 2 -133.5 38t-101.5 111q-43 -66 -104.5 -107.5t-131.5 -41.5h-49v153h45q34 1 63.5 23.5t51.5 64.5t35 102.5t13 137.5v537h154zM161 -107q0 19 7.5 36.5t20.5 30.5t30.5 20.5t36.5 7.5 q20 0 37.5 -7.5t30 -20.5t20 -30.5t7.5 -36.5q0 -40 -27.5 -68t-67.5 -28q-19 0 -36.5 7.5t-30.5 20.5t-20.5 30.5t-7.5 37.5z" />
<glyph unicode="&#x629;" horiz-adv-x="860" arabic-form="isolated" d="M743 1182q32 -48 46.5 -112t14.5 -137q0 -84 -18 -174.5t-49 -178t-73.5 -166.5t-92 -138.5t-103.5 -94.5t-109 -35q-61 0 -117.5 46.5t-101.5 153.5t-74.5 280.5t-37.5 427.5v42l35 24q144 95 256.5 137.5t195.5 42.5q79 0 135 -31.5t93 -86.5zM615 1097 q-15 23 -40.5 36t-63.5 13q-56 0 -136.5 -30.5t-190.5 -99.5q8 -199 25.5 -335.5t41 -220.5t51.5 -121.5t58 -39.5q32 3 66 34t66.5 80.5t61.5 113t50.5 133t34.5 140.5t13 134q0 50 -8.5 92t-28.5 71zM88 1516q0 20 7.5 37.5t20.5 30t30.5 20t36.5 7.5q40 0 67.5 -27.5 t27.5 -67.5q0 -20 -7.5 -37t-20 -30t-30 -20.5t-37.5 -7.5q-19 0 -36.5 7.5t-30.5 20.5t-20.5 30t-7.5 37zM317 1516q0 20 7.5 37.5t20.5 30t30.5 20t36.5 7.5q40 0 67.5 -27.5t27.5 -67.5q0 -20 -7.5 -37t-20 -30t-30 -20.5t-37.5 -7.5q-19 0 -36.5 7.5t-30.5 20.5 t-20.5 30t-7.5 37z" />
<glyph unicode="&#x629;" horiz-adv-x="1168" arabic-form="final" d="M1102 173q-81 0 -140 33.5t-101 88.5q-31 -69 -77.5 -99.5t-103.5 -30.5q-48 0 -101.5 26t-108 71.5t-108.5 106.5t-103.5 131t-91.5 146t-73 151t-48.5 145t-17.5 129q0 49 12 89t37 68t62 43.5t88 15.5q65 0 154 -30t206 -96q-8 27 -14.5 52.5t-11.5 45.5l149 38 q48 -187 78.5 -306t48.5 -188t25.5 -97t8.5 -32q13 -53 31 -113.5t45 -113t64.5 -87t90.5 -34.5h77v-153h-77zM234 1139q-33 0 -44.5 -20.5t-11.5 -53.5q0 -42 14.5 -96t39 -114t58.5 -123.5t72.5 -123t80.5 -112t83 -92t80 -62.5t72 -23q14 0 26.5 10.5t22.5 35t17 63.5 t10 96q-8 27 -15 53t-14 51l1 -2q-1 3 -3 7l-84 326l48 -13zM285 1516q0 20 7.5 37.5t20.5 30t30.5 20t36.5 7.5q40 0 67.5 -27.5t27.5 -67.5q0 -20 -7.5 -37t-20 -30t-30 -20.5t-37.5 -7.5q-19 0 -36.5 7.5t-30.5 20.5t-20.5 30t-7.5 37zM514 1516q0 20 7.5 37.5t20.5 30 t30.5 20t36.5 7.5q40 0 67.5 -27.5t27.5 -67.5q0 -20 -7.5 -37t-20 -30t-30 -20.5t-37.5 -7.5q-19 0 -36.5 7.5t-30.5 20.5t-20.5 30t-7.5 37z" />
<glyph unicode="&#x62a;" horiz-adv-x="1350" arabic-form="isolated" d="M1160 1222q8 -28 17 -51.5t16 -37.5q21 -50 40 -104.5t33 -111.5t22 -114t9 -112q0 -59 -12 -118t-36.5 -115t-63 -108t-91.5 -97q-53 -42 -114.5 -74.5t-128.5 -55t-136 -34.5t-137 -12q-64 0 -128 9.5t-122.5 30t-109.5 52.5t-88.5 76.5t-59 102.5t-21.5 130 q0 63 22.5 142t72.5 176l136 -69q-76 -156 -76 -251q0 -69 34 -116.5t88 -76t121 -41t133 -12.5q113 0 221.5 35.5t193.5 105.5q80 66 113.5 146.5t33.5 171.5q0 50 -8.5 99.5t-22 99t-30.5 98.5t-34 97v-1q-3 7 -7 19.5t-9 25t-9 24.5t-7 20zM365 1256q0 20 7.5 37.5 t20.5 30t30.5 20t36.5 7.5q40 0 67.5 -27.5t27.5 -67.5q0 -20 -7.5 -37t-20 -30t-30 -20.5t-37.5 -7.5q-19 0 -36.5 7.5t-30.5 20.5t-20.5 30t-7.5 37zM594 1256q0 20 7.5 37.5t20.5 30t30.5 20t36.5 7.5q40 0 67.5 -27.5t27.5 -67.5q0 -20 -7.5 -37t-20 -30t-30 -20.5 t-37.5 -7.5q-19 0 -36.5 7.5t-30.5 20.5t-20.5 30t-7.5 37z" />
<glyph unicode="&#x62a;" horiz-adv-x="1501" arabic-form="final" d="M1297 1192v-264t-0.5 -160t-0.5 -82v-28v-3q1 -77 13.5 -138t34.5 -103t51.5 -64.5t64.5 -23.5h46v-153h-51q-80 2 -147 50.5t-109 137.5q-49 -72 -119.5 -125.5t-152.5 -88.5t-171 -52.5t-174 -17.5q-61 0 -124 9t-122 29t-111 51t-90.5 74t-60.5 100t-22 128 q0 37 7 78.5t19.5 84t30.5 84.5t39 80l138 -69q-17 -30 -31.5 -64t-25.5 -68t-17.5 -66.5t-6.5 -59.5q0 -68 35.5 -113.5t91 -73t122.5 -39.5t130 -12q69 0 137 13.5t131 40t118 66.5t98 93l-1 -1q26 35 41.5 72t23 76t9.5 80t2 83l1 439h153zM453 1359q0 20 7.5 37.5 t20.5 30t30.5 20t36.5 7.5q40 0 67.5 -27.5t27.5 -67.5q0 -20 -7.5 -37t-20 -30t-30 -20.5t-37.5 -7.5q-19 0 -36.5 7.5t-30.5 20.5t-20.5 30t-7.5 37zM682 1359q0 20 7.5 37.5t20.5 30t30.5 20t36.5 7.5q40 0 67.5 -27.5t27.5 -67.5q0 -20 -7.5 -37t-20 -30t-30 -20.5 t-37.5 -7.5q-19 0 -36.5 7.5t-30.5 20.5t-20.5 30t-7.5 37z" />
<glyph unicode="&#x62a;" horiz-adv-x="558" arabic-form="initial" d="M-25 326h196q53 0 88.5 20t57 55t30.5 82t9 100q0 58 -9 122t-23 128t-31 126t-34.5 116.5t-33 98t-25.5 71.5l144 52q14 -38 37 -106.5t47 -152t45 -176t31 -178.5q3 -26 4.5 -54.5t1.5 -54.5q0 -84 -16.5 -157.5t-56 -127.5t-104.5 -85.5t-162 -31.5h-196v153zM31 1543 q0 20 7.5 37.5t20.5 30t30.5 20t36.5 7.5q40 0 67.5 -27.5t27.5 -67.5q0 -20 -7.5 -37t-20 -30t-30 -20.5t-37.5 -7.5q-19 0 -36.5 7.5t-30.5 20.5t-20.5 30t-7.5 37zM260 1543q0 20 7.5 37.5t20.5 30t30.5 20t36.5 7.5q40 0 67.5 -27.5t27.5 -67.5q0 -20 -7.5 -37t-20 -30 t-30 -20.5t-37.5 -7.5q-19 0 -36.5 7.5t-30.5 20.5t-20.5 30t-7.5 37z" />
<glyph unicode="&#x62a;" horiz-adv-x="526" arabic-form="medial" d="M340 1191v-536q0 -77 13 -137.5t35 -102.5t51.5 -65t63.5 -24h46v-153h-51q-75 2 -133.5 38t-101.5 111q-43 -66 -104.5 -107.5t-131.5 -41.5h-49v153h45q34 1 63.5 23.5t51.5 64.5t35 102.5t13 137.5v537h154zM52 1516q0 20 7.5 37.5t20.5 30t30.5 20t36.5 7.5 q40 0 67.5 -27.5t27.5 -67.5q0 -20 -7.5 -37t-20 -30t-30 -20.5t-37.5 -7.5q-19 0 -36.5 7.5t-30.5 20.5t-20.5 30t-7.5 37zM281 1516q0 20 7.5 37.5t20.5 30t30.5 20t36.5 7.5q40 0 67.5 -27.5t27.5 -67.5q0 -20 -7.5 -37t-20 -30t-30 -20.5t-37.5 -7.5q-19 0 -36.5 7.5 t-30.5 20.5t-20.5 30t-7.5 37z" />
<glyph unicode="&#x62b;" horiz-adv-x="1350" arabic-form="isolated" d="M1160 1222q8 -28 17 -51.5t16 -37.5q21 -50 40 -104.5t33 -111.5t22 -114t9 -112q0 -59 -12 -118t-36.5 -115t-63 -108t-91.5 -97q-53 -42 -114.5 -74.5t-128.5 -55t-136 -34.5t-137 -12q-64 0 -128 9.5t-122.5 30t-109.5 52.5t-88.5 76.5t-59 102.5t-21.5 130 q0 63 22.5 142t72.5 176l136 -69q-76 -156 -76 -251q0 -69 34 -116.5t88 -76t121 -41t133 -12.5q113 0 221.5 35.5t193.5 105.5q80 66 113.5 146.5t33.5 171.5q0 50 -8.5 99.5t-22 99t-30.5 98.5t-34 97v-1q-3 7 -7 19.5t-9 25t-9 24.5t-7 20zM516 1624q0 20 7.5 37.5 t20.5 30t30.5 20t36.5 7.5q40 0 67.5 -27.5t27.5 -67.5t-27.5 -67.5t-67.5 -27.5q-19 0 -36.5 7.5t-30.5 20t-20.5 30t-7.5 37.5zM662 1387q0 19 7.5 36.5t20.5 30.5t30.5 20.5t36.5 7.5q20 0 37.5 -7.5t30 -20.5t20 -30.5t7.5 -36.5q0 -40 -27.5 -67.5t-67.5 -27.5 q-19 0 -36.5 7.5t-30.5 20t-20.5 30t-7.5 37.5zM381 1387q0 19 7.5 36.5t20.5 30.5t30.5 20.5t36.5 7.5t36.5 -7.5t30.5 -20.5t20.5 -30.5t7.5 -36.5q0 -20 -7.5 -37.5t-20.5 -30t-30.5 -20t-36.5 -7.5t-36.5 7.5t-30.5 20t-20.5 30t-7.5 37.5z" />
<glyph unicode="&#x62b;" horiz-adv-x="1501" arabic-form="final" d="M1297 1192v-264t-0.5 -160t-0.5 -82v-28v-3q1 -77 13.5 -138t34.5 -103t51.5 -64.5t64.5 -23.5h46v-153h-51q-80 2 -147 50.5t-109 137.5q-49 -72 -119.5 -125.5t-152.5 -88.5t-171 -52.5t-174 -17.5q-61 0 -124 9t-122 29t-111 51t-90.5 74t-60.5 100t-22 128 q0 37 7 78.5t19.5 84t30.5 84.5t39 80l138 -69q-17 -30 -31.5 -64t-25.5 -68t-17.5 -66.5t-6.5 -59.5q0 -68 35.5 -113.5t91 -73t122.5 -39.5t130 -12q69 0 137 13.5t131 40t118 66.5t98 93l-1 -1q26 35 41.5 72t23 76t9.5 80t2 83l1 439h153zM594 1571q0 20 7.5 37.5 t20.5 30t30.5 20t36.5 7.5q40 0 67.5 -27.5t27.5 -67.5t-27.5 -67.5t-67.5 -27.5q-19 0 -36.5 7.5t-30.5 20t-20.5 30t-7.5 37.5zM740 1334q0 19 7.5 36.5t20.5 30.5t30.5 20.5t36.5 7.5q20 0 37.5 -7.5t30 -20.5t20 -30.5t7.5 -36.5q0 -40 -27.5 -67.5t-67.5 -27.5 q-19 0 -36.5 7.5t-30.5 20t-20.5 30t-7.5 37.5zM459 1334q0 19 7.5 36.5t20.5 30.5t30.5 20.5t36.5 7.5t36.5 -7.5t30.5 -20.5t20.5 -30.5t7.5 -36.5q0 -20 -7.5 -37.5t-20.5 -30t-30.5 -20t-36.5 -7.5t-36.5 7.5t-30.5 20t-20.5 30t-7.5 37.5z" />
<glyph unicode="&#x62b;" horiz-adv-x="558" arabic-form="initial" d="M-25 326h196q53 0 88.5 20t57 55t30.5 82t9 100q0 58 -9 122t-23 128t-31 126t-34.5 116.5t-33 98t-25.5 71.5l144 52q14 -38 37 -106.5t47 -152t45 -176t31 -178.5q3 -26 4.5 -54.5t1.5 -54.5q0 -84 -16.5 -157.5t-56 -127.5t-104.5 -85.5t-162 -31.5h-196v153z M176 1768q0 20 7.5 37.5t20.5 30t30.5 20t36.5 7.5q40 0 67.5 -27.5t27.5 -67.5t-27.5 -67.5t-67.5 -27.5q-19 0 -36.5 7.5t-30.5 20t-20.5 30t-7.5 37.5zM322 1531q0 19 7.5 36.5t20.5 30.5t30.5 20.5t36.5 7.5q20 0 37.5 -7.5t30 -20.5t20 -30.5t7.5 -36.5 q0 -40 -27.5 -67.5t-67.5 -27.5q-19 0 -36.5 7.5t-30.5 20t-20.5 30t-7.5 37.5zM41 1531q0 19 7.5 36.5t20.5 30.5t30.5 20.5t36.5 7.5t36.5 -7.5t30.5 -20.5t20.5 -30.5t7.5 -36.5q0 -20 -7.5 -37.5t-20.5 -30t-30.5 -20t-36.5 -7.5t-36.5 7.5t-30.5 20t-20.5 30t-7.5 37.5 z" />
<glyph unicode="&#x62b;" horiz-adv-x="526" arabic-form="medial" d="M340 1191v-536q0 -77 13 -137.5t35 -102.5t51.5 -65t63.5 -24h46v-153h-51q-75 2 -133.5 38t-101.5 111q-43 -66 -104.5 -107.5t-131.5 -41.5h-49v153h45q34 1 63.5 23.5t51.5 64.5t35 102.5t13 137.5v537h154zM167 1707q0 20 7.5 37.5t20.5 30t30.5 20t36.5 7.5 q40 0 67.5 -27.5t27.5 -67.5t-27.5 -67.5t-67.5 -27.5q-19 0 -36.5 7.5t-30.5 20t-20.5 30t-7.5 37.5zM313 1470q0 19 7.5 36.5t20.5 30.5t30.5 20.5t36.5 7.5q20 0 37.5 -7.5t30 -20.5t20 -30.5t7.5 -36.5q0 -40 -27.5 -67.5t-67.5 -27.5q-19 0 -36.5 7.5t-30.5 20 t-20.5 30t-7.5 37.5zM32 1470q0 19 7.5 36.5t20.5 30.5t30.5 20.5t36.5 7.5t36.5 -7.5t30.5 -20.5t20.5 -30.5t7.5 -36.5q0 -20 -7.5 -37.5t-20.5 -30t-30.5 -20t-36.5 -7.5t-36.5 7.5t-30.5 20t-20.5 30t-7.5 37.5z" />
<glyph unicode="&#x62c;" horiz-adv-x="1027" arabic-form="isolated" d="M38 1132q86 89 157 128.5t131 39.5q49 0 91.5 -20.5t81.5 -57.5q41 -40 76 -100t65.5 -130.5t57.5 -148t53 -153.5q2 -5 2.5 -6.5l0.5 -1.5l0.5 -1.5t2.5 -6.5q31 9 68.5 18.5t63.5 15.5l37 -148q-141 -34 -256.5 -86t-203.5 -113.5t-148 -130t-91 -135.5 q-31 -68 -31 -123q0 -39 16.5 -71.5t50 -56t84.5 -36.5t120 -13q85 0 201.5 24t268.5 78l52 -144q-166 -58 -295 -84.5t-228 -26.5q-109 0 -189 26t-132 70.5t-77 104t-25 127.5q0 89 45 188q29 63 77 127t114 124t149.5 113.5t183.5 97.5q-7 18 -13 38.5t-8 26.5l1 -1 q-29 82 -58.5 163.5t-62 146.5t-68.5 106t-77 41q-30 0 -74 -26.5t-104 -89.5zM432 74q0 20 8 37.5t21 30t30 20t36 7.5q40 0 67.5 -27.5t27.5 -67.5t-27.5 -67.5t-67.5 -27.5q-19 0 -36 7.5t-30 20t-21 30t-8 37.5z" />
<glyph unicode="&#x62c;" horiz-adv-x="1053" arabic-form="final" d="M923 560q-36 -9 -71 -18t-68 -20q13 -42 28 -78t33.5 -62.5t41 -41t49.5 -14.5h130v-153h-130q-62 0 -108.5 22t-81 61t-60 92.5t-45.5 116.5q-162 -75 -266.5 -172.5t-149.5 -197.5q-31 -68 -31 -123q0 -39 16.5 -71.5t50 -56t84.5 -36.5t120 -13q85 0 201.5 24 t268.5 78l52 -144q-166 -58 -295.5 -84.5t-227.5 -26.5q-109 0 -189 26t-132 70.5t-77.5 104t-25.5 127.5q0 87 46 188q28 61 76.5 124.5t115 123t148.5 113.5t177 98q-2 11 -5.5 25t-6.5 27.5t-5 24t-3 14.5l1 -1q-17 79 -35 156.5t-43 138.5t-61 99t-89 38 q-39 0 -94.5 -22t-132.5 -73l-83 129q102 66 179.5 95t137.5 29q79 0 135.5 -38t99.5 -104q26 -40 45.5 -88.5t35.5 -102t28.5 -111t24.5 -115.5q3 -12 4.5 -19.5t3 -14t3 -14t4.5 -19.5q29 9 63 18t77 18zM439 63q0 20 7.5 37.5t20.5 30t30.5 20t36.5 7.5q40 0 67.5 -27.5 t27.5 -67.5q0 -20 -7.5 -37t-20 -30t-30 -20.5t-37.5 -7.5q-19 0 -36.5 7.5t-30.5 20.5t-20.5 30t-7.5 37z" />
<glyph unicode="&#x62c;" horiz-adv-x="1267" arabic-form="initial" d="M-10 326h332q59 0 109.5 16t96 42.5t87.5 60.5t85 71q21 18 35 31t37 31q-11 23 -21 48t-21 54v-1q-20 51 -42 108.5t-47 113t-52 106.5t-56.5 90t-61.5 62t-66 23q-38 0 -90.5 -35.5t-122.5 -119.5l-118 99q95 114 177.5 164t151.5 50q49 0 93 -19.5t85 -52.5 q46 -38 85 -95t73 -123.5t63 -137t55 -135.5q7 -18 12 -32t9.5 -26t9.5 -23.5t12 -26.5q55 32 123 57t156 38l21 -153q-69 -10 -125 -32t-104 -50.5t-89.5 -62t-81.5 -67.5q-50 -43 -101 -83.5t-108 -72t-123 -51t-146 -19.5h-332v153zM395 -107q0 19 8 36.5t21 30.5 t30 20.5t36 7.5q20 0 37.5 -7.5t30 -20.5t20 -30.5t7.5 -36.5q0 -40 -27.5 -68t-67.5 -28q-19 0 -36 7.5t-30 20.5t-21 30.5t-8 37.5z" />
<glyph unicode="&#x62c;" horiz-adv-x="1092" arabic-form="medial" d="M-14 326h779q-45 73 -79.5 165.5t-68.5 192.5q-18 51 -37.5 105t-41 105t-44 96t-46 78.5t-48 53t-49.5 19.5q-30 0 -73.5 -26.5t-103.5 -89.5l-111 107q86 89 157 128.5t131 39.5q49 0 91.5 -20.5t81.5 -57.5q39 -38 71.5 -92t61 -118.5t54 -135t50.5 -141.5 q25 -72 49 -140t48.5 -124t50 -94.5t54.5 -50.5h141v-153h-1118v153zM348 -107q0 19 7.5 36.5t20.5 30.5t30.5 20.5t36.5 7.5q20 0 37.5 -7.5t30 -20.5t20 -30.5t7.5 -36.5q0 -40 -27.5 -68t-67.5 -28q-19 0 -36.5 7.5t-30.5 20.5t-20.5 30.5t-7.5 37.5z" />
<glyph unicode="&#x62d;" horiz-adv-x="1027" arabic-form="isolated" d="M38 1132q86 89 157 128.5t131 39.5q49 0 91.5 -20.5t81.5 -57.5q41 -40 76 -100t65.5 -130.5t57.5 -148t53 -153.5q2 -5 2.5 -6.5l0.5 -1.5l0.5 -1.5t2.5 -6.5q31 9 68.5 18.5t63.5 15.5l37 -148q-141 -34 -256.5 -86t-203.5 -113.5t-148 -130t-91 -135.5 q-31 -68 -31 -123q0 -39 16.5 -71.5t50 -56t84.5 -36.5t120 -13q85 0 201.5 24t268.5 78l52 -144q-166 -58 -295 -84.5t-228 -26.5q-109 0 -189 26t-132 70.5t-77 104t-25 127.5q0 89 45 188q29 63 77 127t114 124t149.5 113.5t183.5 97.5q-7 18 -13 38.5t-8 26.5l1 -1 q-29 82 -58.5 163.5t-62 146.5t-68.5 106t-77 41q-30 0 -74 -26.5t-104 -89.5z" />
<glyph unicode="&#x62d;" horiz-adv-x="1053" arabic-form="final" d="M923 560q-36 -9 -71 -18t-68 -20q13 -42 28 -78t33.5 -62.5t41 -41t49.5 -14.5h130v-153h-130q-62 0 -108.5 22t-81 61t-60 92.5t-45.5 116.5q-162 -75 -266.5 -172.5t-149.5 -197.5q-31 -68 -31 -123q0 -39 16.5 -71.5t50 -56t84.5 -36.5t120 -13q85 0 201.5 24 t268.5 78l52 -144q-166 -58 -295.5 -84.5t-227.5 -26.5q-109 0 -189 26t-132 70.5t-77.5 104t-25.5 127.5q0 87 46 188q28 61 76.5 124.5t115 123t148.5 113.5t177 98q-2 11 -5.5 25t-6.5 27.5t-5 24t-3 14.5l1 -1q-17 79 -35 156.5t-43 138.5t-61 99t-89 38 q-39 0 -94.5 -22t-132.5 -73l-83 129q102 66 179.5 95t137.5 29q79 0 135.5 -38t99.5 -104q26 -40 45.5 -88.5t35.5 -102t28.5 -111t24.5 -115.5q3 -12 4.5 -19.5t3 -14t3 -14t4.5 -19.5q29 9 63 18t77 18z" />
<glyph unicode="&#x62d;" horiz-adv-x="1267" arabic-form="initial" d="M-10 326h332q59 0 109.5 16t96 42.5t87.5 60.5t85 71q21 18 35 31t37 31q-11 23 -21 48t-21 54v-1q-20 51 -42 108.5t-47 113t-52 106.5t-56.5 90t-61.5 62t-66 23q-38 0 -90.5 -35.5t-122.5 -119.5l-118 99q95 114 177.5 164t151.5 50q49 0 93 -19.5t85 -52.5 q46 -38 85 -95t73 -123.5t63 -137t55 -135.5q7 -18 12 -32t9.5 -26t9.5 -23.5t12 -26.5q55 32 123 57t156 38l21 -153q-69 -10 -125 -32t-104 -50.5t-89.5 -62t-81.5 -67.5q-50 -43 -101 -83.5t-108 -72t-123 -51t-146 -19.5h-332v153z" />
<glyph unicode="&#x62d;" horiz-adv-x="1092" arabic-form="medial" d="M-14 326h779q-45 73 -79.5 165.5t-68.5 192.5q-18 51 -37.5 105t-41 105t-44 96t-46 78.5t-48 53t-49.5 19.5q-30 0 -73.5 -26.5t-103.5 -89.5l-111 107q86 89 157 128.5t131 39.5q49 0 91.5 -20.5t81.5 -57.5q39 -38 71.5 -92t61 -118.5t54 -135t50.5 -141.5 q25 -72 49 -140t48.5 -124t50 -94.5t54.5 -50.5h141v-153h-1118v153z" />
<glyph unicode="&#x62e;" horiz-adv-x="1027" arabic-form="isolated" d="M38 1132q86 89 157 128.5t131 39.5q49 0 91.5 -20.5t81.5 -57.5q41 -40 76 -100t65.5 -130.5t57.5 -148t53 -153.5q2 -5 2.5 -6.5l0.5 -1.5l0.5 -1.5t2.5 -6.5q31 9 68.5 18.5t63.5 15.5l37 -148q-141 -34 -256.5 -86t-203.5 -113.5t-148 -130t-91 -135.5 q-31 -68 -31 -123q0 -39 16.5 -71.5t50 -56t84.5 -36.5t120 -13q85 0 201.5 24t268.5 78l52 -144q-166 -58 -295 -84.5t-228 -26.5q-109 0 -189 26t-132 70.5t-77 104t-25 127.5q0 89 45 188q29 63 77 127t114 124t149.5 113.5t183.5 97.5q-7 18 -13 38.5t-8 26.5l1 -1 q-29 82 -58.5 163.5t-62 146.5t-68.5 106t-77 41q-30 0 -74 -26.5t-104 -89.5zM342 1500q0 20 7.5 37.5t20.5 30t30.5 20t36.5 7.5q40 0 67.5 -27.5t27.5 -67.5t-27.5 -67.5t-67.5 -27.5q-19 0 -36.5 7.5t-30.5 20t-20.5 30t-7.5 37.5z" />
<glyph unicode="&#x62e;" horiz-adv-x="1053" arabic-form="final" d="M923 560q-36 -9 -71 -18t-68 -20q13 -42 28 -78t33.5 -62.5t41 -41t49.5 -14.5h130v-153h-130q-62 0 -108.5 22t-81 61t-60 92.5t-45.5 116.5q-162 -75 -266.5 -172.5t-149.5 -197.5q-31 -68 -31 -123q0 -39 16.5 -71.5t50 -56t84.5 -36.5t120 -13q85 0 201.5 24 t268.5 78l52 -144q-166 -58 -295.5 -84.5t-227.5 -26.5q-109 0 -189 26t-132 70.5t-77.5 104t-25.5 127.5q0 87 46 188q28 61 76.5 124.5t115 123t148.5 113.5t177 98q-2 11 -5.5 25t-6.5 27.5t-5 24t-3 14.5l1 -1q-17 79 -35 156.5t-43 138.5t-61 99t-89 38 q-39 0 -94.5 -22t-132.5 -73l-83 129q102 66 179.5 95t137.5 29q79 0 135.5 -38t99.5 -104q26 -40 45.5 -88.5t35.5 -102t28.5 -111t24.5 -115.5q3 -12 4.5 -19.5t3 -14t3 -14t4.5 -19.5q29 9 63 18t77 18zM344 1500q0 20 7.5 37.5t20.5 30t30.5 20t36.5 7.5 q40 0 67.5 -27.5t27.5 -67.5t-27.5 -67.5t-67.5 -27.5q-19 0 -36.5 7.5t-30.5 20t-20.5 30t-7.5 37.5z" />
<glyph unicode="&#x62e;" horiz-adv-x="1267" arabic-form="initial" d="M-10 326h332q59 0 109.5 16t96 42.5t87.5 60.5t85 71q21 18 35 31t37 31q-11 23 -21 48t-21 54v-1q-20 51 -42 108.5t-47 113t-52 106.5t-56.5 90t-61.5 62t-66 23q-38 0 -90.5 -35.5t-122.5 -119.5l-118 99q95 114 177.5 164t151.5 50q49 0 93 -19.5t85 -52.5 q46 -38 85 -95t73 -123.5t63 -137t55 -135.5q7 -18 12 -32t9.5 -26t9.5 -23.5t12 -26.5q55 32 123 57t156 38l21 -153q-69 -10 -125 -32t-104 -50.5t-89.5 -62t-81.5 -67.5q-50 -43 -101 -83.5t-108 -72t-123 -51t-146 -19.5h-332v153zM230 1535q0 20 7.5 37.5t20.5 30 t30.5 20t36.5 7.5q40 0 67.5 -27.5t27.5 -67.5t-27.5 -67.5t-67.5 -27.5q-19 0 -36.5 7.5t-30.5 20t-20.5 30t-7.5 37.5z" />
<glyph unicode="&#x62e;" horiz-adv-x="1092" arabic-form="medial" d="M-14 326h779q-45 73 -79.5 165.5t-68.5 192.5q-18 51 -37.5 105t-41 105t-44 96t-46 78.5t-48 53t-49.5 19.5q-30 0 -73.5 -26.5t-103.5 -89.5l-111 107q86 89 157 128.5t131 39.5q49 0 91.5 -20.5t81.5 -57.5q39 -38 71.5 -92t61 -118.5t54 -135t50.5 -141.5 q25 -72 49 -140t48.5 -124t50 -94.5t54.5 -50.5h141v-153h-1118v153zM298 1500q0 20 7.5 37.5t20.5 30t30.5 20t36.5 7.5q40 0 67.5 -27.5t27.5 -67.5t-27.5 -67.5t-67.5 -27.5q-19 0 -36.5 7.5t-30.5 20t-20.5 30t-7.5 37.5z" />
<glyph unicode="&#x62f;" horiz-adv-x="813" arabic-form="isolated" d="M207 1283q77 0 149 -37t134.5 -102.5t114 -154.5t88.5 -192.5t57.5 -217.5t21.5 -228v-38t-1 -61q-113 -41 -205 -67.5t-176 -37.5q-35 -5 -71.5 -8.5t-73.5 -3.5q-46 0 -100 5t-122 18l28 150q54 -9 98.5 -14t82.5 -5q33 0 67.5 2.5t69.5 7.5q65 9 126 24.5t124 37.5 q-2 92 -17 183.5t-41.5 175.5t-62 157.5t-77 128t-87.5 87.5t-93 37h-34v153z" />
<glyph unicode="&#x62f;" horiz-adv-x="987" arabic-form="final" d="M1001 173h-43q-81 0 -143.5 43t-107.5 119q-51 -97 -142 -150.5t-213 -53.5q-70 0 -153 22.5t-178 73.5l72 137q78 -42 143 -60.5t117 -18.5q55 0 100.5 18t78.5 51t51.5 80.5t18.5 106.5q0 29 -4 58t-10 60v-2q-20 66 -41 137.5t-43 143.5t-43 143t-41 138l149 42 l205 -691q16 -53 34.5 -97.5t41 -77t49.5 -51t59 -18.5h43v-153z" />
<glyph unicode="&#x630;" horiz-adv-x="813" arabic-form="isolated" d="M207 1283q77 0 149 -37t134.5 -102.5t114 -154.5t88.5 -192.5t57.5 -217.5t21.5 -228v-38t-1 -61q-113 -41 -205 -67.5t-176 -37.5q-35 -5 -71.5 -8.5t-73.5 -3.5q-46 0 -100 5t-122 18l28 150q54 -9 98.5 -14t82.5 -5q33 0 67.5 2.5t69.5 7.5q65 9 126 24.5t124 37.5 q-2 92 -17 183.5t-41.5 175.5t-62 157.5t-77 128t-87.5 87.5t-93 37h-34v153zM322 1500q0 20 7.5 37.5t20.5 30t30.5 20t36.5 7.5q40 0 67.5 -27.5t27.5 -67.5t-27.5 -67.5t-67.5 -27.5q-19 0 -36.5 7.5t-30.5 20t-20.5 30t-7.5 37.5z" />
<glyph unicode="&#x630;" horiz-adv-x="987" arabic-form="final" d="M1001 173h-43q-81 0 -143.5 43t-107.5 119q-51 -97 -142 -150.5t-213 -53.5q-70 0 -153 22.5t-178 73.5l72 137q78 -42 143 -60.5t117 -18.5q55 0 100.5 18t78.5 51t51.5 80.5t18.5 106.5q0 29 -4 58t-10 60v-2q-20 66 -41 137.5t-43 143.5t-43 143t-41 138l149 42 l205 -691q16 -53 34.5 -97.5t41 -77t49.5 -51t59 -18.5h43v-153zM327 1500q0 20 7.5 37.5t20.5 30t30.5 20t36.5 7.5q40 0 67.5 -27.5t27.5 -67.5t-27.5 -67.5t-67.5 -27.5q-19 0 -36.5 7.5t-30.5 20t-20.5 30t-7.5 37.5z" />
<glyph unicode="&#x631;" horiz-adv-x="605" arabic-form="isolated" d="M333 1133q103 -232 152 -421t49 -339q0 -106 -22 -195t-64 -163q-43 -75 -108 -129.5t-146 -91.5q-75 -35 -172 -52t-210 -17v155q203 0 321 53q119 53 181 160q32 55 49 125t17 155q0 136 -45.5 308.5t-141.5 387.5z" />
<glyph unicode="&#x631;" horiz-adv-x="825" arabic-form="final" d="M452 1133q70 -158 115 -295t68 -258q12 -121 56.5 -187.5t104.5 -66.5h45v-153h-47q-44 2 -81 13.5t-72 39.5q-10 -60 -29 -112t-46 -99q-43 -74 -107.5 -129t-145.5 -92q-75 -34 -172 -51.5t-210 -17.5v155q100 0 180.5 13t140.5 40q119 53 181 160q32 57 48.5 125.5 t16.5 154.5q0 136 -44.5 308.5t-141.5 387.5z" />
<glyph unicode="&#x632;" horiz-adv-x="605" arabic-form="isolated" d="M333 1133q103 -232 152 -421t49 -339q0 -106 -22 -195t-64 -163q-43 -75 -108 -129.5t-146 -91.5q-75 -35 -172 -52t-210 -17v155q203 0 321 53q119 53 181 160q32 55 49 125t17 155q0 136 -45.5 308.5t-141.5 387.5zM72 1354q0 20 7.5 37.5t20.5 30t30.5 20t36.5 7.5 q40 0 67.5 -27.5t27.5 -67.5q0 -20 -7.5 -37t-20 -30t-30 -20.5t-37.5 -7.5q-19 0 -36.5 7.5t-30.5 20.5t-20.5 30t-7.5 37z" />
<glyph unicode="&#x632;" horiz-adv-x="825" arabic-form="final" d="M452 1133q70 -158 115 -295t68 -258q12 -121 56.5 -187.5t104.5 -66.5h45v-153h-47q-44 2 -81 13.5t-72 39.5q-10 -60 -29 -112t-46 -99q-43 -74 -107.5 -129t-145.5 -92q-75 -34 -172 -51.5t-210 -17.5v155q100 0 180.5 13t140.5 40q119 53 181 160q32 57 48.5 125.5 t16.5 154.5q0 136 -44.5 308.5t-141.5 387.5zM177 1354q0 20 7.5 37.5t20.5 30t30.5 20t36.5 7.5q40 0 67.5 -27.5t27.5 -67.5q0 -20 -7.5 -37t-20 -30t-30 -20.5t-37.5 -7.5q-19 0 -36.5 7.5t-30.5 20.5t-20.5 30t-7.5 37z" />
<glyph unicode="&#x633;" horiz-adv-x="2209" arabic-form="isolated" d="M913 88q40 66 63 150t25 187q0 185 1 382.5t1 383.5h154v-536q0 -76 12 -136.5t34 -102.5t51.5 -65t64.5 -25q32 4 61 28t51 66t35 101t13 133v537h154v-536q0 -73 12.5 -131.5t35 -101t53.5 -67t69 -29.5q52 0 87.5 20.5t56.5 55t30 81.5t9 100q0 58 -9 122t-23 128 t-31.5 126t-35 116.5t-33 98t-25.5 71.5l144 52q11 -31 28 -78t35.5 -105.5t37 -125.5t33.5 -137t24 -140t9 -134q0 -83 -16 -155.5t-54 -127t-101 -87t-156 -34.5q-88 2 -151.5 41t-105.5 108q-39 -66 -94 -103.5t-121 -45.5l-44 1q-92 9 -160 77q-25 -119 -77 -215 t-123.5 -164t-158.5 -105t-183 -37q-100 0 -195.5 45t-170.5 138t-121 236.5t-46 341.5q0 14 0.5 33t1.5 39t2 39.5t2 34.5l154 -10q-1 -15 -2 -33t-2 -37t-1.5 -36.5t-0.5 -30.5q0 -158 32.5 -272.5t85.5 -188.5t122 -109.5t141 -35.5q46 0 91.5 14t86 40.5t76 64.5 t62.5 85z" />
<glyph unicode="&#x633;" horiz-adv-x="2330" arabic-form="final" d="M2056 1219l47 -685q3 -49 23.5 -87.5t47 -65.5t53.5 -41t44 -14h47v-153h-51q-75 2 -134 38t-101 111q-38 -67 -92.5 -102.5t-125.5 -46.5l-42 3q-73 10 -126.5 47.5t-90.5 98.5q-39 -66 -94 -103.5t-121 -45.5l-51 1q-93 9 -161 77q-24 -119 -76 -215t-123.5 -164 t-159 -105t-182.5 -37q-100 0 -195.5 45t-170.5 138t-121 236.5t-46 341.5q0 14 0.5 33t1.5 39t2 39.5t2 34.5l154 -10q-1 -15 -2 -33t-2 -37t-1.5 -36.5t-0.5 -30.5q0 -158 32.5 -272.5t85.5 -188.5t122 -109.5t141 -35.5q78 0 148.5 41t125.5 113t89.5 171t40.5 216v116 t0.5 131t0.5 138q0 71 0.5 138.5t0.5 129.5v113h154v-536q0 -152 46 -238.5t123 -90.5q32 4 61 28t51 66t35 101t13 133v537h153v-536q0 -74 11.5 -133.5t33.5 -101.5t52.5 -66.5t68.5 -27.5q77 5 113.5 73t36.5 192q0 70 -6 157.5t-16 191.5q-2 25 -4.5 55t-5.5 62t-5.5 64 t-4.5 61z" />
<glyph unicode="&#x633;" horiz-adv-x="1391" arabic-form="initial" d="M354 1191v-536q0 -76 12 -136.5t34 -102.5t51.5 -65t64.5 -25q32 4 61 28t51 66t35 101t13 133v537h154v-536q0 -73 12.5 -131.5t35 -101t53.5 -67t69 -29.5q52 0 87.5 20.5t56.5 55t30 81.5t9 100q0 58 -9 122t-23 128t-31 126t-34.5 116.5t-33 98t-25.5 71.5l144 52 q11 -31 27.5 -78t35 -105.5t37 -125.5t33.5 -137t24 -140t9 -134q0 -83 -16 -155.5t-54 -127t-101 -87t-156 -34.5q-88 2 -151.5 41t-105.5 108q-39 -66 -94 -103.5t-121 -45.5l-44 1q-66 8 -121.5 45t-95.5 103q-42 -75 -102 -111t-134 -38h-49v153h45q34 1 63.5 23.5 t51.5 64.5t35 102.5t13 137.5v537h154z" />
<glyph unicode="&#x633;" horiz-adv-x="1517" arabic-form="medial" d="M1258 1219l47 -685q3 -49 24 -87.5t47.5 -65.5t53.5 -41t43 -14h47v-153h-51q-75 2 -133.5 38t-101.5 111q-38 -67 -92.5 -102.5t-125.5 -46.5l-41 3q-74 10 -127.5 47.5t-90.5 98.5q-39 -66 -94 -103.5t-121 -45.5l-44 1q-66 8 -121.5 45t-95.5 103q-43 -75 -102.5 -111 t-133.5 -38h-49v153h45q34 1 63.5 23.5t51.5 64.5t35 102.5t13 137.5v537h154v-536q0 -76 12 -136.5t34 -102.5t51.5 -65t64.5 -25q32 4 61 28t51 66t35 101t13 133v537h154v-536q0 -74 11.5 -133.5t33 -101.5t52.5 -66.5t69 -27.5q77 5 113.5 73t36.5 192q0 70 -6.5 157.5 t-15.5 191.5q-2 25 -5 55t-5.5 62t-5.5 64t-5 61z" />
<glyph unicode="&#x634;" horiz-adv-x="2209" arabic-form="isolated" d="M913 88q40 66 63 150t25 187q0 186 1 383t1 383h154v-536q0 -76 12 -136.5t34 -102.5t51.5 -65t64.5 -25q32 4 61 28t51 66t35 101t13 133v537h154v-536q0 -73 12.5 -131.5t35 -101t53.5 -67t69 -29.5q52 0 87.5 20.5t56.5 55t30 81.5t9 100q0 58 -9 122t-23 128 t-31.5 126t-35 116.5t-33 98t-25.5 71.5l144 52q11 -31 28 -78t35.5 -105.5t37 -125.5t33.5 -137t24 -140t9 -134q0 -83 -16 -155.5t-54 -127t-101 -87t-156 -34.5q-88 2 -151.5 41t-105.5 108q-39 -66 -94 -103.5t-121 -45.5l-44 1q-92 9 -160 77q-25 -119 -77 -215 t-123.5 -164t-158.5 -105t-183 -37q-100 0 -195.5 45t-170.5 138t-121 236.5t-46 341.5q0 14 0.5 33t1.5 39t2 39.5t2 34.5l154 -10q-1 -15 -2 -33t-2 -37t-1.5 -36.5t-0.5 -30.5q0 -158 32.5 -272.5t85.5 -188.5t122 -109.5t141 -35.5q46 0 91.5 14t86 40.5t76 64.5 t62.5 85zM1449 1727q0 20 7.5 37.5t20.5 30t30.5 20t36.5 7.5q40 0 67.5 -27.5t27.5 -67.5t-27.5 -67.5t-67.5 -27.5q-19 0 -36.5 7.5t-30.5 20t-20.5 30t-7.5 37.5zM1595 1490q0 19 7.5 36.5t20.5 30.5t30.5 20.5t36.5 7.5q20 0 37.5 -7.5t30 -20.5t20 -30.5t7.5 -36.5 q0 -40 -27.5 -67.5t-67.5 -27.5q-19 0 -36.5 7.5t-30.5 20t-20.5 30t-7.5 37.5zM1314 1490q0 19 7.5 36.5t20.5 30.5t30.5 20.5t36.5 7.5t36.5 -7.5t30.5 -20.5t20.5 -30.5t7.5 -36.5q0 -20 -7.5 -37.5t-20.5 -30t-30.5 -20t-36.5 -7.5t-36.5 7.5t-30.5 20t-20.5 30 t-7.5 37.5z" />
<glyph unicode="&#x634;" horiz-adv-x="2330" arabic-form="final" d="M2056 1219l47 -685q3 -49 23.5 -87.5t47 -65.5t53.5 -41t44 -14h47v-153h-51q-75 2 -134 38t-101 111q-38 -67 -92.5 -102.5t-125.5 -46.5l-42 3q-73 10 -126.5 47.5t-90.5 98.5q-39 -66 -94 -103.5t-121 -45.5l-51 1q-93 9 -161 77q-24 -119 -76 -215t-123.5 -164 t-159 -105t-182.5 -37q-100 0 -195.5 45t-170.5 138t-121 236.5t-46 341.5q0 14 0.5 33t1.5 39t2 39.5t2 34.5l154 -10q-1 -15 -2 -33t-2 -37t-1.5 -36.5t-0.5 -30.5q0 -158 32.5 -272.5t85.5 -188.5t122 -109.5t141 -35.5q78 0 148.5 41t125.5 113t89.5 171t40.5 216v116 t0.5 131t0.5 138q0 71 0.5 138.5t0.5 129.5v113h154v-536q0 -152 46 -238.5t123 -90.5q32 4 61 28t51 66t35 101t13 133v537h153v-536q0 -74 11.5 -133.5t33.5 -101.5t52.5 -66.5t68.5 -27.5q77 5 113.5 73t36.5 192q0 70 -6 157.5t-16 191.5q-2 25 -4.5 55t-5.5 62t-5.5 64 t-4.5 61zM1449 1727q0 20 7.5 37.5t20.5 30t30.5 20t36.5 7.5q40 0 67.5 -27.5t27.5 -67.5t-27.5 -67.5t-67.5 -27.5q-19 0 -36.5 7.5t-30.5 20t-20.5 30t-7.5 37.5zM1595 1490q0 19 7.5 36.5t20.5 30.5t30.5 20.5t36.5 7.5q20 0 37.5 -7.5t30 -20.5t20 -30.5t7.5 -36.5 q0 -40 -27.5 -67.5t-67.5 -27.5q-19 0 -36.5 7.5t-30.5 20t-20.5 30t-7.5 37.5zM1314 1490q0 19 7.5 36.5t20.5 30.5t30.5 20.5t36.5 7.5t36.5 -7.5t30.5 -20.5t20.5 -30.5t7.5 -36.5q0 -20 -7.5 -37.5t-20.5 -30t-30.5 -20t-36.5 -7.5t-36.5 7.5t-30.5 20t-20.5 30 t-7.5 37.5z" />
<glyph unicode="&#x634;" horiz-adv-x="1391" arabic-form="initial" d="M354 1191v-536q0 -76 12 -136.5t34 -102.5t51.5 -65t64.5 -25q32 4 61 28t51 66t35 101t13 133v537h154v-536q0 -73 12.5 -131.5t35 -101t53.5 -67t69 -29.5q52 0 87.5 20.5t56.5 55t30 81.5t9 100q0 58 -9 122t-23 128t-31 126t-34.5 116.5t-33 98t-25.5 71.5l144 52 q11 -31 27.5 -78t35 -105.5t37 -125.5t33.5 -137t24 -140t9 -134q0 -83 -16 -155.5t-54 -127t-101 -87t-156 -34.5q-88 2 -151.5 41t-105.5 108q-39 -66 -94 -103.5t-121 -45.5l-44 1q-66 8 -121.5 45t-95.5 103q-42 -75 -102 -111t-134 -38h-49v153h45q34 1 63.5 23.5 t51.5 64.5t35 102.5t13 137.5v537h154zM656 1727q0 20 7.5 37.5t20.5 30t30.5 20t36.5 7.5q40 0 67.5 -27.5t27.5 -67.5t-27.5 -67.5t-67.5 -27.5q-19 0 -36.5 7.5t-30.5 20t-20.5 30t-7.5 37.5zM802 1490q0 19 7.5 36.5t20.5 30.5t30.5 20.5t36.5 7.5q20 0 37.5 -7.5 t30 -20.5t20 -30.5t7.5 -36.5q0 -40 -27.5 -67.5t-67.5 -27.5q-19 0 -36.5 7.5t-30.5 20t-20.5 30t-7.5 37.5zM521 1490q0 19 7.5 36.5t20.5 30.5t30.5 20.5t36.5 7.5t36.5 -7.5t30.5 -20.5t20.5 -30.5t7.5 -36.5q0 -20 -7.5 -37.5t-20.5 -30t-30.5 -20t-36.5 -7.5 t-36.5 7.5t-30.5 20t-20.5 30t-7.5 37.5z" />
<glyph unicode="&#x634;" horiz-adv-x="1517" arabic-form="medial" d="M1258 1219l47 -685q3 -49 24 -87.5t47.5 -65.5t53.5 -41t43 -14h47v-153h-51q-75 2 -133.5 38t-101.5 111q-38 -67 -92.5 -102.5t-125.5 -46.5l-41 3q-74 10 -127.5 47.5t-90.5 98.5q-39 -66 -94 -103.5t-121 -45.5l-44 1q-66 8 -121.5 45t-95.5 103q-43 -75 -102.5 -111 t-133.5 -38h-49v153h45q34 1 63.5 23.5t51.5 64.5t35 102.5t13 137.5v537h154v-536q0 -76 12 -136.5t34 -102.5t51.5 -65t64.5 -25q32 4 61 28t51 66t35 101t13 133v537h154v-536q0 -74 11.5 -133.5t33 -101.5t52.5 -66.5t69 -27.5q77 5 113.5 73t36.5 192q0 70 -6.5 157.5 t-15.5 191.5q-2 25 -5 55t-5.5 62t-5.5 64t-5 61zM660 1727q0 20 7.5 37.5t20.5 30t30.5 20t36.5 7.5q40 0 67.5 -27.5t27.5 -67.5t-27.5 -67.5t-67.5 -27.5q-19 0 -36.5 7.5t-30.5 20t-20.5 30t-7.5 37.5zM806 1490q0 19 7.5 36.5t20.5 30.5t30.5 20.5t36.5 7.5 q20 0 37.5 -7.5t30 -20.5t20 -30.5t7.5 -36.5q0 -40 -27.5 -67.5t-67.5 -27.5q-19 0 -36.5 7.5t-30.5 20t-20.5 30t-7.5 37.5zM525 1490q0 19 7.5 36.5t20.5 30.5t30.5 20.5t36.5 7.5t36.5 -7.5t30.5 -20.5t20.5 -30.5t7.5 -36.5q0 -20 -7.5 -37.5t-20.5 -30t-30.5 -20 t-36.5 -7.5t-36.5 7.5t-30.5 20t-20.5 30t-7.5 37.5z" />
<glyph unicode="&#x635;" horiz-adv-x="1950" arabic-form="isolated" d="M924 1224q54 -103 92.5 -193t64.5 -171q73 222 177.5 334t246.5 117q87 -7 158.5 -49t121.5 -109t77.5 -153.5t27.5 -181.5q0 -119 -37.5 -233.5t-107.5 -205t-168.5 -147t-220.5 -59.5h-244q-14 -45 -32 -86.5t-39 -76.5v1q-38 -66 -87.5 -118t-107.5 -88t-123 -55.5 t-132 -19.5q-100 0 -195.5 45t-170.5 138t-121 236.5t-46 341.5q0 14 0.5 33t1.5 39t2 39.5t2 34.5l154 -10q-1 -15 -2 -33t-2 -37t-1.5 -36.5t-0.5 -30.5q0 -158 32.5 -272.5t85.5 -188.5t122 -109.5t141 -35.5q82 0 155 40t128.5 113.5t88 177t32.5 229.5q0 141 -48.5 318 t-160.5 391zM1736 824q-1 64 -17.5 121t-46.5 101t-72.5 73t-96.5 38q-47 -3 -87.5 -33.5t-75 -79.5t-63.5 -111t-53 -127.5t-43.5 -129.5t-35.5 -117q3 -29 4 -56t1 -56q0 -33 -2 -62.5t-5 -58.5h210q88 4 159 49.5t120.5 115.5t76.5 157t27 176z" />
<glyph unicode="&#x635;" horiz-adv-x="1960" arabic-form="final" d="M925 1224q54 -103 92.5 -193t64.5 -171q74 222 178 334t246 117q87 -7 158.5 -49t121.5 -109t77.5 -153.5t27.5 -181.5q0 -116 -35 -227t-101 -201q-13 -18 -26.5 -33.5t-27.5 -30.5h254v-153h-841q-14 -45 -32.5 -86.5t-38.5 -76.5v1q-38 -66 -87.5 -118t-108 -88 t-123.5 -55.5t-132 -19.5q-100 0 -195.5 45t-170.5 138t-120.5 236.5t-45.5 341.5q0 14 0.5 33t1 39t1.5 39.5t2 34.5l154 -10q-1 -15 -2 -33t-2 -37t-1.5 -36.5t-0.5 -30.5q0 -158 32.5 -272.5t85.5 -188.5t122 -109.5t141 -35.5q82 0 155 40t128.5 113.5t88 177 t32.5 229.5q0 141 -48.5 318t-160.5 391zM1737 824q-1 64 -17 121t-46 101t-73 73t-97 38q-47 -3 -87.5 -33.5t-75 -79.5t-63 -111t-53 -127.5t-44 -129.5t-35.5 -117q3 -29 4 -56t1 -56q0 -33 -2 -62.5t-5 -58.5h210q59 3 110.5 24.5t94 57.5t75.5 83t56 101.5t35 113.5 t12 118z" />
<glyph unicode="&#x635;" horiz-adv-x="1470" arabic-form="initial" d="M518 173q-72 2 -133.5 42t-104.5 111q-42 -68 -104.5 -110.5t-133.5 -42.5h-49v153h47q33 1 63 23.5t52 64.5t35 103t13 138l3 537h153v-537q0 -72 11 -130t31 -100t46.5 -66.5t58.5 -30.5q0 6 1 27.5t2.5 45.5t2.5 44t1 22q10 104 30.5 206.5t51 195.5t72 172.5 t94 138.5t116.5 93.5t140 37.5q87 -7 158.5 -49t121.5 -109t77.5 -153.5t27.5 -181.5q0 -119 -37.5 -233.5t-107.5 -205t-168.5 -147t-220.5 -59.5h-350zM666 453l-3.5 -35t-2 -29t-1 -29t-0.5 -34h206q88 4 159 49.5t120.5 115.5t76.5 157t27 176q-1 64 -17 121t-46 101 t-72.5 73.5t-96.5 38.5q-50 -2 -93 -31t-79 -78.5t-65.5 -116.5t-51.5 -144.5t-37.5 -163t-23.5 -171.5z" />
<glyph unicode="&#x635;" horiz-adv-x="1470" arabic-form="medial" d="M519 173q-71 2 -132.5 42t-104.5 111q-21 -34 -48 -62t-57.5 -48.5t-64 -31.5t-68.5 -11h-49v153h46q33 1 63 23.5t52 64.5t35 103t13 138l3 537h154v-537q0 -72 11 -130t30.5 -100t46.5 -66.5t58 -30.5q0 6 1 27.5t2.5 45.5t2.5 44t1 22q10 104 30.5 206.5t51.5 195.5 t72 172.5t93.5 138.5t116.5 93.5t140 37.5q87 -7 158.5 -49t121.5 -109t77.5 -153.5t27.5 -181.5q0 -116 -35 -227t-101 -201q-13 -18 -26.5 -33.5t-27.5 -30.5h261v-153h-955zM668 453l-3.5 -35t-2.5 -29t-1.5 -29t-0.5 -34h206q59 3 110.5 24.5t94 57.5t75.5 83t56 101.5 t35 113.5t12 118q-1 64 -17 121t-46 101t-72.5 73.5t-96.5 38.5q-50 -2 -93 -31t-79 -78.5t-65 -116.5t-51.5 -144.5t-37.5 -163t-23 -171.5z" />
<glyph unicode="&#x636;" horiz-adv-x="1950" arabic-form="isolated" d="M924 1224q54 -103 92.5 -193t64.5 -171q73 222 177.5 334t246.5 117q87 -7 158.5 -49t121.5 -109t77.5 -153.5t27.5 -181.5q0 -119 -37.5 -233.5t-107.5 -205t-168.5 -147t-220.5 -59.5h-244q-14 -45 -32 -86.5t-39 -76.5v1q-38 -66 -87.5 -118t-107.5 -88t-123 -55.5 t-132 -19.5q-100 0 -195.5 45t-170.5 138t-121 236.5t-46 341.5q0 14 0.5 33t1.5 39t2 39.5t2 34.5l154 -10q-1 -15 -2 -33t-2 -37t-1.5 -36.5t-0.5 -30.5q0 -158 32.5 -272.5t85.5 -188.5t122 -109.5t141 -35.5q82 0 155 40t128.5 113.5t88 177t32.5 229.5q0 141 -48.5 318 t-160.5 391zM1736 824q-1 64 -17.5 121t-46.5 101t-72.5 73t-96.5 38q-47 -3 -87.5 -33.5t-75 -79.5t-63.5 -111t-53 -127.5t-43.5 -129.5t-35.5 -117q3 -29 4 -56t1 -56q0 -33 -2 -62.5t-5 -58.5h210q88 4 159 49.5t120.5 115.5t76.5 157t27 176zM1023 1498q0 20 7.5 37.5 t20.5 30t30.5 20t36.5 7.5q40 0 67.5 -27.5t27.5 -67.5t-27.5 -67.5t-67.5 -27.5q-19 0 -36.5 7.5t-30.5 20t-20.5 30t-7.5 37.5z" />
<glyph unicode="&#x636;" horiz-adv-x="1960" arabic-form="final" d="M925 1224q54 -103 92.5 -193t64.5 -171q74 222 178 334t246 117q87 -7 158.5 -49t121.5 -109t77.5 -153.5t27.5 -181.5q0 -116 -35 -227t-101 -201q-13 -18 -26.5 -33.5t-27.5 -30.5h254v-153h-841q-14 -45 -32.5 -86.5t-38.5 -76.5v1q-38 -66 -87.5 -118t-108 -88 t-123.5 -55.5t-132 -19.5q-100 0 -195.5 45t-170.5 138t-120.5 236.5t-45.5 341.5q0 14 0.5 33t1 39t1.5 39.5t2 34.5l154 -10q-1 -15 -2 -33t-2 -37t-1.5 -36.5t-0.5 -30.5q0 -158 32.5 -272.5t85.5 -188.5t122 -109.5t141 -35.5q82 0 155 40t128.5 113.5t88 177 t32.5 229.5q0 141 -48.5 318t-160.5 391zM1737 824q-1 64 -17 121t-46 101t-73 73t-97 38q-47 -3 -87.5 -33.5t-75 -79.5t-63 -111t-53 -127.5t-44 -129.5t-35.5 -117q3 -29 4 -56t1 -56q0 -33 -2 -62.5t-5 -58.5h210q59 3 110.5 24.5t94 57.5t75.5 83t56 101.5t35 113.5 t12 118zM1024 1498q0 20 7.5 37.5t20.5 30t30.5 20t36.5 7.5q40 0 67.5 -27.5t27.5 -67.5t-27.5 -67.5t-67.5 -27.5q-19 0 -36.5 7.5t-30.5 20t-20.5 30t-7.5 37.5z" />
<glyph unicode="&#x636;" horiz-adv-x="1470" arabic-form="initial" d="M518 173q-72 2 -133.5 42t-104.5 111q-42 -68 -104.5 -110.5t-133.5 -42.5h-49v153h47q33 1 63 23.5t52 64.5t35 103t13 138l3 537h153v-537q0 -72 11 -130t31 -100t46.5 -66.5t58.5 -30.5q0 6 1 27.5t2.5 45.5t2.5 44t1 22q10 104 30.5 206.5t51 195.5t72 172.5 t94 138.5t116.5 93.5t140 37.5q87 -7 158.5 -49t121.5 -109t77.5 -153.5t27.5 -181.5q0 -119 -37.5 -233.5t-107.5 -205t-168.5 -147t-220.5 -59.5h-350zM666 453l-3.5 -35t-2 -29t-1 -29t-0.5 -34h206q88 4 159 49.5t120.5 115.5t76.5 157t27 176q-1 64 -17 121t-46 101 t-72.5 73.5t-96.5 38.5q-50 -2 -93 -31t-79 -78.5t-65.5 -116.5t-51.5 -144.5t-37.5 -163t-23.5 -171.5zM490 1498q0 20 7.5 37.5t20.5 30t30.5 20t36.5 7.5t36.5 -7.5t30.5 -20t20.5 -30t7.5 -37.5t-7.5 -37.5t-20.5 -30t-30.5 -20t-36.5 -7.5t-36.5 7.5t-30.5 20t-20.5 30 t-7.5 37.5z" />
<glyph unicode="&#x636;" horiz-adv-x="1470" arabic-form="medial" d="M519 173q-71 2 -132.5 42t-104.5 111q-21 -34 -48 -62t-57.5 -48.5t-64 -31.5t-68.5 -11h-49v153h46q33 1 63 23.5t52 64.5t35 103t13 138l3 537h154v-537q0 -72 11 -130t30.5 -100t46.5 -66.5t58 -30.5q0 6 1 27.5t2.5 45.5t2.5 44t1 22q10 104 30.5 206.5t51.5 195.5 t72 172.5t93.5 138.5t116.5 93.5t140 37.5q87 -7 158.5 -49t121.5 -109t77.5 -153.5t27.5 -181.5q0 -116 -35 -227t-101 -201q-13 -18 -26.5 -33.5t-27.5 -30.5h261v-153h-955zM668 453l-3.5 -35t-2.5 -29t-1.5 -29t-0.5 -34h206q59 3 110.5 24.5t94 57.5t75.5 83t56 101.5 t35 113.5t12 118q-1 64 -17 121t-46 101t-72.5 73.5t-96.5 38.5q-50 -2 -93 -31t-79 -78.5t-65 -116.5t-51.5 -144.5t-37.5 -163t-23 -171.5zM491 1498q0 20 7.5 37.5t20.5 30t30.5 20t36.5 7.5q40 0 67.5 -27.5t27.5 -67.5t-27.5 -67.5t-67.5 -27.5q-19 0 -36.5 7.5 t-30.5 20t-20.5 30t-7.5 37.5z" />
<glyph unicode="&#x637;" horiz-adv-x="1095" arabic-form="isolated" d="M304 937q29 76 69.5 144t87.5 119t100 81t108 30q62 0 129 -32.5t123 -96t92.5 -156t36.5 -212.5q0 -78 -17 -155.5t-49 -148t-78.5 -131t-105.5 -106t-130 -72t-152 -28.5h-449v153h81v1460h154v-849zM808 1080q-63 57 -117 57q-42 0 -80.5 -25.5t-73.5 -69t-66 -101.5 t-56.5 -123.5t-46 -134t-34.5 -133.5t-21.5 -122t-7.5 -100q1 -1 1 -2h209q84 4 154.5 48t121 112t78.5 153.5t28 173.5q0 91 -26 157.5t-64 111.5z" />
<glyph unicode="&#x637;" horiz-adv-x="1110" arabic-form="final" d="M310 937q30 76 70 144t87.5 119t100.5 81t108 30q62 0 129 -32.5t123 -96t92.5 -156t36.5 -212.5q0 -115 -35 -225t-102 -199q-13 -17 -25.5 -33t-27.5 -31h257v-153h-1059v153h91v1460h154v-849zM814 1080q-61 57 -116 57q-56 0 -106.5 -44t-93.5 -115t-77.5 -160 t-59 -179t-37.5 -172t-13 -139q1 -1 1 -2h209q85 4 155 48t120.5 112t78.5 153.5t28 173.5q0 91 -25.5 157.5t-64.5 111.5z" />
<glyph unicode="&#x637;" horiz-adv-x="1053" arabic-form="initial" d="M261 937q30 76 70 144t87.5 119t100.5 81t108 30q62 0 129 -32.5t123 -96t92.5 -156t36.5 -212.5q0 -78 -17 -155.5t-49 -148t-79 -131t-106 -106t-130 -72t-152 -28.5h-490v153h122v1460h154v-849zM765 1080q-61 57 -116 57q-56 0 -106.5 -44t-93.5 -115t-77.5 -160 t-59 -179t-37.5 -172t-13 -139q1 -1 1 -2h209q85 4 155 48t120.5 112t78.5 153.5t28 173.5q0 91 -25.5 157.5t-64.5 111.5z" />
<glyph unicode="&#x637;" horiz-adv-x="1063" arabic-form="medial" d="M262 937q30 76 70 144t87.5 119t100.5 81t108 30q62 0 129 -32.5t123 -96t92.5 -156t36.5 -212.5q0 -115 -35 -225t-101 -199q-14 -17 -26.5 -33t-27.5 -31h257v-153h-1089v153h122v1460h153v-849zM766 1080q-61 57 -116 57q-56 0 -106.5 -44t-93.5 -115t-77.5 -160 t-59 -179t-37.5 -172t-13 -139q1 -1 1 -2h209q85 4 155 48t120.5 112t78.5 153.5t28 173.5q0 91 -25.5 157.5t-64.5 111.5z" />
<glyph unicode="&#x638;" horiz-adv-x="1095" arabic-form="isolated" d="M304 937q29 76 69.5 144t87.5 119t100 81t108 30q62 0 129 -32.5t123 -96t92.5 -156t36.5 -212.5q0 -78 -17 -155.5t-49 -148t-78.5 -131t-105.5 -106t-130 -72t-152 -28.5h-449v153h81v1460h154v-849zM808 1080q-63 57 -117 57q-42 0 -80.5 -25.5t-73.5 -69t-66 -101.5 t-56.5 -123.5t-46 -134t-34.5 -133.5t-21.5 -122t-7.5 -100q1 -1 1 -2h209q84 4 154.5 48t121 112t78.5 153.5t28 173.5q0 91 -26 157.5t-64 111.5zM398 1498q0 20 7.5 37.5t20.5 30t30.5 20t36.5 7.5q40 0 67.5 -27.5t27.5 -67.5t-27.5 -67.5t-67.5 -27.5q-19 0 -36.5 7.5 t-30.5 20t-20.5 30t-7.5 37.5z" />
<glyph unicode="&#x638;" horiz-adv-x="1110" arabic-form="final" d="M310 937q30 76 70 144t87.5 119t100.5 81t108 30q62 0 129 -32.5t123 -96t92.5 -156t36.5 -212.5q0 -115 -35 -225t-102 -199q-13 -17 -25.5 -33t-27.5 -31h257v-153h-1059v153h91v1460h154v-849zM814 1080q-61 57 -116 57q-56 0 -106.5 -44t-93.5 -115t-77.5 -160 t-59 -179t-37.5 -172t-13 -139q1 -1 1 -2h209q85 4 155 48t120.5 112t78.5 153.5t28 173.5q0 91 -25.5 157.5t-64.5 111.5zM399 1498q0 20 7.5 37.5t20.5 30t30.5 20t36.5 7.5q40 0 67.5 -27.5t27.5 -67.5t-27.5 -67.5t-67.5 -27.5q-19 0 -36.5 7.5t-30.5 20t-20.5 30 t-7.5 37.5z" />
<glyph unicode="&#x638;" horiz-adv-x="1053" arabic-form="initial" d="M261 937q30 76 70 144t87.5 119t100.5 81t108 30q62 0 129 -32.5t123 -96t92.5 -156t36.5 -212.5q0 -78 -17 -155.5t-49 -148t-79 -131t-106 -106t-130 -72t-152 -28.5h-490v153h122v1460h154v-849zM765 1080q-61 57 -116 57q-56 0 -106.5 -44t-93.5 -115t-77.5 -160 t-59 -179t-37.5 -172t-13 -139q1 -1 1 -2h209q85 4 155 48t120.5 112t78.5 153.5t28 173.5q0 91 -25.5 157.5t-64.5 111.5zM395 1498q0 20 7.5 37.5t20.5 30t30.5 20t36.5 7.5q40 0 67.5 -27.5t27.5 -67.5t-27.5 -67.5t-67.5 -27.5q-19 0 -36.5 7.5t-30.5 20t-20.5 30 t-7.5 37.5z" />
<glyph unicode="&#x638;" horiz-adv-x="1063" arabic-form="medial" d="M262 937q30 76 70 144t87.5 119t100.5 81t108 30q62 0 129 -32.5t123 -96t92.5 -156t36.5 -212.5q0 -115 -35 -225t-101 -199q-14 -17 -26.5 -33t-27.5 -31h257v-153h-1089v153h122v1460h153v-849zM766 1080q-61 57 -116 57q-56 0 -106.5 -44t-93.5 -115t-77.5 -160 t-59 -179t-37.5 -172t-13 -139q1 -1 1 -2h209q85 4 155 48t120.5 112t78.5 153.5t28 173.5q0 91 -25.5 157.5t-64.5 111.5zM397 1498q0 20 7.5 37.5t20.5 30t30.5 20t36.5 7.5t36.5 -7.5t30.5 -20t20.5 -30t7.5 -37.5t-7.5 -37.5t-20.5 -30t-30.5 -20t-36.5 -7.5t-36.5 7.5 t-30.5 20t-20.5 30t-7.5 37.5z" />
<glyph unicode="&#x639;" horiz-adv-x="1027" arabic-form="isolated" d="M241 632q-49 46 -71 96.5t-22 102.5q0 74 36.5 145.5t96.5 134.5q37 40 86 78t103.5 67.5t112 47.5t113.5 18q47 0 86.5 -14t68.5 -42.5t45 -72t16 -103.5q0 -23 -3.5 -53t-9.5 -68l-152 28q5 34 8 56t3 33q0 45 -16.5 63t-43.5 18q-47 0 -94 -16t-91 -42.5t-82 -61 t-66 -71.5t-44 -74.5t-16 -69.5q0 -23 9.5 -45.5t31.5 -42.5l176 -165q75 39 165.5 71.5t197.5 57.5l37 -148q-141 -34 -256.5 -86t-203.5 -113.5t-148 -130t-91 -135.5q-31 -68 -31 -123q0 -39 16.5 -71.5t50 -56t84.5 -36.5t120 -13q85 0 201.5 24t268.5 78l52 -144 q-166 -58 -295 -84.5t-228 -26.5q-109 0 -189 26t-132 70.5t-77 104t-25 127.5q0 89 45 188q39 87 116.5 175t183.5 163z" />
<glyph unicode="&#x639;" horiz-adv-x="933" arabic-form="final" d="M746 173q-54 0 -96.5 14.5t-80.5 47.5t-76 86t-82 130q-47 -39 -88 -78.5t-72 -79t-49 -80t-18 -82.5q0 -56 26.5 -108t82.5 -92.5t143 -64.5t209 -24v-154q-161 0 -277 37.5t-191 100t-111 142.5t-36 165q0 69 25 129.5t67 116t97.5 107.5t116.5 102q-13 23 -34.5 64 t-48 90t-55.5 102t-54.5 100.5t-46.5 85.5t-31 57v120q29 16 51 27.5t41.5 20.5t39 17t42.5 16q63 22 133.5 37t139.5 15q43 0 84.5 -7.5t79.5 -24t71 -43t59 -65.5q34 -52 49 -100t15 -93q0 -66 -28.5 -126t-75.5 -116.5t-108 -109.5t-127 -106q35 -61 62.5 -103.5 t52.5 -69t48.5 -38.5t50.5 -12h205v-153h-205zM412 769q13 -23 25.5 -43.5t20.5 -39.5q51 41 97 81.5t81 81.5t55.5 82t20.5 84q0 23 -8 48t-26 52q-26 40 -70 56t-96 16q-36 0 -74.5 -6t-76 -16t-72.5 -22.5t-64 -25.5q57 -100 103.5 -187t84.5 -161h-1z" />
<glyph unicode="&#x639;" horiz-adv-x="1027" arabic-form="initial" d="M117 644q-29 42 -43 87t-13 88q0 63 26 123t69.5 114t101 98.5t120 77.5t126 51t119.5 18q48 0 89.5 -13.5t72.5 -40.5t48.5 -68.5t17.5 -97.5q0 -54 -21.5 -128t-69.5 -173l-138 67q41 84 58.5 140t17.5 90q0 40 -21.5 55.5t-54.5 15.5q-38 0 -83 -13t-90 -36t-87 -54 t-74.5 -68t-52 -77.5t-19.5 -81.5q0 -45 29 -87l249 -364q11 3 46 13t81 24t97.5 30t97.5 30t80 24.5t45 13.5l41 -149q-80 -21 -144.5 -41.5t-124 -40t-118.5 -37t-126 -31.5q-68 -14 -137 -22t-145 -8h-206v153h206q37 0 71.5 2t69.5 7z" />
<glyph unicode="&#x639;" horiz-adv-x="944" arabic-form="medial" d="M229 326q57 2 110.5 26.5t98.5 59.5q-3 6 -20.5 37.5t-43.5 79t-58 106.5t-65.5 119.5t-65 118.5t-56.5 104t-41 75.5t-18 32.5v122q32 19 81.5 40.5t108.5 40t123.5 30.5t126.5 12q72 0 138.5 -18.5t117 -61.5t81 -114t30.5 -177q0 -75 -19 -151.5t-51.5 -150t-76 -141 t-92.5 -125.5q28 -34 53.5 -49t57.5 -16h210v-153h-210q-70 0 -122 25.5t-101 86.5q-65 -49 -138.5 -79.5t-156.5 -32.5h-246v153h244zM349 894q27 -52 56 -105.5t56 -103t50 -91t39 -69.5q36 46 67.5 99t55 108.5t37 113t13.5 113.5q0 65 -17 107t-45.5 67t-66.5 34.5 t-80 9.5q-38 0 -76 -5t-75 -13.5t-71.5 -19.5t-63.5 -23q20 -36 52 -94.5t69 -127.5z" />
<glyph unicode="&#x63a;" horiz-adv-x="1027" arabic-form="isolated" d="M241 632q-49 47 -71 96.5t-22 102.5q0 74 36.5 145.5t96.5 134.5q37 40 86 78t103.5 67.5t112 47.5t113.5 18q47 0 86.5 -14t68.5 -42.5t45 -72t16 -103.5q0 -23 -3.5 -53t-9.5 -68l-152 28q5 34 8 56t3 33q0 45 -16.5 63t-43.5 18q-47 0 -94 -16t-91 -42.5t-82 -61 t-66 -71.5t-44 -74.5t-16 -69.5q0 -23 9.5 -45.5t31.5 -42.5l176 -165q75 39 165.5 71.5t197.5 57.5l37 -148q-141 -34 -256.5 -86t-203.5 -113.5t-148 -130t-91 -135.5q-31 -68 -31 -123q0 -39 16.5 -71.5t50 -56t84.5 -36.5t120 -13q85 0 201.5 24t268.5 78l52 -144 q-166 -58 -295 -84.5t-228 -26.5q-109 0 -189 26t-132 70.5t-77 104t-25 127.5q0 89 45 188q39 87 116 174.5t184 162.5zM231 1434q0 20 7.5 37.5t20.5 30t30.5 20t36.5 7.5q40 0 67.5 -27.5t27.5 -67.5t-27.5 -67.5t-67.5 -27.5q-19 0 -36.5 7.5t-30.5 20t-20.5 30 t-7.5 37.5z" />
<glyph unicode="&#x63a;" horiz-adv-x="933" arabic-form="final" d="M746 173q-54 0 -96.5 14.5t-80.5 47.5t-76 86t-82 130q-47 -39 -88 -78.5t-72 -79t-49 -80t-18 -82.5q0 -56 26.5 -108t82.5 -92.5t143 -64.5t209 -24v-154q-161 0 -277 37.5t-191 100t-111 142.5t-36 165q0 69 25 129.5t67 116t97.5 107.5t116.5 102q-13 23 -34.5 64 t-48 90t-55.5 102t-54.5 100.5t-46.5 85.5t-31 57v120q29 16 51 27.5t41.5 20.5t39 17t42.5 16q63 22 133.5 37t139.5 15q43 0 84.5 -7.5t79.5 -24t71 -43t59 -65.5q34 -52 49 -100t15 -93q0 -66 -28.5 -126t-75.5 -116.5t-108 -109.5t-127 -106q35 -61 62.5 -103.5 t52.5 -69t48.5 -38.5t50.5 -12h205v-153h-205zM412 769q13 -23 25.5 -43.5t20.5 -39.5q51 41 97 81.5t81 81.5t55.5 82t20.5 84q0 23 -8 48t-26 52q-26 40 -70 56t-96 16q-36 0 -74.5 -6t-76 -16t-72.5 -22.5t-64 -25.5q57 -100 103.5 -187t84.5 -161h-1zM360 1498 q0 20 8 37.5t21 30t30 20t36 7.5q40 0 67.5 -27.5t27.5 -67.5t-27.5 -67.5t-67.5 -27.5q-19 0 -36 7.5t-30 20t-21 30t-8 37.5z" />
<glyph unicode="&#x63a;" horiz-adv-x="1027" arabic-form="initial" d="M117 644q-29 43 -42.5 87.5t-13.5 87.5q0 63 26 123t69.5 114t101 98.5t120 77.5t126 51t119.5 18q48 0 89.5 -13.5t72.5 -40.5t48.5 -68.5t17.5 -97.5q0 -54 -21.5 -128t-69.5 -173l-138 67q41 84 58.5 140t17.5 90q0 40 -21.5 55.5t-54.5 15.5q-38 0 -83 -13t-90 -36 t-87 -54t-74.5 -68t-52 -77.5t-19.5 -81.5q0 -45 29 -87l249 -364q11 3 46 13t81 24t97.5 30t97.5 30t80 24.5t45 13.5l41 -149q-80 -21 -144.5 -41.5t-124 -40t-118.5 -37t-126 -31.5q-68 -14 -137 -22t-145 -8h-206v153h206q37 0 71 2t69 7zM360 1498q0 20 7.5 37.5 t20.5 30t30.5 20t36.5 7.5q40 0 67.5 -27.5t27.5 -67.5t-27.5 -67.5t-67.5 -27.5q-19 0 -36.5 7.5t-30.5 20t-20.5 30t-7.5 37.5z" />
<glyph unicode="&#x63a;" horiz-adv-x="944" arabic-form="medial" d="M229 326q57 2 110.5 26.5t98.5 59.5q-3 6 -20.5 37.5t-43.5 79t-58 106.5t-65.5 119.5t-65 118.5t-56.5 104t-41 75.5t-18 32.5v122q32 19 81.5 40.5t108.5 40t123.5 30.5t126.5 12q72 0 138.5 -18.5t117 -61.5t81 -114t30.5 -177q0 -75 -19 -151.5t-51.5 -150t-76 -141 t-92.5 -125.5q28 -34 53.5 -49t57.5 -16h210v-153h-210q-70 0 -122 25.5t-101 86.5q-65 -49 -138.5 -79.5t-156.5 -32.5h-246v153h244zM349 894q27 -52 56 -105.5t56 -103t50 -91t39 -69.5q36 46 67.5 99t55 108.5t37 113t13.5 113.5q0 65 -17 107t-45.5 67t-66.5 34.5 t-80 9.5q-38 0 -76 -5t-75 -13.5t-71.5 -19.5t-63.5 -23q20 -36 52 -94.5t69 -127.5zM360 1498q0 20 7.5 37.5t20.5 30t30.5 20t36.5 7.5q40 0 67.5 -27.5t27.5 -67.5t-27.5 -67.5t-67.5 -27.5q-19 0 -36.5 7.5t-30.5 20t-20.5 30t-7.5 37.5z" />
<glyph unicode="&#x641;" horiz-adv-x="1413" arabic-form="isolated" d="M793 275q72 22 138.5 57t120.5 84q-122 10 -210.5 54t-146 109t-85.5 145t-28 161q0 83 27 158.5t78 132.5t124.5 91t167.5 34q95 -3 167 -50.5t120.5 -124.5t73 -174.5t24.5 -200.5q0 -108 -34.5 -199t-94 -165.5t-139.5 -131.5t-170.5 -95.5t-187 -58t-189.5 -19.5 q-101 0 -192.5 24t-161 73t-110.5 123t-41 174q0 64 22 143.5t73 176.5l136 -70q-42 -81 -60 -142.5t-18 -106.5q0 -63 28 -108.5t76 -75t112 -44t136 -14.5q60 0 122 10t122 30zM1169 565q20 43 31 91t11 100q0 74 -16 144.5t-46.5 125t-75.5 88t-103 33.5t-101.5 -23 t-72.5 -60.5t-44 -85.5t-16 -99q3 -56 27 -112t71.5 -101t118.5 -73t169 -28h47zM886 1498q0 20 8 37.5t21 30t30 20t36 7.5q40 0 67.5 -27.5t27.5 -67.5t-27.5 -67.5t-67.5 -27.5q-19 0 -36 7.5t-30 20t-21 30t-8 37.5z" />
<glyph unicode="&#x641;" horiz-adv-x="1422" arabic-form="final" d="M279 726q-41 -81 -59.5 -142.5t-18.5 -107.5q0 -70 33 -116.5t84 -74t113.5 -39t122.5 -11.5q58 0 123 11t124 29q-55 42 -95.5 98.5t-67.5 121t-40.5 133.5t-13.5 138q0 59 9.5 121.5t29.5 122t52 112.5t76 92.5t101.5 63t129.5 23.5q70 0 125.5 -24t99 -64.5 t74.5 -94.5t50.5 -113.5t29 -121.5t9.5 -118q0 -59 -10 -119t-30 -116.5t-50.5 -108.5t-70.5 -95h221v-153h-154q-62 0 -104 0.5t-68 1.5t-44.5 3t-33.5 4t-35 6q-103 -54 -216.5 -80t-223.5 -26q-90 0 -179.5 21t-161.5 68t-117 122.5t-45 183.5q0 63 22.5 142.5 t72.5 176.5zM983 1147q-2 0 -4.5 0.5t-4.5 0.5q-64 0 -109 -37t-73.5 -93.5t-41.5 -123t-13 -125.5q0 -66 14.5 -130t44 -120t74.5 -100t106 -68q60 23 105 67t75 100t45 121t15 130q0 56 -13 120t-40.5 119.5t-70 94t-102.5 44.5h-7zM888 1498q0 20 7.5 37.5t20.5 30 t30.5 20t36.5 7.5q40 0 67.5 -27.5t27.5 -67.5t-27.5 -67.5t-67.5 -27.5q-19 0 -36.5 7.5t-30.5 20t-20.5 30t-7.5 37.5z" />
<glyph unicode="&#x641;" horiz-adv-x="880" arabic-form="initial" d="M-18 326h460q50 0 88 24t65 62h-3q-139 0 -240.5 41.5t-168 108.5t-98.5 151.5t-32 171.5q0 79 26 154t76 133.5t122.5 93.5t164.5 35q97 0 171 -48t123 -127t74 -180.5t25 -208.5q0 -54 -8 -116.5t-27 -125t-49 -121t-73.5 -103t-102 -71.5t-133.5 -27h-460v153z M660 565q11 44 16.5 90t5.5 82q0 76 -15 149.5t-45 131.5t-75 93.5t-105 35.5q-58 0 -101.5 -23t-73.5 -60.5t-45 -85.5t-16 -99q4 -56 28 -112t71 -101t118 -73t169 -28h68zM292 1498q0 20 7.5 37.5t20.5 30t30.5 20t36.5 7.5q40 0 67.5 -27.5t27.5 -67.5t-27.5 -67.5 t-67.5 -27.5q-19 0 -36.5 7.5t-30.5 20t-20.5 30t-7.5 37.5z" />
<glyph unicode="&#x641;" horiz-adv-x="897" arabic-form="medial" d="M-18 326h240q-41 43 -71.5 95t-50 108.5t-29.5 116.5t-10 120q0 56 9.5 117.5t29 121t50.5 113t74 94.5t99.5 65t126.5 24q71 0 128 -24t100 -65t74 -94.5t51 -113t29 -121t9 -117.5q0 -59 -10 -119t-30 -117t-50 -109t-71 -95h233v-153h-275q-35 0 -74.5 10t-74.5 20v1 q-11 4 -17 6t-15 4q-8 -2 -16.5 -5t-18.5 -5h1q-38 -10 -81.5 -20.5t-78.5 -10.5h-281v153zM452 1147q-44 0 -78 -17.5t-60.5 -47t-45 -68.5t-30.5 -81.5t-17.5 -85.5t-5.5 -81q0 -60 12.5 -119.5t37.5 -112.5t63 -96t90 -70q20 -14 32 -14q15 0 34 14q52 27 90.5 70 t63.5 96t37.5 112.5t12.5 119.5q0 38 -5.5 81t-17.5 85.5t-30.5 81.5t-44.5 68.5t-60.5 47t-77.5 17.5zM334 1498q0 20 7.5 37.5t20.5 30t30.5 20t36.5 7.5q40 0 67.5 -27.5t27.5 -67.5t-27.5 -67.5t-67.5 -27.5q-19 0 -36.5 7.5t-30.5 20t-20.5 30t-7.5 37.5z" />
<glyph unicode="&#x642;" horiz-adv-x="1319" arabic-form="isolated" d="M230 663q-16 -95 -26.5 -190t-10.5 -177q0 -100 16 -192t57 -162.5t111.5 -112.5t179.5 -42q119 0 210.5 38t157.5 103t109 150.5t65 181.5q-55 -45 -123 -69t-143 -24q-99 0 -174 47.5t-125 126t-75.5 180.5t-25.5 210q0 106 25 208t74.5 181t123 127.5t171.5 48.5 q67 0 126.5 -31t109.5 -85.5t90 -129.5t67.5 -163.5t42.5 -187.5t15 -200q0 -107 -17.5 -212.5t-54 -202t-94 -179t-138 -143t-185 -95t-235.5 -34.5q-100 0 -177 25t-134 69.5t-96 106t-62.5 135.5t-34 157t-10.5 170q0 92 10.5 192t26.5 198zM1104 721q-16 87 -43 164 t-63 134t-79.5 90t-91.5 33q-59 0 -104 -35.5t-75 -93.5t-45.5 -132t-15.5 -150q0 -80 16 -154t47.5 -130.5t78.5 -90.5t109 -34q64 0 115 27t86.5 72t54 103t18.5 121q0 33 -8 76zM620 1495q0 20 7.5 37.5t20.5 30t30.5 20t36.5 7.5q40 0 67.5 -27.5t27.5 -67.5 q0 -20 -7.5 -37t-20 -30t-30 -20.5t-37.5 -7.5q-19 0 -36.5 7.5t-30.5 20.5t-20.5 30t-7.5 37zM849 1495q0 20 7.5 37.5t20.5 30t30.5 20t36.5 7.5q40 0 67.5 -27.5t27.5 -67.5q0 -20 -7.5 -37t-20 -30t-30 -20.5t-37.5 -7.5q-19 0 -36.5 7.5t-30.5 20.5t-20.5 30t-7.5 37z " />
<glyph unicode="&#x642;" horiz-adv-x="1381" arabic-form="final" d="M241 663q-15 -97 -25 -191.5t-10 -176.5q0 -101 16 -192.5t56.5 -162t110.5 -112t179 -41.5q106 0 190 30t147.5 82t108.5 122.5t72 151.5h-161q-125 0 -215.5 47.5t-149.5 126t-87 179t-28 205.5q0 106 24.5 208t74 181t123 127.5t171.5 48.5q67 0 127 -31t110 -85.5 t90 -129.5t67.5 -163.5t42.5 -187t15 -199.5q0 -45 -3 -88t-8 -86h110v-153h-142q-30 -114 -86 -212.5t-139.5 -171.5t-197 -114.5t-259.5 -41.5q-100 0 -177 25t-134 69.5t-95.5 106.5t-62.5 135.5t-34 157t-10 170.5q0 91 10 190.5t26 198.5zM1123 326q8 45 11 88t3 88 q0 80 -10.5 158.5t-29.5 150t-46 132t-60 105t-71.5 69.5t-80.5 25q-60 0 -105 -35.5t-75 -93.5t-45 -132t-15 -150q0 -77 18 -149.5t57.5 -129.5t101.5 -91.5t149 -34.5h198zM620 1495q0 20 7.5 37.5t20.5 30t30.5 20t36.5 7.5q40 0 67.5 -27.5t27.5 -67.5q0 -20 -7.5 -37 t-20 -30t-30 -20.5t-37.5 -7.5q-19 0 -36.5 7.5t-30.5 20.5t-20.5 30t-7.5 37zM849 1495q0 20 7.5 37.5t20.5 30t30.5 20t36.5 7.5q40 0 67.5 -27.5t27.5 -67.5q0 -20 -7.5 -37t-20 -30t-30 -20.5t-37.5 -7.5q-19 0 -36.5 7.5t-30.5 20.5t-20.5 30t-7.5 37z" />
<glyph unicode="&#x642;" horiz-adv-x="880" arabic-form="initial" d="M-18 326h460q50 0 88 24t65 62h-3q-139 0 -240.5 41.5t-168 108.5t-98.5 151.5t-32 171.5q0 79 26 154t76 133.5t122.5 93.5t164.5 35q97 0 171 -48t123 -127t74 -180.5t25 -208.5q0 -54 -8 -116.5t-27 -125t-49 -121t-73.5 -103t-102 -71.5t-133.5 -27h-460v153z M660 565q11 44 16.5 90t5.5 82q0 76 -15 149.5t-45 131.5t-75 93.5t-105 35.5q-58 0 -101.5 -23t-73.5 -60.5t-45 -85.5t-16 -99q4 -56 28 -112t71 -101t118 -73t169 -28h68zM211 1495q0 20 7.5 37.5t20.5 30t30.5 20t36.5 7.5q40 0 67.5 -27.5t27.5 -67.5q0 -20 -7.5 -37 t-20 -30t-30 -20.5t-37.5 -7.5q-19 0 -36.5 7.5t-30.5 20.5t-20.5 30t-7.5 37zM440 1495q0 20 7.5 37.5t20.5 30t30.5 20t36.5 7.5q40 0 67.5 -27.5t27.5 -67.5q0 -20 -7.5 -37t-20 -30t-30 -20.5t-37.5 -7.5q-19 0 -36.5 7.5t-30.5 20.5t-20.5 30t-7.5 37z" />
<glyph unicode="&#x642;" horiz-adv-x="897" arabic-form="medial" d="M-18 326h240q-41 43 -71.5 95t-50 108.5t-29.5 116.5t-10 120q0 56 9.5 117.5t29 121t50.5 113t74 94.5t99.5 65t126.5 24q71 0 128 -24t100 -65t74 -94.5t51 -113t29 -121t9 -117.5q0 -59 -10 -119t-30 -117t-50 -109t-71 -95h233v-153h-275q-35 0 -74.5 10t-74.5 20v1 q-11 4 -17 6t-15 4q-8 -2 -16.5 -5t-18.5 -5h1q-38 -10 -81.5 -20.5t-78.5 -10.5h-281v153zM452 1147q-44 0 -78 -17.5t-60.5 -47t-45 -68.5t-30.5 -81.5t-17.5 -85.5t-5.5 -81q0 -60 12.5 -119.5t37.5 -112.5t63 -96t90 -70q20 -14 32 -14q15 0 34 14q52 27 90.5 70 t63.5 96t37.5 112.5t12.5 119.5q0 38 -5.5 81t-17.5 85.5t-30.5 81.5t-44.5 68.5t-60.5 47t-77.5 17.5zM235 1495q0 20 7.5 37.5t20.5 30t30.5 20t36.5 7.5q40 0 67.5 -27.5t27.5 -67.5q0 -20 -7.5 -37t-20 -30t-30 -20.5t-37.5 -7.5q-19 0 -36.5 7.5t-30.5 20.5t-20.5 30 t-7.5 37zM464 1495q0 20 7.5 37.5t20.5 30t30.5 20t36.5 7.5q40 0 67.5 -27.5t27.5 -67.5q0 -20 -7.5 -37t-20 -30t-30 -20.5t-37.5 -7.5q-19 0 -36.5 7.5t-30.5 20.5t-20.5 30t-7.5 37z" />
<glyph unicode="&#x643;" horiz-adv-x="1314" arabic-form="isolated" d="M1257 1786l-1 -1064q-1 -99 -6 -178.5t-32 -145t-85 -118.5t-164 -99q-37 -16 -80 -28.5t-88 -23.5q-57 -14 -118.5 -21t-118.5 -7q-104 0 -198.5 24.5t-167.5 74.5t-116 126t-43 179q0 72 23 158t75 189l138 -71q-45 -87 -63.5 -154.5t-18.5 -121.5q0 -65 30 -112 t81 -78t118 -46t142 -15q52 0 103 6.5t100 17.5q83 19 139.5 43t94 54.5t57.5 66.5t29.5 79.5t12 93.5t2.5 108q0 260 0.5 531.5t0.5 531.5h154zM863 1210l-150 -128q204 -138 204 -246q-2 -47 -27 -76.5t-61 -46.5t-77 -23.5t-75 -6.5q-39 0 -79.5 8t-77.5 23t-68.5 37.5 t-51.5 51.5l127 89q19 -29 58 -42.5t81 -13.5q25 0 50.5 2t41.5 10q-5 8 -17 19t-33 28v-1q-28 21 -60.5 42.5t-61 45t-47.5 48t-19 51.5q0 35 33 64l210 183z" />
<glyph unicode="&#x643;" horiz-adv-x="1465" arabic-form="final" d="M1261 1786l-1 -1064q0 -10 -0.5 -19.5t-0.5 -18.5v-32q0 -77 13 -137t35.5 -101.5t52 -64t62.5 -23.5h46v-153h-51q-72 2 -132.5 42.5t-104.5 112.5q-32 -42 -82.5 -78.5t-124.5 -68.5q-37 -16 -80 -28.5t-88 -23.5q-57 -14 -118 -21t-118 -7q-104 0 -199 24.5 t-167.5 74.5t-115.5 126t-43 179q0 72 23 158t75 189l137 -71q-45 -87 -63.5 -154.5t-18.5 -121.5q0 -65 30 -112t81 -78t118.5 -46t142.5 -15q51 0 102 6.5t100 17.5q83 19 139.5 43t94 54.5t57.5 66.5t29.5 79.5t11.5 93.5t3 108q0 260 0.5 531.5t0.5 531.5h154zM718 1082 q19 -15 42.5 -32t46.5 -35q60 -50 87 -94t27 -85q-2 -47 -27 -76.5t-61 -46.5t-77 -23.5t-75 -6.5q-39 0 -79.5 8t-77.5 23t-68 37.5t-51 51.5l126 89q19 -29 58.5 -42.5t81.5 -13.5q24 0 50 2t42 10q-5 8 -17 19t-34 28v-1q-29 22 -61.5 43.5t-60.5 44t-46.5 47t-18.5 52.5 q0 17 7.5 33t24.5 31l211 183l99 -118z" />
<glyph unicode="&#x643;" horiz-adv-x="1010" arabic-form="initial" d="M-13 326h425q58 6 102.5 27t75 54.5t46.5 76.5t16 93q0 84 -38.5 169.5t-104.5 153.5q-43 48 -95 90.5t-110 77t-121 60t-127 37.5l-21 127l961 582l80 -133l-800 -484q98 -43 186 -109.5t160 -143.5q42 -45 76 -96.5t58 -106.5t37 -112t13 -113q0 -78 -24.5 -149 t-73.5 -125.5t-121.5 -89t-168.5 -39.5h-431v153z" />
<glyph unicode="&#x643;" horiz-adv-x="1194" arabic-form="medial" d="M-12 326h411q61 6 106 28.5t75 56.5t44.5 77t14.5 88q0 65 -23 132.5t-68 129.5q-25 33 -54 65t-58 59q-81 74 -181.5 127.5t-211.5 75.5l-22 127l961 582l80 -133l-800 -484q76 -33 146.5 -80.5t130.5 -102.5q73 -67 132 -144q32 -44 55 -90t40 -93h2q30 -89 73.5 -164 t94.5 -130t106 -88t108 -39h55v-153h-53q-48 0 -96 13t-93 42l1 -1q-54 32 -105 80t-96 109q-20 -49 -52.5 -92t-77.5 -75.5t-102 -52.5t-126 -23h-417v153z" />
<glyph unicode="&#x644;" horiz-adv-x="891" arabic-form="isolated" d="M824 1761v-1304q0 -54 -8.5 -116.5t-27 -125t-48.5 -121t-74 -103t-102.5 -71.5t-133.5 -27q-98 0 -171.5 48.5t-123 127.5t-74.5 180.5t-25 207.5q0 78 16.5 161t50.5 168l142 -58q-28 -71 -41 -141t-14 -130q0 -77 15.5 -151t45.5 -132t75 -93t104 -35q46 0 82 20 t62.5 53t45 75.5t29.5 88.5t16 91t5 83v1304h154z" />
<glyph unicode="&#x644;" horiz-adv-x="1022" arabic-form="final" d="M828 1761v-1117q1 -75 14.5 -133.5t35.5 -99t51 -62.5t62 -23h46v-153h-51q-105 3 -182 82q-16 -71 -44.5 -136.5t-72.5 -115.5t-106.5 -80t-146.5 -30q-98 0 -171.5 48.5t-123 127.5t-74 180.5t-24.5 207.5q0 78 16 161t50 168l142 -58q-27 -71 -40.5 -141t-14.5 -130 q0 -77 15.5 -151t45.5 -132t75 -93t104 -35q46 0 82 20t63 53t45 75.5t29 88.5t16 91t5 83v1304h154z" />
<glyph unicode="&#x644;" horiz-adv-x="407" arabic-form="initial" d="M337 1786v-1131q0 -113 -24 -202t-66 -150.5t-99 -94.5t-123 -35h-50v153h46q34 1 63.5 23.5t51.5 64.5t35 103t13 138v1131h153z" />
<glyph unicode="&#x644;" horiz-adv-x="526" arabic-form="medial" d="M500 173q-73 2 -134 41.5t-103 113.5q-45 -74 -103.5 -113t-133.5 -42h-50v153h46q34 1 63.5 24t51.5 65t35 102.5t13 137.5v11v45t0.5 106t0.5 196t0.5 313.5t1.5 459.5h154v-1131q1 -77 13.5 -138t34.5 -103t51.5 -64.5t63.5 -23.5h46v-153h-51z" />
<glyph unicode="&#x645;" horiz-adv-x="1194" arabic-form="isolated" d="M746 168q-50 0 -94 13.5t-82.5 38t-70 58.5t-55.5 76q-74 -3 -124 -12t-80 -24t-43 -35.5t-13 -45.5q0 -66 34.5 -152t83.5 -193q7 -17 17 -38t20.5 -44t21 -45.5t18.5 -41.5l-144 -57q-12 30 -25.5 61.5t-26.5 61.5t-25 57t-22 49q-24 53 -44 98t-33.5 85.5t-21 79 t-7.5 79.5q0 56 17.5 102t59 80.5t109 56.5t167.5 29q-15 56 -22 113.5t-7 116.5q0 62 9 127t28.5 126t50.5 116t74.5 96.5t100.5 67t129 28.5q73 -3 130.5 -29t101.5 -68t74.5 -97.5t50 -117.5t28.5 -127.5t9 -128.5q0 -56 -9 -119.5t-28 -125.5t-49.5 -119t-74.5 -100.5 t-102 -69.5t-131 -26zM986 731q-1 65 -12.5 135t-39 128.5t-73.5 99t-115 47.5q-69 -7 -115 -47.5t-73 -99t-38.5 -128.5t-12.5 -135q1 -63 10.5 -121.5t29.5 -113.5q11 -32 29 -63t42 -56t54.5 -40t66.5 -15q48 0 85.5 19.5t64.5 52.5t45.5 75.5t30 88t16.5 90.5t5 83z" />
<glyph unicode="&#x645;" horiz-adv-x="1340" arabic-form="final" d="M751 168q-50 0 -94.5 13.5t-82.5 38t-70 58.5t-56 76q-74 -3 -124 -12t-80 -24t-43 -35.5t-13 -45.5q0 -66 34.5 -152t83.5 -193q7 -17 17 -38t20.5 -44t21 -45.5t18.5 -41.5l-144 -57q-12 30 -25.5 61.5t-26.5 61.5t-25 57t-22 49q-24 53 -43.5 98t-33 85.5t-21 79 t-7.5 79.5q0 56 17.5 102t59 80.5t109 56.5t167.5 29q-30 111 -30 230q0 62 9 127t29 126t50.5 116t74.5 96.5t101 67t129 28.5q72 -3 129.5 -29t101 -67.5t74.5 -96.5t50.5 -117t28.5 -127t9 -128q0 -19 -1 -39.5t-3 -41.5q1 -76 14 -136t34.5 -101t51 -63.5t63.5 -23.5h46 v-153h-50q-81 3 -143 46t-106 131q-23 -40 -53 -73.5t-67 -57.5t-82 -37.5t-97 -13.5zM991 731q0 66 -12 135.5t-39.5 128.5t-73.5 99t-115 47q-46 -5 -82 -25t-62.5 -51t-44.5 -70.5t-29 -83.5t-16 -90.5t-5 -89.5q0 -126 39 -235q12 -32 30 -63t42.5 -56t54.5 -40t65 -15 q48 0 85.5 19.5t65 52t46 74.5t30 87.5t16.5 91t5 84.5z" />
<glyph unicode="&#x645;" horiz-adv-x="1022" arabic-form="initial" d="M596 1296q65 0 119 -24t97 -65t74.5 -95.5t52.5 -115.5t31.5 -124t10.5 -122v-37q0 -59 -10.5 -122t-31.5 -123.5t-53 -115t-74.5 -95.5t-96.5 -65t-119 -24q-105 0 -181 49.5t-127 134.5q-43 -85 -107.5 -131t-143.5 -48h-50v153h46q36 3 66 28t51.5 69.5t33.5 106.5 t12 138q0 21 -1 40.5t-1 39.5q0 61 10.5 125t31.5 125t53.5 115t76.5 95t99 64.5t123 23.5h8zM588 1142q-41 0 -74.5 -17.5t-60.5 -47.5t-46.5 -69.5t-32.5 -83t-19.5 -88t-6.5 -85.5v-10q0 -2 0.5 -5t0.5 -5t-0.5 -4.5t-0.5 -4.5v-10q0 -64 14.5 -133t45 -126t76.5 -94 t109 -37q60 0 104 38.5t73 97t43 126.5t14 128v39q0 41 -6.5 85.5t-19 88t-32.5 83t-46.5 69.5t-60 47.5t-74.5 17.5z" />
<glyph unicode="&#x645;" horiz-adv-x="1183" arabic-form="medial" d="M601 1296q65 0 119 -24t96.5 -65t74.5 -95.5t52.5 -115.5t31 -124t10.5 -122v-39v-34q0 -16 -2 -31q1 -75 14 -134t34.5 -100t51 -63t63.5 -23h46v-153h-51q-79 2 -144 47.5t-107 131.5q-24 -40 -53.5 -73.5t-65.5 -58t-78.5 -38.5t-90.5 -14q-106 0 -182 49.5 t-128 134.5q-43 -85 -107 -131t-144 -48h-50v153h46q36 3 66 28t51.5 69.5t33.5 106.5t12 138q0 21 -1 40.5t-1 39.5q0 61 10.5 125t31.5 125t53.5 115t76.5 95t99.5 64.5t122.5 23.5h9zM833 732q0 44 -6 91.5t-19 93t-33 86.5t-47 72t-62.5 49t-78.5 18q-40 0 -73 -18 t-59 -48t-45.5 -70t-32 -83t-19 -87.5t-6.5 -84.5v-10q0 -2 0.5 -5t0.5 -5t-0.5 -4.5t-0.5 -4.5v-10q0 -64 15 -133t45.5 -126t77 -94t109.5 -37q56 0 98.5 37.5t71 95t44 127t18.5 132.5z" />
<glyph unicode="&#x646;" horiz-adv-x="1173" arabic-form="isolated" d="M907 1224q121 -231 173 -425.5t52 -354.5q0 -108 -20.5 -203t-57.5 -174t-88.5 -142t-113.5 -106t-132.5 -66t-145.5 -23q-100 0 -195.5 45t-170.5 138t-121 236.5t-46 341.5q0 14 0.5 33t1.5 39t2 39.5t2 34.5l153 -10q-1 -15 -2 -33t-2 -37t-1.5 -36.5t-0.5 -30.5 q0 -158 32.5 -272.5t86 -188.5t122 -109.5t140.5 -35.5q82 0 155.5 40t129 113.5t88 177t32.5 229.5q0 141 -49 318t-161 391zM374 1158q0 20 7.5 37.5t20.5 30.5t30.5 20.5t36.5 7.5q40 0 67.5 -28t27.5 -68q0 -20 -7.5 -37t-20 -30t-30 -20.5t-37.5 -7.5q-19 0 -36.5 7.5 t-30.5 20.5t-20.5 30t-7.5 37z" />
<glyph unicode="&#x646;" horiz-adv-x="1324" arabic-form="final" d="M909 1224q97 -183 148.5 -340t68.5 -294q6 -62 20.5 -111t36 -83t48.5 -52t57 -18h45v-153h-47q-98 3 -172 68q-24 -116 -76 -210.5t-123.5 -161.5t-158 -103t-180.5 -36q-100 0 -195.5 45t-170.5 138t-121 236.5t-46 341.5q0 14 0.5 33t1.5 39t2 39.5t2 34.5l153 -10 q-1 -15 -2 -33t-1.5 -37t-1 -36.5t-0.5 -30.5q0 -158 32.5 -272.5t85.5 -188.5t122 -109.5t141 -35.5q81 0 154.5 40t129 113.5t88 177t32.5 229.5q0 141 -49 318t-161 391zM393 1208q0 20 7.5 37.5t20.5 30t30.5 20t36.5 7.5q40 0 67.5 -27.5t27.5 -67.5q0 -20 -7.5 -37 t-20 -30t-30 -20.5t-37.5 -7.5q-19 0 -36.5 7.5t-30.5 20.5t-20.5 30t-7.5 37z" />
<glyph unicode="&#x646;" horiz-adv-x="558" arabic-form="initial" d="M-25 326h196q53 0 88.5 20t57 55t30.5 82t9 100q0 58 -9 122t-23 128t-31 126t-34.5 116.5t-33 98t-25.5 71.5l144 52q14 -38 37 -106.5t47 -152t45 -176t31 -178.5q3 -26 4.5 -54.5t1.5 -54.5q0 -84 -16.5 -157.5t-56 -127.5t-104.5 -85.5t-162 -31.5h-196v153z M115 1504q0 20 7.5 37.5t20.5 30t30.5 20t36.5 7.5q40 0 67.5 -27.5t27.5 -67.5t-27.5 -67.5t-67.5 -27.5q-19 0 -36.5 7.5t-30.5 20t-20.5 30t-7.5 37.5z" />
<glyph unicode="&#x646;" horiz-adv-x="526" arabic-form="medial" d="M340 1191v-536q0 -77 13 -137.5t35 -102.5t51.5 -65t63.5 -24h46v-153h-51q-75 2 -133.5 38t-101.5 111q-43 -66 -104.5 -107.5t-131.5 -41.5h-49v153h45q34 1 63.5 23.5t51.5 64.5t35 102.5t13 137.5v537h154zM166 1428q0 20 7.5 37.5t20.5 30t30.5 20t36.5 7.5 q40 0 67.5 -27.5t27.5 -67.5t-27.5 -67.5t-67.5 -27.5q-19 0 -36.5 7.5t-30.5 20t-20.5 30t-7.5 37.5z" />
<glyph unicode="&#x647;" horiz-adv-x="860" arabic-form="isolated" d="M743 1182q32 -48 46.5 -112t14.5 -137q0 -84 -18 -174.5t-49 -178t-73.5 -166.5t-92 -138.5t-103.5 -94.5t-109 -35q-61 0 -117.5 46.5t-101.5 153.5t-74.5 280.5t-37.5 427.5v42l35 24q144 95 256.5 137.5t195.5 42.5q79 0 135 -31.5t93 -86.5zM615 1097 q-15 23 -40.5 36t-63.5 13q-56 0 -136.5 -30.5t-190.5 -99.5q8 -199 25.5 -335.5t41 -220.5t51.5 -121.5t58 -39.5q32 3 66 34t66.5 80.5t61.5 113t50.5 133t34.5 140.5t13 134q0 50 -8.5 92t-28.5 71z" />
<glyph unicode="&#x647;" horiz-adv-x="1168" arabic-form="final" d="M1102 173q-81 0 -140 33.5t-101 88.5q-31 -69 -77.5 -99.5t-103.5 -30.5q-48 0 -101.5 26t-108 71.5t-108.5 106.5t-103.5 131t-91.5 146t-73 151t-48.5 145t-17.5 129q0 49 12 89t37 68t62 43.5t88 15.5q65 0 154 -30t206 -96q-8 27 -14.5 52.5t-11.5 45.5l149 38 q48 -187 78.5 -306t48.5 -188t25.5 -97t8.5 -32q13 -53 31 -113.5t45 -113t64.5 -87t90.5 -34.5h77v-153h-77zM234 1139q-33 0 -44.5 -20.5t-11.5 -53.5q0 -42 14.5 -96t39 -114t58.5 -123.5t72.5 -123t80.5 -112t83 -92t80 -62.5t72 -23q14 0 26.5 10.5t22.5 35t17 63.5 t10 96q-8 27 -15 53t-14 51l1 -2q-1 3 -3 7l-84 326l48 -13z" />
<glyph unicode="&#x647;" horiz-adv-x="1220" arabic-form="initial" d="M-11 326h194q18 0 35.5 1t33.5 3q-80 76 -122.5 168.5t-42.5 204.5q0 61 14 121.5t42.5 113t71 94t99.5 65.5q17 85 44 144.5t61.5 96.5t75.5 54t86 17q66 0 135 -40t134 -108t122.5 -157t100.5 -187.5t68 -200t25 -193.5q0 -106 -32.5 -182.5t-88.5 -126t-130 -73.5 t-158 -24q-85 0 -175 24.5t-169 69.5q-99 -35 -227 -38h-197v153zM770 692q-5 -112 -52.5 -213.5t-135.5 -175.5q90 -32 174 -32q54 0 100.5 14t81.5 44.5t55 79.5t20 119q0 78 -22 164t-59.5 169.5t-86 159t-102.5 132.5h1q-20 19 -39.5 37.5t-39.5 32.5t-40.5 22.5 t-41.5 8.5q-34 0 -61 -31t-47 -106q70 -11 124.5 -50t92.5 -95.5t58 -124.5t20 -135v-20zM240 700q0 -48 13.5 -92.5t38.5 -84.5t59 -75t75 -64q97 53 144 140.5t47 193.5q0 43 -13 87.5t-37.5 80.5t-59.5 58.5t-79 22.5q-48 0 -83.5 -25.5t-58.5 -64.5t-34.5 -86.5 t-11.5 -90.5z" />
<glyph unicode="&#x647;" horiz-adv-x="1209" arabic-form="medial" d="M1221 173h-247q-146 0 -279.5 9.5t-245.5 44.5q-57 -24 -124.5 -38t-147.5 -16h-189v153h188q38 0 74 6q-36 32 -68 73.5t-56 92t-38.5 109t-14.5 123.5q0 61 16 118.5t46 106t73.5 86t99.5 59.5q23 85 57 145.5t75 99.5t88 57t96 18q56 0 111.5 -22t106.5 -62 q63 -50 119 -123.5t94 -161.5h-1q34 -78 53.5 -163.5t19.5 -175.5q0 -97 -25.5 -194.5t-82.5 -191.5h202v-153zM719 497q-17 -41 -41.5 -78.5t-58.5 -72.5q96 -15 211 -18q72 88 107.5 188t35.5 197q0 69 -15 137t-41 129.5t-60.5 114t-73 91t-80 60t-80.5 21.5 q-43 0 -81.5 -34.5t-67.5 -115.5q70 -12 123.5 -50.5t90 -96t55 -129t18.5 -148.5q-2 -49 -11.5 -98t-30.5 -97zM234 659q21 -102 73.5 -165.5t129.5 -98.5q44 27 76.5 62.5t53.5 76t31 84t10 87.5q0 52 -13 99.5t-38 83.5t-60 57.5t-79 21.5q-47 0 -82.5 -21t-59.5 -54.5 t-36.5 -76t-12.5 -85.5q0 -19 2 -37t5 -35v1z" />
<glyph unicode="&#x648;" horiz-adv-x="860" arabic-form="isolated" d="M429 1296q70 -4 125.5 -28t99 -64t74.5 -93t51 -114.5t30.5 -128.5t11.5 -134q0 -136 -13.5 -263t-47.5 -239.5t-92.5 -205.5t-148 -160t-213.5 -104t-289 -37v155q103 0 186 17.5t148.5 49.5t114.5 75.5t82 96.5q12 22 23.5 45.5t22.5 48.5q-75 -45 -174 -45 q-67 0 -121.5 24t-97.5 65.5t-74.5 96.5t-52.5 117t-31 127.5t-10 126.5q0 57 9 121.5t28 128t50 121.5t74.5 102.5t101.5 71t132 26.5h1zM668 725q-2 70 -13.5 142.5t-38.5 132.5t-72 99.5t-113 42.5q-48 0 -84.5 -20.5t-63.5 -54.5t-45.5 -77.5t-29.5 -89.5t-16 -91 t-5 -82q0 -44 6 -90.5t19 -91.5t32.5 -85.5t46 -71t61 -48.5t76.5 -18q58 0 103 34.5t75 91t45.5 129t16.5 148.5z" />
<glyph unicode="&#x648;" horiz-adv-x="891" arabic-form="final" d="M435 1296q97 0 171 -48t123.5 -127t74.5 -180t25 -207q0 -109 -7.5 -210.5t-27.5 -197.5h114v-153h-158q-27 -71 -62 -133q-43 -72 -104 -130.5t-143 -99.5t-185.5 -63t-231.5 -22v155q120 0 210.5 21t157.5 59.5t113.5 93t78.5 121.5q-113 7 -197 32.5t-144.5 65.5 t-99 92t-61 111.5t-31.5 124.5t-9 130q0 107 24.5 208.5t74 181t123 127.5t171.5 48zM435 1142q-60 0 -105 -36t-75 -94t-45 -131.5t-15 -149.5q0 -77 16.5 -149t64 -127.5t133.5 -90.5t226 -38q23 92 31.5 193.5t8.5 211.5q0 76 -15 150t-45 132t-75 93.5t-105 35.5z" />
<glyph unicode="&#x649;" horiz-adv-x="1215" arabic-form="isolated" d="M964 1142q-125 0 -214 -15.5t-146 -42t-84 -62.5t-27 -77q0 -38 17.5 -80t48.5 -83.5t73.5 -81.5t92.5 -75q65 -45 141.5 -104t142.5 -131q35 -39 65.5 -81t53.5 -87t36.5 -93.5t14.5 -100.5q0 -66 -22 -120.5t-61 -98.5t-92 -77t-115.5 -55t-132 -33t-140.5 -11 q-165 0 -274.5 40.5t-175 111.5t-93 167t-27.5 206q0 61 8 127.5t21 135t30.5 137.5t35.5 137l149 -41q-18 -63 -34.5 -128t-29 -128.5t-20 -124t-7.5 -115.5q0 -77 18.5 -144.5t66 -118t128 -79.5t204.5 -29q76 0 149.5 15t131 45t93.5 75t36 104q-2 69 -38.5 135.5 t-90.5 125.5q-28 30 -61 59t-67 55.5t-67 50.5t-62 45q-45 31 -86.5 68.5t-77 77t-63 81t-44.5 81.5q-14 34 -21.5 70.5t-8.5 70.5q0 70 34 133.5t109 111.5t193.5 76.5t288.5 28.5v-154z" />
<glyph unicode="&#x649;" horiz-adv-x="1225" arabic-form="final" d="M587 420q121 -1 226.5 -24.5t183.5 -69.5h239v-153h-91q18 -34 26 -68.5t8 -77.5q0 -65 -22 -119.5t-61 -98.5t-92 -77t-115.5 -55t-132 -33t-140.5 -11q-165 0 -274.5 40.5t-175 111.5t-93 167t-27.5 206q0 61 8 127.5t21 135t30.5 137.5t35.5 137l149 -41 q-18 -63 -34 -128t-29 -128.5t-20.5 -124t-7.5 -115.5q0 -77 18.5 -144.5t66 -118t128 -79.5t204.5 -29q76 0 149.5 15t131.5 45t93.5 75t35.5 105t-38 104.5t-100 74.5t-140.5 45t-160.5 15v154z" />
<glyph unicode="&#x64a;" horiz-adv-x="1215" arabic-form="isolated" d="M964 1142q-125 0 -214 -15.5t-146 -42t-84 -62.5t-27 -77q0 -38 17.5 -80t48.5 -83.5t73.5 -81.5t92.5 -75q65 -45 141.5 -104t142.5 -131q35 -39 65.5 -81t53.5 -87t36.5 -93.5t14.5 -100.5q0 -66 -22 -120.5t-61 -98.5t-92 -77t-115.5 -55t-132 -33t-140.5 -11 q-165 0 -274.5 40.5t-175 111.5t-93 167t-27.5 206q0 61 8 127.5t21 135t30.5 137.5t35.5 137l149 -41q-18 -63 -34.5 -128t-29 -128.5t-20 -124t-7.5 -115.5q0 -77 18.5 -144.5t66 -118t128 -79.5t204.5 -29q76 0 149.5 15t131 45t93.5 75t36 104q-2 69 -38.5 135.5 t-90.5 125.5q-28 30 -61 59t-67 55.5t-67 50.5t-62 45q-45 31 -86.5 68.5t-77 77t-63 81t-44.5 81.5q-14 34 -21.5 70.5t-8.5 70.5q0 70 34 133.5t109 111.5t193.5 76.5t288.5 28.5v-154zM390 -590q0 20 7.5 37.5t20.5 30t30.5 20t36.5 7.5q40 0 67.5 -27.5t27.5 -67.5 q0 -20 -7.5 -37t-20 -30t-30 -20.5t-37.5 -7.5q-19 0 -36.5 7.5t-30.5 20.5t-20.5 30t-7.5 37zM619 -590q0 20 7.5 37.5t20.5 30t30.5 20t36.5 7.5q40 0 67.5 -27.5t27.5 -67.5q0 -20 -7.5 -37t-20 -30t-30 -20.5t-37.5 -7.5q-19 0 -36.5 7.5t-30.5 20.5t-20.5 30t-7.5 37z " />
<glyph unicode="&#x64a;" horiz-adv-x="1225" arabic-form="final" d="M587 420q121 -1 226.5 -24.5t183.5 -69.5h239v-153h-91q18 -34 26 -68.5t8 -77.5q0 -65 -22 -119.5t-61 -98.5t-92 -77t-115.5 -55t-132 -33t-140.5 -11q-165 0 -274.5 40.5t-175 111.5t-93 167t-27.5 206q0 61 8 127.5t21 135t30.5 137.5t35.5 137l149 -41 q-18 -63 -34 -128t-29 -128.5t-20.5 -124t-7.5 -115.5q0 -77 18.5 -144.5t66 -118t128 -79.5t204.5 -29q76 0 149.5 15t131.5 45t93.5 75t35.5 105t-38 104.5t-100 74.5t-140.5 45t-160.5 15v154zM390 -590q0 20 7.5 37.5t20.5 30t30.5 20t36.5 7.5q40 0 67.5 -27.5 t27.5 -67.5q0 -20 -7.5 -37t-20 -30t-30 -20.5t-37.5 -7.5q-19 0 -36.5 7.5t-30.5 20.5t-20.5 30t-7.5 37zM619 -590q0 20 7.5 37.5t20.5 30t30.5 20t36.5 7.5q40 0 67.5 -27.5t27.5 -67.5q0 -20 -7.5 -37t-20 -30t-30 -20.5t-37.5 -7.5q-19 0 -36.5 7.5t-30.5 20.5 t-20.5 30t-7.5 37z" />
<glyph unicode="&#x64a;" horiz-adv-x="558" arabic-form="initial" d="M-25 326h196q53 0 88.5 20t57 55t30.5 82t9 100q0 58 -9 122t-23 128t-31 126t-34.5 116.5t-33 98t-25.5 71.5l144 52q14 -38 37 -106.5t47 -152t45 -176t31 -178.5q3 -26 4.5 -54.5t1.5 -54.5q0 -84 -16.5 -157.5t-56 -127.5t-104.5 -85.5t-162 -31.5h-196v153zM51 -105 q0 20 7.5 37.5t20.5 30t30.5 20t36.5 7.5q40 0 67.5 -27.5t27.5 -67.5q0 -20 -7.5 -37t-20 -30t-30 -20.5t-37.5 -7.5q-19 0 -36.5 7.5t-30.5 20.5t-20.5 30t-7.5 37zM280 -105q0 20 7.5 37.5t20.5 30t30.5 20t36.5 7.5q40 0 67.5 -27.5t27.5 -67.5q0 -20 -7.5 -37t-20 -30 t-30 -20.5t-37.5 -7.5q-19 0 -36.5 7.5t-30.5 20.5t-20.5 30t-7.5 37z" />
<glyph unicode="&#x64a;" horiz-adv-x="526" arabic-form="medial" d="M340 1191v-536q0 -77 13 -137.5t35 -102.5t51.5 -65t63.5 -24h46v-153h-51q-75 2 -133.5 38t-101.5 111q-43 -66 -104.5 -107.5t-131.5 -41.5h-49v153h45q34 1 63.5 23.5t51.5 64.5t35 102.5t13 137.5v537h154zM51 -105q0 20 7.5 37.5t20.5 30t30.5 20t36.5 7.5 q40 0 67.5 -27.5t27.5 -67.5q0 -20 -7.5 -37t-20 -30t-30 -20.5t-37.5 -7.5q-19 0 -36.5 7.5t-30.5 20.5t-20.5 30t-7.5 37zM280 -105q0 20 7.5 37.5t20.5 30t30.5 20t36.5 7.5q40 0 67.5 -27.5t27.5 -67.5q0 -20 -7.5 -37t-20 -30t-30 -20.5t-37.5 -7.5q-19 0 -36.5 7.5 t-30.5 20.5t-20.5 30t-7.5 37z" />
<glyph unicode=" "  horiz-adv-x="435" />
<glyph unicode="&#x09;" horiz-adv-x="435" />
<glyph unicode="&#xa0;" horiz-adv-x="435" />
<glyph unicode="!" horiz-adv-x="709" d="M380 1786l98 -1026q-2 -37 -2 -63t-3.5 -49.5t-14 -49t-31.5 -61.5l-130 80q6 17 11 25.5t8.5 20.5t5.5 32t2 59q-12 123 -24 254t-25 263.5t-25 262.5t-24 252h154zM239 259q0 20 7.5 37.5t20.5 30t30.5 20t36.5 7.5q40 0 67.5 -27.5t27.5 -67.5t-27.5 -67.5 t-67.5 -27.5q-19 0 -36.5 7.5t-30.5 20t-20.5 30t-7.5 37.5z" />
<glyph unicode="&#x22;" horiz-adv-x="603" d="M446 1786l36 -399l-141 -131l-50 530h155zM255 1786l36 -399l-141 -131l-50 530h155z" />
<glyph unicode="#" d="M497 1393l-50 -348h173l50 348h170l-50 -348h168l-23 -163h-169l-31 -218h170l-23 -163h-169l-51 -353h-170l51 353h-173l-51 -353h-169l50 353h-168l23 163h168l31 218h-169l23 163h170l49 348h170zM424 882l-32 -218h174l31 218h-173z" />
<glyph unicode="$" d="M528 1535v-123q91 -4 161.5 -30.5t119 -73.5t73.5 -113t25 -149h-228q0 88 -34 131t-117 50v-337l22 -7q209 -60 296 -147t87 -238q0 -83 -28.5 -151.5t-81.5 -118.5t-127.5 -79t-167.5 -33v-173h-81v172q-189 12 -291.5 107.5t-102.5 276.5l1 31h242q0 -5 -0.5 -10 t-0.5 -10q0 -94 37 -141.5t115 -59.5v373q-189 60 -275 137q-92 83 -92 224q0 79 25.5 144t72.5 112.5t115 76t154 34.5v125h81zM528 308q76 8 120.5 53t44.5 120q0 63 -37 104.5t-128 70.5v-348zM447 1225q-67 -9 -104 -50.5t-37 -104.5q0 -51 34 -86t107 -66v307z" />
<glyph unicode="%" horiz-adv-x="709" d="M201 158l-188 -165l485 1772l202 182zM458 499q0 20 7.5 37.5t20.5 30t30.5 20t36.5 7.5q40 0 67.5 -27.5t27.5 -67.5t-27.5 -67.5t-67.5 -27.5q-19 0 -36.5 7.5t-30.5 20t-20.5 30t-7.5 37.5zM77 1422q0 20 7.5 37.5t20.5 30t30.5 20t36.5 7.5q40 0 67.5 -27.5 t27.5 -67.5t-27.5 -67.5t-67.5 -27.5q-19 0 -36.5 7.5t-30.5 20t-20.5 30t-7.5 37.5z" />
<glyph unicode="&#x26;" horiz-adv-x="1287" d="M258 1119q0 71 23.5 128.5t67.5 97.5t105.5 61.5t138.5 21.5q70 0 127.5 -21t98.5 -60.5t63 -95t22 -124.5q0 -90 -51 -162t-162 -139l189 -230l17 34q23 45 35 91t17 92h220q-12 -128 -75 -261q-17 -35 -35 -67t-38 -60l228 -275h-295l-87 104q-73 -64 -134 -92 q-89 -41 -231 -41q-93 0 -167.5 25t-127.5 71.5t-81.5 113.5t-28.5 150q0 141 84 239q29 35 74.5 72t112.5 75l-7 8q-48 57 -75.5 123t-27.5 121zM537 326q51 0 96 21.5t100 69.5l-238 292q-74 -53 -111 -103t-37 -111q0 -79 49.5 -124t140.5 -45zM485 1138q0 -58 41 -108 l51 -63q59 44 88 81.5t29 79.5q0 52 -27.5 81.5t-76.5 29.5q-48 0 -76.5 -25t-28.5 -76z" />
<glyph unicode="'" horiz-adv-x="396" d="M251 1786l36 -399l-141 -131l-50 530h155z" />
<glyph unicode="(" horiz-adv-x="540" d="M468 1586q-103 -184 -154 -383t-51 -410q0 -214 51 -413t154 -383h-170q-59 105 -102 205.5t-71 198.5t-42 195.5t-14 196.5q0 97 14 193.5t42.5 194.5t72 198.5t102.5 206.5h168z" />
<glyph unicode=")" horiz-adv-x="540" d="M238 1586q59 -106 102.5 -206.5t72 -198.5t42.5 -194.5t14 -193.5q0 -99 -14 -196.5t-42.5 -195.5t-71.5 -198.5t-102 -205.5h-169q103 184 154 383t51 413q0 211 -51 410t-154 383h168z" />
<glyph unicode="*" horiz-adv-x="891" d="M444 976l-152 -219l-121 81l171 213l-247 68l44 138l239 -82v257h134v-257l236 82l48 -138l-251 -68l173 -211l-119 -88z" />
<glyph unicode="+" horiz-adv-x="1041" d="M418 499h-347v205h347v346h205v-346h346v-205h-346v-346h-205v346z" />
<glyph unicode="," horiz-adv-x="495" d="M114 150v259h267v-223q0 -139 -65 -221t-202 -115v96q39 13 66 30t44.5 40.5t26 56t11.5 77.5h-148z" />
<glyph unicode="-" horiz-adv-x="810" d="M74 610q16 49 29 88.5t28 87.5q152 -1 301.5 -1.5t300.5 -1.5q-16 -50 -29 -89t-28 -86z" />
<glyph unicode="." horiz-adv-x="505" d="M150 259q0 20 7.5 37.5t20.5 30t30.5 20t36.5 7.5q40 0 67.5 -27.5t27.5 -67.5t-27.5 -67.5t-67.5 -27.5q-19 0 -36.5 7.5t-30.5 20t-20.5 30t-7.5 37.5z" />
<glyph unicode="/" horiz-adv-x="709" d="M201 158l-188 -165l485 1772l202 182z" />
<glyph unicode="0" horiz-adv-x="1019" d="M66 717q0 150 31 271t88.5 206.5t139.5 131.5t184 46t183.5 -45.5t139.5 -130.5t89 -206.5t31 -272.5q0 -148 -30.5 -269t-88 -207t-139.5 -133t-185 -47t-185 46.5t-139.5 132t-88 207t-30.5 270.5zM314 717q0 -242 48.5 -356t146.5 -114t147 115.5t49 354.5 q0 238 -49 355t-147 117t-146.5 -115t-48.5 -357z" />
<glyph unicode="1" horiz-adv-x="1019" d="M478 85v1031l-240 -166l-68 162l286 239h257v-1266h-235z" />
<glyph unicode="2" horiz-adv-x="1019" d="M927 85h-827l10 189q43 47 98.5 100t113.5 109.5t114 116.5t99.5 120.5t70 121t26.5 118.5q0 54 -17.5 94t-48 66t-71 38.5t-85.5 12.5q-60 0 -123.5 -21t-118.5 -62l-75 169q94 61 188 89t197 28q92 0 167.5 -31.5t129 -84.5t83 -123t29.5 -147q0 -70 -25 -138 q-30 -81 -87.5 -159t-127.5 -149.5t-143 -134.5t-134 -114h557v-208z" />
<glyph unicode="3" horiz-adv-x="1019" d="M435 61q-107 0 -187.5 18t-144.5 56l48 150q59 -29 113 -40t111 -11q67 0 118 15t85.5 40.5t51.5 59t17 69.5q0 41 -23 81.5t-68.5 73.5t-115 54t-162.5 23l-8 154q48 6 107.5 22.5t111.5 45t87.5 69.5t35.5 97q0 45 -18.5 77t-49 52.5t-71 30t-83.5 9.5q-48 0 -95 -10.5 t-87 -30.5l-60 151q51 26 127.5 41t160.5 15q45 0 88.5 -5t83 -15.5t73.5 -27t58 -39.5q52 -51 77 -106.5t25 -112.5q0 -90 -61 -170.5t-182 -134.5q279 -110 279 -344q0 -81 -30.5 -146.5t-87.5 -112.5t-139 -72.5t-185 -25.5z" />
<glyph unicode="4" horiz-adv-x="1019" d="M587 85v296h-547v214q157 195 310 386t310 386h148v-771h126v-215h-126v-296h-221zM588 596v439l-357 -439h357z" />
<glyph unicode="5" horiz-adv-x="1019" d="M197 260q41 -14 81.5 -20t82.5 -6q90 0 151.5 20t99.5 53.5t55 76.5t17 88q0 84 -40 129.5t-108 66.5t-157 24t-187 3l-2 656h652v-198h-453v-249q127 0 225.5 -28.5t166 -83.5t102.5 -135.5t35 -184.5q-2 -101 -43 -178t-109.5 -128.5t-157 -78t-184.5 -26.5 q-81 0 -148.5 10t-124.5 31z" />
<glyph unicode="6" horiz-adv-x="1019" d="M95 520q0 114 37 232t105 229t163.5 209.5t213.5 173.5q7 -8 11 -13.5t8 -10.5t8 -10.5t10 -12.5v1q18 -23 35 -45.5t36 -45.5q-240 -157 -328 -364q66 27 140 27q73 0 144 -26.5t127.5 -78t91.5 -127.5t35 -175q0 -92 -31 -169.5t-86.5 -133t-132 -86.5t-168.5 -31 q-101 0 -179.5 33.5t-131.5 94.5t-80.5 144.5t-27.5 184.5zM539 265q46 0 82 19t60.5 47.5t37.5 62.5t13 65q0 51 -23.5 93t-61 72t-84.5 46.5t-93 16.5q-38 0 -75 -11t-69 -34q-13 -49 -13 -102q0 -54 15 -104t43.5 -88t71 -60.5t96.5 -22.5z" />
<glyph unicode="7" horiz-adv-x="1019" d="M255 131l388 1027h-552v193h795v-193l-429 -1104z" />
<glyph unicode="8" horiz-adv-x="1019" d="M509 1372q84 0 152 -30.5t116.5 -79.5t75 -111.5t26.5 -126.5q0 -39 -11 -77.5t-33.5 -73.5t-57.5 -65t-84 -52q125 -55 187.5 -138.5t62.5 -189.5q0 -83 -30.5 -150t-86.5 -118v1q-59 -48 -138 -74t-179 -26q-101 0 -180.5 26t-138.5 74v-1q-55 51 -85 119t-30 149 q0 53 16 100.5t45.5 88t69.5 72.5t88 53q-89 53 -131 131t-42 160q0 65 25.5 126t74.5 108.5t121.5 76t166.5 28.5zM502 628q-49 0 -86 -17.5t-61.5 -45.5t-37 -64t-12.5 -73t12 -71t36 -60t60.5 -41.5t84.5 -15.5q47 0 85.5 10t65.5 33.5t41.5 62.5t14.5 96q0 8 -2.5 25 t-10 38t-21.5 42.5t-36.5 39.5t-55 29.5t-77.5 11.5zM328 1020q0 -34 19 -67t47 -59t59 -42t54 -16q10 0 14 2q24 9 50.5 24.5t48.5 38t36.5 51t14.5 63.5q0 39 -16 69.5t-41.5 51.5t-57.5 32t-65 11q-32 0 -61 -10t-52 -29.5t-36.5 -49.5t-13.5 -70z" />
<glyph unicode="9" horiz-adv-x="1019" d="M932 908q0 -114 -37 -232t-105 -229.5t-164 -210t-214 -172.5q-13 16 -18.5 24t-17.5 23v-1q-19 23 -35.5 45t-36.5 45q121 79 202.5 170t125.5 194q-66 -27 -139 -27t-144 26.5t-127.5 78t-91.5 127.5t-35 175q0 93 31 170t86 133t131.5 87t168.5 31q102 0 180 -33.5 t131.5 -94.5t81 -145t27.5 -184zM487 1163q-46 0 -82 -19t-60.5 -47.5t-37.5 -62.5t-13 -65q0 -51 23.5 -93t61 -72t84 -46.5t93.5 -16.5q38 0 75 11t69 34q13 49 13 102q0 54 -15 104t-43.5 88t-71 60.5t-96.5 22.5z" />
<glyph unicode=":" horiz-adv-x="505" d="M150 668q0 20 7.5 37.5t20.5 30t30.5 20t36.5 7.5q40 0 67.5 -27.5t27.5 -67.5t-27.5 -67.5t-67.5 -27.5q-19 0 -36.5 7.5t-30.5 20t-20.5 30t-7.5 37.5zM150 976q0 20 7.5 37.5t20.5 30t30.5 20t36.5 7.5q40 0 67.5 -27.5t27.5 -67.5t-27.5 -67.5t-67.5 -27.5 q-19 0 -36.5 7.5t-30.5 20t-20.5 30t-7.5 37.5z" />
<glyph unicode=";" horiz-adv-x="593" d="M164 150v260h267v-194q0 -158 -63 -245.5t-198 -115.5v96q37 11 62 26.5t41 39t24.5 56t11.5 77.5h-145zM164 1063h266v-259h-266v259z" />
<glyph unicode="&#x3c;" horiz-adv-x="1041" d="M68 516v171l905 383v-197l-643 -271l643 -272v-197z" />
<glyph unicode="=" horiz-adv-x="810" d="M74 527q16 50 29 89t28 86q152 0 301.5 -0.5t300.5 -1.5q-8 -25 -15 -46.5t-14 -42.5l-14 -42t-14 -45zM74 140q16 50 29 89.5t28 86.5q152 -1 301.5 -1.5t300.5 -0.5q-16 -50 -29 -89.5t-28 -86.5z" />
<glyph unicode="&#x3e;" horiz-adv-x="1041" d="M973 516l-905 -383v197l643 272l-643 271v197l905 -383v-171z" />
<glyph unicode="?" horiz-adv-x="1088" d="M549 1240q-97 0 -144 -52.5t-50 -164.5h-248q3 100 34.5 179.5t88.5 135t137.5 84.5t181.5 29t182.5 -26.5t139 -75.5t88.5 -119t31 -156q0 -92 -55 -174q-55 -81 -184 -178q-47 -36 -67.5 -75.5t-20.5 -101.5q0 -5 0.5 -10t0.5 -10h-232v15q0 112 41 192q22 43 60.5 83 t93.5 78q52 36 74 77.5t22 103.5q0 75 -46.5 120.5t-127.5 45.5zM418 399h261v-249h-261v249z" />
<glyph unicode="@" horiz-adv-x="1737" d="M1170 552q45 0 83.5 27.5t67 74t45 109t16.5 133.5q0 89 -38 166.5t-103 135t-152 90.5t-186 33q-108 0 -202 -41.5t-164.5 -114t-111 -169.5t-40.5 -208t39 -208.5t107 -169.5t160 -114t198 -42q137 0 245 43q58 23 100 50t68 62h157q-77 -134 -231 -216 q-78 -42 -159 -61.5t-172 -19.5q-289 0 -488 196q-198 196 -198 480q0 282 198 479q200 197 485 197q266 0 448 -165q183 -165 183 -403q0 -200 -137 -352q-137 -150 -317 -150q-17 0 -34.5 6.5t-31.5 18.5t-23 29.5t-10 39.5q-87 -94 -190 -94q-65 0 -118 25.5t-91 70 t-59 105t-21 131.5q0 85 31.5 162t84.5 134.5t124 91.5t150 34q63 0 111 -27t85 -81l18 83h173l-116 -519q-3 -11 -3 -20q0 -14 5.5 -23t13.5 -9zM897 972q-42 0 -79.5 -20t-66.5 -53.5t-46 -77.5t-17 -92q0 -75 38 -115.5t107 -40.5q39 0 76.5 19.5t67 53.5t48 80.5 t18.5 100.5q0 66 -40 105.5t-106 39.5z" />
<glyph unicode="A" horiz-adv-x="1287" d="M36 150l452 1279h310l453 -1279h-284l-86 260h-485l-85 -260h-275zM639 1144l-169 -514h340z" />
<glyph unicode="B" horiz-adv-x="1287" d="M136 150v1279h619q92 0 165 -22t124 -64t78 -102t27 -136q0 -91 -39.5 -161.5t-120.5 -105.5q103 -37 153 -111t50 -177q0 -199 -119 -299.5t-357 -100.5h-580zM391 713v-341h325q209 0 209 182q0 159 -214 159h-320zM391 1209v-281h306q199 0 199 150q0 131 -210 131 h-295z" />
<glyph unicode="C" horiz-adv-x="1287" d="M1219 598q-12 -111 -57 -200t-117 -152t-168 -97t-211 -34q-135 0 -244 47t-185.5 133.5t-117.5 210t-41 276.5q0 156 41 282t117.5 215t185.5 137t244 48q112 0 207.5 -32t168 -91.5t118.5 -144t59 -189.5h-268q-7 51 -30 93t-60 71t-86 45t-107 16q-74 0 -133 -30.5 t-100 -88.5t-62.5 -141t-21.5 -188q0 -102 21.5 -183.5t62.5 -137.5t100 -86t133 -30q59 0 108 17.5t85.5 50t59.5 79t30 104.5h268z" />
<glyph unicode="D" horiz-adv-x="1287" d="M136 150v1279h547q264 0 401 -155t137 -453q0 -329 -142.5 -500t-417.5 -171h-525zM403 370h225q326 0 326 440q0 399 -304 399h-247v-839z" />
<glyph unicode="E" horiz-adv-x="1188" d="M136 150v1279h941v-227h-674v-272h625v-220h-625v-333h704v-227h-971z" />
<glyph unicode="F" horiz-adv-x="1088" d="M136 150v1279h910v-227h-643v-291h560v-220h-560v-541h-267z" />
<glyph unicode="G" horiz-adv-x="1386" d="M686 115q-140 0 -252.5 47t-191.5 134t-121.5 210t-42.5 276q0 156 44.5 282.5t126.5 215t199 136.5t262 48q115 0 212 -30t170 -86t119 -136t59 -180h-268q-5 42 -30.5 80t-64 67t-86.5 46t-97 17q-86 0 -155 -31t-117 -89.5t-73.5 -143t-25.5 -191.5q0 -221 92 -333 t278 -112q121 0 200 70.5t112 205.5v3h-301v220h536v-690h-178l-26 165l-16 -21q-135 -180 -364 -180z" />
<glyph unicode="H" horiz-adv-x="1287" d="M126 150v1279h267v-479h500v479h268v-1279h-268v579h-500v-579h-267z" />
<glyph unicode="I" horiz-adv-x="495" d="M114 150v1279h267v-1279h-267z" />
<glyph unicode="J" d="M596 1429h267v-920q0 -394 -412 -394q-210 0 -311.5 102.5t-101.5 316.5q0 8 0.5 14.5t0.5 14.5v77h254v-95q0 -109 37 -160t118 -51q79 0 113.5 41t34.5 134v920z" />
<glyph unicode="K" horiz-adv-x="1287" d="M155 150v1279h267v-530l490 530h341l-511 -523l545 -756h-350l-385 563l-130 -133v-430h-267z" />
<glyph unicode="L" horiz-adv-x="1088" d="M136 150v1279h267v-1052h636v-227h-903z" />
<glyph unicode="M" horiz-adv-x="1484" d="M372 150h-249v1279h391l233 -1014l230 1014h386v-1279h-249v1075l-240 -1075h-262l-240 1099v-1099z" />
<glyph unicode="N" horiz-adv-x="1287" d="M372 150h-249v1279h280l513 -897v897h250v-1279h-266l-528 921v-921z" />
<glyph unicode="O" horiz-adv-x="1386" d="M693 115q-141 0 -254.5 47t-194 133.5t-123.5 210t-43 276.5q0 156 43 282.5t123.5 215t194 136.5t254.5 48t255 -48t194 -137t123 -215t43 -282q0 -153 -43 -276.5t-123.5 -210t-194 -133.5t-254.5 -47zM693 342q82 0 146.5 30.5t109.5 87.5t68.5 139t23.5 185 q0 105 -23.5 189t-68.5 142.5t-109.5 90t-146.5 31.5t-146.5 -31t-109.5 -89.5t-68.5 -142.5t-23.5 -190q0 -104 23.5 -186t68.5 -139t109.5 -87t146.5 -30z" />
<glyph unicode="P" horiz-adv-x="1188" d="M136 150v1279h535q223 0 334.5 -101t111.5 -299q0 -211 -111.5 -316.5t-334.5 -105.5h-80q-54 0 -100 -0.5t-88 -1.5v-455h-267zM403 827h223q224 0 224 199q0 183 -224 183h-223v-382z" />
<glyph unicode="Q" horiz-adv-x="1386" d="M1176 57l-153 142q-137 -84 -330 -84q-141 0 -254.5 47t-194 133.5t-123.5 210t-43 276.5q0 156 43 282.5t123.5 215t194 136.5t254.5 48t255 -48t194 -137t123 -215t43 -282q0 -278 -135 -450l139 -131zM705 492l135 143l140 -127q61 106 61 276q0 105 -23.5 189 t-68.5 142.5t-109.5 90t-146.5 31.5t-146.5 -31t-109.5 -89.5t-68.5 -142.5t-23.5 -190t24 -188.5t70 -138.5t111.5 -85.5t149.5 -29.5q72 0 136 29z" />
<glyph unicode="R" horiz-adv-x="1287" d="M136 150v1279h644q90 0 165 -25.5t129 -72t83.5 -112.5t29.5 -146q0 -118 -50 -193.5t-150 -114.5q151 -57 157 -240l6 -210q1 -30 3.5 -51t8.5 -36t17 -25t28 -18v-34h-295q-5 10 -9.5 33t-8 54t-6 67t-3.5 73l-2 118q-1 43 -13 73.5t-38 49.5t-66 27.5t-97 8.5h-266 v-505h-267zM403 870h310q207 0 207 170q0 169 -197 169h-320v-339z" />
<glyph unicode="S" horiz-adv-x="1188" d="M829 1045q-3 46 -24 83t-56 62.5t-83.5 39.5t-106.5 14q-103 0 -160 -44.5t-57 -125.5q0 -29 11.5 -49.5t45 -38.5t94.5 -35.5t160 -39.5q135 -30 225 -63t144 -78.5t76.5 -109t22.5 -153.5t-37 -162.5t-106 -123.5t-166 -78.5t-217 -27.5q-122 0 -217.5 28.5t-162.5 84 t-104 135.5t-41 184h257q4 -103 72.5 -157.5t195.5 -54.5q131 0 201.5 41.5t70.5 114.5q0 36 -9.5 60.5t-38 43.5t-81.5 36t-139 37q-145 32 -242.5 65t-157 77.5t-84.5 104t-25 144.5q0 93 35.5 168t100.5 127.5t157.5 81t206.5 28.5q106 0 194.5 -29.5t153.5 -84.5 t104 -132t47 -173h-260z" />
<glyph unicode="T" horiz-adv-x="1088" d="M412 150v1052h-387v227h1040v-227h-386v-1052h-267z" />
<glyph unicode="U" horiz-adv-x="1287" d="M1161 632q0 -138 -29 -236t-91.5 -160.5t-160 -91.5t-235.5 -29q-263 0 -390 126.5t-127 390.5v797h267v-806q0 -275 250 -275q67 0 114.5 15.5t77 48.5t43 85t13.5 126v806h268v-797z" />
<glyph unicode="V" horiz-adv-x="1188" d="M34 1429h284l281 -977l280 977h275l-433 -1279h-254z" />
<glyph unicode="W" horiz-adv-x="1682" d="M385 150l-356 1279h278l213 -936l183 936h284l186 -928l212 928h270l-356 -1279h-254l-205 1007l-201 -1007h-254z" />
<glyph unicode="X" horiz-adv-x="1188" d="M25 150l414 647l-386 632h316l225 -413l233 413h308l-389 -612l417 -667h-319l-251 440l-252 -440h-316z" />
<glyph unicode="Y" horiz-adv-x="1188" d="M473 631l-446 798h318l266 -555l249 555h303l-423 -793v-486h-267v481z" />
<glyph unicode="Z" horiz-adv-x="1088" d="M44 374l663 828h-641v227h978v-211l-675 -841h673v-227h-998v224z" />
<glyph unicode="[" horiz-adv-x="593" d="M112 -202v1640h439v-172h-216v-1297h216v-171h-439z" />
<glyph unicode="\" horiz-adv-x="495" d="M345 115l-403 1349h209l402 -1349h-208z" />
<glyph unicode="]" horiz-adv-x="593" d="M481 -202h-438v171h215v1297h-215v172h438v-1640z" />
<glyph unicode="^" horiz-adv-x="1041" d="M611 1391l319 -663h-198l-212 464l-211 -464h-199l320 663h181z" />
<glyph unicode="_" d="M0 -73v92h991v-92h-991z" />
<glyph unicode="`" horiz-adv-x="593" d="M221 1227l-261 258h273l168 -258h-180z" />
<glyph unicode="a" d="M343 126q-66 0 -119.5 19.5t-92 55.5t-59.5 86t-21 112q0 129 71 207t212 98l165 23q28 4 54 9.5t45.5 16t31.5 27t12 43.5q0 49 -43 74.5t-121 25.5q-72 0 -112 -34.5t-42 -98.5h-240q17 332 422 332q87 0 157.5 -19t120 -55t76.5 -87.5t27 -116.5v-529q0 -32 2 -53.5 t8 -36t16 -23.5t27 -16v-35h-270q-8 29 -14 56.5t-8 55.5l-1 2q-117 -139 -304 -139zM643 500v108q-22 -11 -51 -21.5t-64 -17.5l-92 -17q-133 -25 -133 -127q0 -57 30.5 -89t84.5 -32q43 0 83.5 12t72 36t50.5 61t19 87z" />
<glyph unicode="b" horiz-adv-x="1088" d="M109 1429h249v-456l6 7q100 142 266 142q90 0 163.5 -35.5t126 -99t81 -152.5t28.5 -197q0 -115 -29 -209t-82 -161.5t-127 -104.5t-165 -37q-84 0 -147.5 33t-114.5 99l-11 14v-122h-244v1279zM559 331q100 0 157 73.5t57 210.5q0 140 -57 215.5t-157 75.5t-156.5 -79 t-56.5 -220q0 -64 14.5 -115t42 -87t67 -55t89.5 -19z" />
<glyph unicode="c" d="M934 501q-10 -89 -44 -158.5t-88.5 -117.5t-128 -73.5t-163.5 -25.5q-108 0 -191.5 32.5t-140.5 95t-87 154t-30 210.5q0 115 31.5 208t90 159t141.5 101.5t186 35.5q91 0 167.5 -26.5t132 -75t88 -116t36.5 -148.5h-255q-4 70 -49 113.5t-120 43.5q-94 0 -143 -74 t-49 -221q0 -144 49 -216t143 -72q34 0 63.5 12t51.5 34.5t36 54t18 70.5h255z" />
<glyph unicode="d" horiz-adv-x="1088" d="M464 126q-91 0 -165 37t-127 104.5t-82 162t-29 208.5q0 108 29 197.5t81.5 153t126.5 98.5t164 35q162 0 259 -136l11 -14v457h249v-1279h-242v121l-4 -6q-103 -139 -271 -139zM531 906q-100 0 -156.5 -75.5t-56.5 -215.5q0 -137 56 -210.5t156 -73.5q103 0 158.5 77.5 t55.5 221.5q0 130 -56.5 203t-156.5 73z" />
<glyph unicode="e" d="M491 126q-108 0 -192 34t-141 99t-87 160.5t-30 218.5q0 113 31 203t89 152.5t141.5 95.5t188.5 33q111 0 195 -34.5t140.5 -100.5t85.5 -162t29 -220q0 -28 -4 -43h-645q5 -64 20 -109t42 -73.5t67 -42t95 -13.5q27 0 54 8.5t49.5 23.5t38.5 35t21 43h254 q-17 -72 -55.5 -129.5t-95 -97t-130 -60.5t-161.5 -21zM681 721q-18 196 -194 196q-158 0 -192 -196h386z" />
<glyph unicode="f" horiz-adv-x="593" d="M405 922v-772h-249v772h-139v175h139v79q0 144 78 207t236 63q54 0 96 -6v-199h-79q-25 0 -41 -4t-25 -15.5t-12.5 -31.5t-3.5 -51v-42h161v-175h-161z" />
<glyph unicode="g" horiz-adv-x="1088" d="M543 -47q105 0 151 51t46 169v116l-20 -30q-83 -114 -237 -114q-93 0 -169 35t-130 98.5t-83.5 152.5t-29.5 197q0 110 29 201t81.5 156t126.5 101t164 36q191 0 278 -164v139h235v-897q0 -224 -111 -330.5t-346 -106.5q-96 0 -173.5 19t-133 55.5t-87 89t-35.5 119.5 h272q3 -48 43.5 -70.5t128.5 -22.5zM535 906q-97 0 -152 -74.5t-55 -206.5q0 -133 54.5 -204t151.5 -71q99 0 154 74t55 204q0 134 -55.5 206t-152.5 72z" />
<glyph unicode="h" horiz-adv-x="1088" d="M116 150v1279h249v-453l20 28q93 118 268 118q75 0 134 -23t100.5 -66t63.5 -105.5t22 -140.5v-637h-250v592q0 172 -154 172q-100 0 -152 -59t-52 -171v-534h-249z" />
<glyph unicode="i" horiz-adv-x="495" d="M125 150v947h250v-947h-250zM123 1438h252v-231h-252v231z" />
<glyph unicode="j" horiz-adv-x="495" d="M121 1097h250v-1051q0 -77 -15.5 -130t-50.5 -85.5t-92 -47t-140 -14.5l-68 1v199l42 -1q44 -2 59 17.5t15 60.5v1051zM119 1438h254v-231h-254v231z" />
<glyph unicode="k" d="M123 150v1279h249v-691l312 359h308l-342 -359l350 -588h-296l-228 407l-104 -109v-298h-249z" />
<glyph unicode="l" horiz-adv-x="495" d="M123 150v1279h249v-1279h-249z" />
<glyph unicode="m" horiz-adv-x="1584" d="M114 150v947h237v-153q36 91 107.5 134.5t174.5 43.5q83 0 151.5 -40t103.5 -116l31 50q76 106 225 106q77 0 138 -24t103 -68.5t64.5 -108.5t22.5 -144v-627h-250v556q0 106 -34.5 157t-107.5 51q-79 0 -120 -48t-41 -139v-577h-250v597q0 167 -149 167 q-75 0 -115.5 -48t-40.5 -139v-577h-250z" />
<glyph unicode="n" horiz-adv-x="1088" d="M116 150v947h237v-141q49 85 121.5 125.5t178.5 40.5q75 0 134 -23t100.5 -66t63.5 -105.5t22 -140.5v-637h-250v592q0 172 -154 172q-100 0 -152 -59t-52 -171v-534h-249z" />
<glyph unicode="o" horiz-adv-x="1088" d="M545 126q-111 0 -200.5 34.5t-152.5 99t-97 155t-34 203.5q0 115 34 208t97 159t152.5 101.5t200.5 35.5t200.5 -36t152.5 -102t97 -159t34 -207q0 -112 -34 -203t-97 -155t-152.5 -99t-200.5 -35zM545 334q112 0 170 72t58 215q0 146 -58 219t-170 73t-169.5 -73 t-57.5 -219q0 -143 57.5 -215t169.5 -72z" />
<glyph unicode="p" horiz-adv-x="1088" d="M110 1097h238v-141l17 24q100 142 266 142q90 0 163.5 -35t125.5 -99t80.5 -153t28.5 -197q0 -114 -28.5 -208.5t-80.5 -162t-125.5 -104.5t-163.5 -37q-166 0 -266 132l-5 7v-486h-250v1318zM559 331q100 0 157 73.5t57 210.5q0 140 -56.5 215.5t-156.5 75.5t-156 -79 t-56 -220q0 -133 55.5 -204.5t155.5 -71.5z" />
<glyph unicode="q" horiz-adv-x="1088" d="M465 126q-91 0 -165.5 35t-127.5 98t-82 152t-29 197q0 115 30 210t85 162.5t132 104.5t170 37q85 0 158.5 -45t116.5 -136v156h230v-1318h-250v482q-51 -69 -117 -102t-151 -33zM532 906q-103 0 -158.5 -75.5t-55.5 -215.5q0 -137 56.5 -210.5t156.5 -73.5 q103 0 159 77.5t56 221.5q0 130 -57 203t-157 73z" />
<glyph unicode="r" horiz-adv-x="693" d="M114 150v947h237v-170q48 97 111 147t146 48l57 -1v-255q-33 3 -75 3q-226 0 -226 -227v-492h-250z" />
<glyph unicode="s" d="M652 813q0 55 -45.5 88t-120.5 33q-72 0 -112.5 -24.5t-40.5 -69.5q0 -16 10.5 -29t35 -25t64 -23.5t97.5 -24.5q118 -26 193.5 -53.5t113.5 -58.5q78 -65 78 -192q0 -69 -29.5 -126t-83.5 -97.5t-129.5 -62.5t-167.5 -22q-223 0 -338.5 82t-123.5 245h254 q3 -66 57 -102.5t151 -36.5q75 0 117 25.5t42 71.5q0 16 -9.5 29t-31 24.5t-56.5 22.5t-87 23q-121 27 -200 54.5t-121 59.5q-81 58 -81 184q0 70 28 128t78 99.5t120.5 64t154.5 22.5q96 0 175 -22.5t135.5 -63t88 -97.5t31.5 -126h-247z" />
<glyph unicode="t" horiz-adv-x="593" d="M551 145q-32 -2 -70 -3.5t-84 -1.5q-132 0 -190 47t-58 155v580h-132v175h132v254h249v-254h153v-175h-153v-538q0 -17 4.5 -27.5t15.5 -16.5t31 -8t50 -2h52v-185z" />
<glyph unicode="u" horiz-adv-x="1088" d="M367 1097v-593q0 -88 37 -129t115 -41q100 0 151 58.5t51 170.5v534h250v-947h-238v142q-88 -166 -298 -166q-75 0 -134 22.5t-100 65.5t-62.5 105t-21.5 140v638h250z" />
<glyph unicode="v" d="M23 1097h276l202 -706l204 706h262l-341 -947h-261z" />
<glyph unicode="w" horiz-adv-x="1386" d="M292 150l-275 947h265l151 -696l142 696h250l140 -697l154 697h251l-274 -947h-255l-145 705l-149 -705h-255z" />
<glyph unicode="x" d="M27 150l322 484l-309 463h301l159 -280l159 280h292l-308 -468l321 -479h-307l-165 289l-164 -289h-301z" />
<glyph unicode="y" d="M960 1097l-339 -967q-43 -121 -77 -195t-63 -105q-58 -61 -208 -61l-119 3v200q7 -4 48 -4q44 0 72 5.5t46 21t29 45t22 77.5l-354 980h276l206 -703l200 703h261z" />
<glyph unicode="z" horiz-adv-x="891" d="M36 344l485 555h-450v198h762v-205l-473 -538h495v-204h-819v194z" />
<glyph unicode="{" horiz-adv-x="693" d="M651 -201q-36 -3 -70 -3q-171 0 -250 69.5t-79 217.5v231q0 140 -26 175t-141 50v158q115 15 141 50t26 175v231q0 148 81 217.5t254 69.5q15 0 31 -0.5t33 -1.5v-160q-3 1 -11 1h-30q-47 0 -74 -5.5t-41 -23.5t-18 -53.5t-4 -95.5v-232q0 -54 -11 -94t-34.5 -69.5 t-59 -51t-84.5 -37.5q98 -28 143.5 -86t45.5 -164v-232q0 -59 4 -94.5t17.5 -54t39.5 -24t70 -5.5q11 0 22.5 0.5t24.5 1.5v-160z" />
<glyph unicode="|" horiz-adv-x="499" d="M150 -295v1781h199v-1781h-199z" />
<glyph unicode="}" horiz-adv-x="693" d="M43 -201v160q13 -1 24 -1.5t22 -0.5q44 0 70 5.5t39.5 24t17.5 54t4 94.5v232q0 106 45.5 164t143.5 86q-50 16 -85.5 37.5t-58.5 51.5t-34 70t-11 93v232q0 60 -4 95t-18 53.5t-41 24t-73 5.5h-31q-7 0 -10 -1v160q17 1 33 1.5t31 0.5q173 0 253.5 -69.5t80.5 -217.5 v-231q0 -140 26 -175t141 -50v-158q-115 -15 -141 -50t-26 -175v-231q0 -147 -79 -216.5t-253 -69.5h-33q-8 0 -16.5 0.5t-16.5 1.5z" />
<glyph unicode="~" horiz-adv-x="1041" d="M109 598q15 36 38 64.5t52 49t62.5 31.5t69.5 11q22 0 45.5 -4t50.5 -12t59 -21t72 -31q54 -25 95.5 -40.5t58.5 -15.5q42 0 78.5 31.5t76.5 100.5l65 -159q-40 -71 -99.5 -113t-122.5 -42q-24 0 -48 4t-51 13t-58 24.5t-70 38.5q-35 20 -78.5 31.5t-81.5 11.5 q-21 0 -43 -10.5t-42 -28t-37 -41.5t-27 -51z" />
<glyph horiz-adv-x="1392" d="M498 520q0 -130 -62 -194t-177 -64h-183v510h175q60 0 106 -13t77.5 -43t47.5 -78t16 -118zM428 521q0 51 -10 87.5t-31 59.5t-54.5 33.5t-81.5 10.5h-108v-390h109q52 0 86 13t54 38.5t28 62.5t8 85zM940 262h-381v510h368v-60h-301v-156h282v-60h-282v-174h314v-60z M1322 262h-318v510h68v-450h250v-60z" />
<glyph unicode="&#xa9;" horiz-adv-x="1313" d="M657 1466q290 0 483 -193q194 -192 194 -484q0 -290 -193 -483t-484 -193q-292 0 -484 193t-192 483q0 292 192 484q193 193 484 193zM1139 789q0 110 -36.5 204.5t-101 164t-153 109t-191.5 39.5t-191 -39.5t-152.5 -109t-101 -164t-36.5 -204.5t37 -204t101.5 -163 t152.5 -108.5t190 -39.5q103 0 191.5 39.5t153 109t101 163.5t36.5 203zM1002 687q-13 -65 -41.5 -117t-70 -89t-94.5 -57t-115 -20q-83 0 -151 27.5t-116.5 77.5t-75 120.5t-26.5 156.5q0 89 26 161t74.5 123t116.5 78.5t152 27.5q65 0 120.5 -19.5t97.5 -55t68.5 -86.5 t34.5 -114h-159q-7 55 -50 87t-112 32q-88 0 -136.5 -62t-48.5 -171q0 -53 13 -95t37 -71t58.5 -45t76.5 -16q64 0 107.5 33.5t54.5 93.5h159z" />
<glyph unicode="&#xab;" horiz-adv-x="880" d="M763 22h-72q-82 97 -164 192.5t-164 192.5q84 97 164.5 189.5t164.5 189.5h64l-217 -378zM461 22h-68q-82 97 -163 192.5t-164 192.5q84 97 164.5 189.5t165.5 189.5h65l-219 -378z" />
<glyph unicode="&#xae;" horiz-adv-x="1313" d="M656 1465q291 0 483 -193q193 -193 193 -483t-193 -483q-192 -192 -483 -192t-483 192q-192 193 -192 483q0 291 192 483q193 193 483 193zM1140 789q0 110 -36.5 205t-101 164.5t-153.5 109.5t-193 40t-192 -39.5t-153 -109t-101.5 -164.5t-36.5 -206 q0 -110 36.5 -204.5t101 -164t153 -109t192.5 -39.5t193 39.5t153.5 109.5t101 164t36.5 204zM367 426v728h283q284 0 284 -207q0 -93 -40.5 -142.5t-126.5 -68.5l179 -310h-180l-168 300h-72v-300h-159zM526 851h124q124 0 124 94q0 85 -124 85h-124v-179z" />
<glyph unicode="&#xb0;" horiz-adv-x="1024" d="M509 1094l456 -457l-456 -456l-457 456zM128 637l381 -380l380 380l-380 381zM509 855l217 -218l-217 -217l-217 217z" />
<glyph unicode="&#xb1;" horiz-adv-x="901" d="M450 1043l402 -291l-153 -473h-497l-154 473l201 145zM592 430l141 103l-108 333h-350l-108 -333l283 -205zM528 727l79 -56l-60 -184h-193l-60 184l156 113z" />
<glyph unicode="&#xb6;" horiz-adv-x="891" d="M830 1379h-106v-1229h-80v1229h-173v-1229h-82v690q-78 3 -139 25.5t-103 61.5t-64 92.5t-22 118.5q0 67 24.5 122.5t69 95t106.5 61t137 21.5h432v-59z" />
<glyph unicode="&#xb7;" horiz-adv-x="1082" d="M549 98l-198 219l198 199l201 -199zM1025 581l-214 -205l-198 205l198 198zM549 1056l196 -215l-196 -198l-198 198zM74 581l212 198l198 -198l-198 -198z" />
<glyph unicode="&#xba;" horiz-adv-x="983" d="M253 1047h454l227 -393l-227 -394h-454l-227 394l113 196zM298 968l-182 -314l182 -315h364l181 315l-181 314h-364zM361 859h238l118 -205l-118 -206h-238l-118 206l59 103z" />
<glyph unicode="&#xbb;" horiz-adv-x="880" d="M335 408q-54 94 -108 189t-109 189h65q81 -95 163.5 -189.5t165.5 -189.5q-84 -99 -165 -193t-163 -192h-74zM632 408q-54 94 -109.5 189t-109.5 189h65q83 -95 165.5 -189.5t164.5 -189.5q-83 -99 -163 -193t-164 -192h-68z" />
<glyph unicode="&#xbf;" horiz-adv-x="774" d="M77 979h675v-675h-675v675z" />
<glyph unicode="&#xd7;" horiz-adv-x="1041" d="M520 457l-304 -304l-145 144l305 305l-305 304l145 144l304 -304l305 304l144 -144l-304 -304l304 -305l-144 -144z" />
<glyph unicode="&#xe0;" d="M343 126q-66 0 -119.5 19.5t-92 55.5t-59.5 86t-21 112q0 129 71 207t212 98l165 23q28 4 54 9.5t45.5 16t31.5 27t12 43.5q0 49 -43 74.5t-121 25.5q-72 0 -112 -34.5t-42 -98.5h-240q17 332 422 332q87 0 157.5 -19t120 -55t76.5 -87.5t27 -116.5v-529q0 -32 2 -53.5 t8 -36t16 -23.5t27 -16v-35h-270q-8 29 -14 56.5t-8 55.5l-1 2q-117 -139 -304 -139zM643 500v108q-22 -11 -51 -21.5t-64 -17.5l-92 -17q-133 -25 -133 -127q0 -57 30.5 -89t84.5 -32q43 0 83.5 12t72 36t50.5 61t19 87zM429 1227l-261 258h273l168 -258h-180z" />
<glyph unicode="&#xe1;" d="M343 126q-66 0 -119.5 19.5t-92 55.5t-59.5 86t-21 112q0 129 71 207t212 98l165 23q28 4 54 9.5t45.5 16t31.5 27t12 43.5q0 49 -43 74.5t-121 25.5q-72 0 -112 -34.5t-42 -98.5h-240q17 332 422 332q87 0 157.5 -19t120 -55t76.5 -87.5t27 -116.5v-529q0 -32 2 -53.5 t8 -36t16 -23.5t27 -16v-35h-270q-8 29 -14 56.5t-8 55.5l-1 2q-117 -139 -304 -139zM643 500v108q-22 -11 -51 -21.5t-64 -17.5l-92 -17q-133 -25 -133 -127q0 -57 30.5 -89t84.5 -32q43 0 83.5 12t72 36t50.5 61t19 87zM348 1227l117 258h273l-210 -258h-180z" />
<glyph unicode="&#xe7;" d="M934 501q-10 -87 -43.5 -156t-87 -117.5t-126 -74.5t-160.5 -27l-47 -72l49 6q72 0 114.5 -38.5t42.5 -101.5q0 -41 -15.5 -73.5t-44.5 -55t-70 -35t-92 -12.5q-49 0 -104 12.5t-100 34.5l39 83q43 -14 79.5 -21.5t57.5 -7.5q35 0 59.5 20.5t24.5 49.5t-19.5 46.5 t-50.5 17.5q-26 0 -71 -14l-38 36l87 131q-87 13 -153.5 51.5t-111.5 100.5t-68.5 146t-23.5 188q0 115 31.5 208t90 159t141.5 101.5t186 35.5q91 0 167.5 -26.5t132 -75t88 -116t36.5 -148.5h-255q-4 70 -49 113.5t-120 43.5q-94 0 -143 -74t-49 -221q0 -144 49 -216 t143 -72q34 0 63.5 12t51.5 34.5t36 54t18 70.5h255z" />
<glyph unicode="&#xe8;" d="M491 126q-108 0 -192 34t-141 99t-87 160.5t-30 218.5q0 113 31 203t89 152.5t141.5 95.5t188.5 33q111 0 195 -34.5t140.5 -100.5t85.5 -162t29 -220q0 -28 -4 -43h-645q5 -64 20 -109t42 -73.5t67 -42t95 -13.5q27 0 54 8.5t49.5 23.5t38.5 35t21 43h254 q-17 -72 -55.5 -129.5t-95 -97t-130 -60.5t-161.5 -21zM681 721q-18 196 -194 196q-158 0 -192 -196h386zM444 1227l-261 258h273l168 -258h-180z" />
<glyph unicode="&#xe9;" d="M491 126q-108 0 -192 34t-141 99t-87 160.5t-30 218.5q0 113 31 203t89 152.5t141.5 95.5t188.5 33q111 0 195 -34.5t140.5 -100.5t85.5 -162t29 -220q0 -28 -4 -43h-645q5 -64 20 -109t42 -73.5t67 -42t95 -13.5q27 0 54 8.5t49.5 23.5t38.5 35t21 43h254 q-17 -72 -55.5 -129.5t-95 -97t-130 -60.5t-161.5 -21zM681 721q-18 196 -194 196q-158 0 -192 -196h386zM403 1227l168 258h273l-261 -258h-180z" />
<glyph unicode="&#xea;" d="M491 126q-108 0 -192 34t-141 99t-87 160.5t-30 218.5q0 113 31 203t89 152.5t141.5 95.5t188.5 33q111 0 195 -34.5t140.5 -100.5t85.5 -162t29 -220q0 -28 -4 -43h-645q5 -64 20 -109t42 -73.5t67 -42t95 -13.5q27 0 54 8.5t49.5 23.5t38.5 35t21 43h254 q-17 -72 -55.5 -129.5t-95 -97t-130 -60.5t-161.5 -21zM620 1485l202 -258h-200l-113 145l-113 -145h-200l202 258h222zM681 721q-18 196 -194 196q-158 0 -192 -196h386z" />
<glyph unicode="&#xf4;" horiz-adv-x="1088" d="M545 126q-111 0 -200.5 34.5t-152.5 99t-97 155t-34 203.5q0 115 34 208t97 159t152.5 101.5t200.5 35.5t200.5 -36t152.5 -102t97 -159t34 -207q0 -112 -34 -203t-97 -155t-152.5 -99t-200.5 -35zM545 334q112 0 170 72t58 215q0 146 -58 219t-170 73t-169.5 -73 t-57.5 -219q0 -143 57.5 -215t169.5 -72zM656 1485l202 -258h-200l-113 145l-113 -145h-201l202 258h223z" />
<glyph unicode="&#xf7;" horiz-adv-x="1041" d="M71 705h898v-207h-898v207zM520 388q33 0 61.5 -12.5t50.5 -34t34.5 -50t12.5 -61.5t-12.5 -61.5t-34.5 -50t-50.5 -34t-61.5 -12.5t-61.5 12.5t-50 34t-34 50t-12.5 61.5t12.5 61.5t34 50t50 34t61.5 12.5zM520 1131q33 0 61.5 -12.5t50.5 -34t34.5 -50t12.5 -61.5 t-12.5 -61.5t-34.5 -50t-50.5 -34t-61.5 -12.5t-61.5 12.5t-50 34t-34 50t-12.5 61.5t12.5 61.5t34 50t50 34t61.5 12.5z" />
<glyph unicode="&#x153;" horiz-adv-x="1682" d="M525 1122q202 -2 324 -121q119 119 325 121q111 0 195 -34.5t140.5 -100.5t85.5 -162t29 -220q0 -28 -4 -43h-630q5 -63 20 -108t42.5 -74t67.5 -42.5t96 -13.5q24 0 48 8.5t44 23.5t34.5 35t19.5 43h254q-17 -74 -55.5 -131t-96 -96.5t-132.5 -60t-163 -20.5 q-202 0 -317 121q-124 -121 -327 -121q-107 0 -193 34.5t-146 99t-92.5 155t-32.5 203.5q0 115 32.5 208t92.5 159t146 101.5t193 35.5zM534 913q-106 0 -161 -73t-55 -219q0 -143 55 -215t161 -72t161.5 72t55.5 215q0 144 -54 218t-163 74zM1382 721q-18 196 -195 196 q-162 0 -193 -196h388z" />
<glyph unicode="&#x60c;" horiz-adv-x="433" d="M194 167q-34 0 -57.5 10t-38 28t-21 42.5t-6.5 53.5q0 45 15.5 99t37.5 104.5t47 91t44 59.5q1 1 4 1q5 0 14 -5t18.5 -12.5t18 -17.5t11.5 -20q-12 -21 -26 -48t-26 -55.5t-20.5 -56.5t-8.5 -52q0 -14 4 -31.5t13.5 -33t25 -28t38.5 -15.5z" />
<glyph unicode="&#x61b;" horiz-adv-x="505" d="M255 464q-34 0 -55.5 11.5t-33.5 31.5t-16 46t-4 55q0 45 13.5 91t33.5 86.5t43 73t42 51.5q1 1 4 1q5 0 14 -5t18.5 -13t18 -17.5t11.5 -19.5q-12 -21 -26 -48t-26 -55.5t-20.5 -56.5t-8.5 -52q0 -27 17.5 -47.5t64.5 -28.5zM155 259q0 20 7.5 37.5t20.5 30t30.5 20 t36.5 7.5q40 0 67.5 -27.5t27.5 -67.5t-27.5 -67.5t-67.5 -27.5q-19 0 -36.5 7.5t-30.5 20t-20.5 30t-7.5 37.5z" />
<glyph unicode="&#x61f;" horiz-adv-x="886" d="M650 1482q-106 79 -178.5 113t-119.5 34q-15 0 -26 -1.5t-18.5 -8t-11.5 -19t-4 -34.5q0 -45 11 -107t29.5 -133.5t42 -148t48 -150t48.5 -140.5t43 -119t31.5 -85t14.5 -39q1 -3 4 -15t4 -15l-135 -103q-5 13 -10 27.5t-9.5 29.5t-8.5 28.5t-7 23.5v-1q-16 45 -40 114 t-50.5 151.5t-53.5 173.5t-48.5 181t-35 173.5t-13.5 151.5q0 47 7 82.5t25 54.5v-1q33 36 77.5 56.5t101.5 20.5q72 0 167.5 -39.5t220.5 -127.5l-64 -118zM363 259q0 20 7.5 37.5t20.5 30t30.5 20t36.5 7.5q40 0 67.5 -27.5t27.5 -67.5t-27.5 -67.5t-67.5 -27.5 q-19 0 -36.5 7.5t-30.5 20t-20.5 30t-7.5 37.5z" />
<glyph unicode="&#x621;" horiz-adv-x="1095" d="M761 817q-104 52 -185 75t-143 23q-52 0 -93 -13.5t-69 -37.5t-42.5 -56.5t-14.5 -70.5q0 -48 23 -98.5t69 -98t116 -88t165 -68.5q92 53 193 112t192 112l75 -134l-873 -507l-76 135l314 181q-70 31 -125 70t-96.5 82.5t-69 90.5t-42.5 95q-9 29 -13 57.5t-5 57.5 q0 67 24.5 127.5t72 105.5t117 71.5t158.5 26.5q79 0 177.5 -26t219.5 -86z" />
<glyph unicode="&#x622;" horiz-adv-x="407" d="M284 1786v-1258q0 -103 -23.5 -192t-67.5 -161l-129 79q31 55 49 123.5t18 150.5v1258h153zM11 1901q0 15 6.5 35t20.5 37t36 29t54 12q15 0 35 -4t41.5 -9.5t43 -9.5t39.5 -4q48 0 125 72q-39 -164 -132 -164q-16 0 -35.5 4t-39.5 9t-39.5 9t-34.5 4q-55 0 -89 -34z" />
<glyph unicode="&#x623;" horiz-adv-x="407" d="M285 1786v-1258q0 -103 -24 -192t-67 -161l-130 79q31 55 49 124t18 150v1258h154zM221 2101q-17 11 -38 18.5t-38 7.5q-14 0 -22 -5.5t-8 -16.5q0 -36 20 -53t77 -17q23 14 53.5 32t51.5 30l43 -69l-266 -154l-44 70l55 31q-39 23 -57 56t-18 66q0 22 8 42t22.5 35.5 t35 24.5t46.5 9q23 0 50.5 -8t58.5 -27z" />
<glyph unicode="&#x624;" horiz-adv-x="860" d="M429 1296q70 -4 125.5 -28t99 -64t74.5 -93t51 -114.5t30.5 -128.5t11.5 -134q0 -136 -13.5 -263t-47.5 -239.5t-92.5 -205.5t-148 -160t-213.5 -104t-289 -37v155q103 0 186 17.5t148.5 49.5t114.5 75.5t82 96.5q12 22 23.5 45.5t22.5 48.5q-75 -45 -174 -45 q-67 0 -121.5 24t-97.5 65.5t-74.5 96.5t-52.5 117t-31 127.5t-10 126.5q0 57 9 121.5t28 128t50 121.5t74.5 102.5t101.5 71t132 26.5h1zM668 725q-2 70 -13.5 142.5t-38.5 132.5t-72 99.5t-113 42.5q-48 0 -84.5 -20.5t-63.5 -54.5t-45.5 -77.5t-29.5 -89.5t-16 -91 t-5 -82q0 -44 6 -90.5t19 -91.5t32.5 -85.5t46 -71t61 -48.5t76.5 -18q58 0 103 34.5t75 91t45.5 129t16.5 148.5zM409 1648q-20 14 -46 22.5t-47 8.5q-17 0 -27 -6t-10 -20q0 -21 5.5 -37.5t19 -27t36.5 -16t58 -5.5q14 8 31 18.5t34.5 21t33.5 20t29 16.5l53 -84 l-326 -189l-54 86l68 38q-48 29 -70 68.5t-22 79.5q0 27 9.5 52t27 43.5t43 30t57.5 11.5q29 0 62 -10t71 -33z" />
<glyph unicode="&#x625;" horiz-adv-x="407" d="M285 1786v-1258q0 -103 -23.5 -192t-67.5 -161l-129 79q31 55 49 124t18 150v1258h153zM226 -68q-17 11 -38 18.5t-38 7.5q-14 0 -22 -5.5t-8 -16.5q0 -36 20 -53t77 -17q23 14 53.5 32t51.5 30l43 -69l-266 -154l-44 70l55 31q-39 23 -57 56t-18 66q0 22 8 42t22.5 35.5 t35 24.5t46.5 9q23 0 50.5 -8t58.5 -27z" />
<glyph unicode="&#x626;" horiz-adv-x="1340" d="M1086 1142q-125 0 -214.5 -15.5t-146.5 -42t-84 -62.5t-27 -77q0 -38 17.5 -80t48.5 -83.5t73.5 -81.5t93.5 -75q32 -22 68 -48.5t73 -56t73.5 -62.5t69.5 -68q72 -78 119 -168.5t51 -193.5q0 -66 -22 -120.5t-61 -98.5t-92.5 -77t-116 -55t-132 -33t-140.5 -11 q-165 0 -274.5 40.5t-175 111.5t-93 167t-27.5 206q0 61 8 127.5t21 135t30.5 137.5t35.5 137l149 -41q-18 -63 -34 -128t-28.5 -128.5t-20 -124t-7.5 -115.5q0 -77 18.5 -144.5t65.5 -118t127.5 -79.5t204.5 -29q76 0 149.5 15t131 45t93.5 75t36 104q-2 69 -38.5 135.5 t-90.5 125.5q-28 30 -61 58.5t-67 55t-67.5 51t-61.5 45.5q-45 31 -86.5 68.5t-76.5 77.5t-63 81t-45 81q-14 35 -21.5 71t-7.5 70q0 70 34 133.5t108.5 111.5t193.5 76.5t289 28.5v-154zM196 1027q-20 14 -46 22.5t-47 8.5q-17 0 -27 -6t-10 -20q0 -21 5.5 -37.5t19 -27 t36.5 -16t58 -5.5q14 8 31 18.5t34.5 21t33.5 20t29 16.5l53 -84l-326 -189l-54 86l68 38q-48 29 -70 68.5t-22 79.5q0 27 9.5 52t27 43.5t43 30t57.5 11.5q29 0 62 -10t71 -33z" />
<glyph unicode="&#x627;" horiz-adv-x="407" d="M283 1786v-1258q0 -103 -23.5 -192t-67.5 -161l-129 79q31 55 49 124t18 150v1258h153z" />
<glyph unicode="&#x628;" horiz-adv-x="1350" d="M1160 1222q8 -28 17 -51.5t16 -37.5q21 -50 40 -104.5t33 -111.5t22 -114t9 -112q0 -59 -12 -118t-36.5 -115t-63 -108t-91.5 -97q-53 -42 -114.5 -74.5t-128.5 -55t-136 -34.5t-137 -12q-64 0 -128 9.5t-122.5 30t-109.5 52.5t-88.5 76.5t-59 102.5t-21.5 130 q0 63 22.5 142t72.5 176l136 -69q-76 -156 -76 -251q0 -69 34 -116.5t88 -76t121 -41t133 -12.5q113 0 221.5 35.5t193.5 105.5q80 66 113.5 146.5t33.5 171.5q0 50 -8.5 99.5t-22 99t-30.5 98.5t-34 97v-1q-3 7 -7 19.5t-9 25t-9 24.5t-7 20zM543 -177q0 20 8 37.5t21 30 t30 20t36 7.5q40 0 67.5 -27.5t27.5 -67.5q0 -20 -7.5 -37t-20 -30t-30 -20.5t-37.5 -7.5q-19 0 -36 7.5t-30 20.5t-21 30t-8 37z" />
<glyph unicode="&#x629;" horiz-adv-x="860" d="M743 1182q32 -48 46.5 -112t14.5 -137q0 -84 -18 -174.5t-49 -178t-73.5 -166.5t-92 -138.5t-103.5 -94.5t-109 -35q-61 0 -117.5 46.5t-101.5 153.5t-74.5 280.5t-37.5 427.5v42l35 24q144 95 256.5 137.5t195.5 42.5q79 0 135 -31.5t93 -86.5zM615 1097 q-15 23 -40.5 36t-63.5 13q-56 0 -136.5 -30.5t-190.5 -99.5q8 -199 25.5 -335.5t41 -220.5t51.5 -121.5t58 -39.5q32 3 66 34t66.5 80.5t61.5 113t50.5 133t34.5 140.5t13 134q0 50 -8.5 92t-28.5 71zM88 1516q0 20 7.5 37.5t20.5 30t30.5 20t36.5 7.5q40 0 67.5 -27.5 t27.5 -67.5q0 -20 -7.5 -37t-20 -30t-30 -20.5t-37.5 -7.5q-19 0 -36.5 7.5t-30.5 20.5t-20.5 30t-7.5 37zM317 1516q0 20 7.5 37.5t20.5 30t30.5 20t36.5 7.5q40 0 67.5 -27.5t27.5 -67.5q0 -20 -7.5 -37t-20 -30t-30 -20.5t-37.5 -7.5q-19 0 -36.5 7.5t-30.5 20.5 t-20.5 30t-7.5 37z" />
<glyph unicode="&#x62a;" horiz-adv-x="1350" d="M1160 1222q8 -28 17 -51.5t16 -37.5q21 -50 40 -104.5t33 -111.5t22 -114t9 -112q0 -59 -12 -118t-36.5 -115t-63 -108t-91.5 -97q-53 -42 -114.5 -74.5t-128.5 -55t-136 -34.5t-137 -12q-64 0 -128 9.5t-122.5 30t-109.5 52.5t-88.5 76.5t-59 102.5t-21.5 130 q0 63 22.5 142t72.5 176l136 -69q-76 -156 -76 -251q0 -69 34 -116.5t88 -76t121 -41t133 -12.5q113 0 221.5 35.5t193.5 105.5q80 66 113.5 146.5t33.5 171.5q0 50 -8.5 99.5t-22 99t-30.5 98.5t-34 97v-1q-3 7 -7 19.5t-9 25t-9 24.5t-7 20zM365 1256q0 20 7.5 37.5 t20.5 30t30.5 20t36.5 7.5q40 0 67.5 -27.5t27.5 -67.5q0 -20 -7.5 -37t-20 -30t-30 -20.5t-37.5 -7.5q-19 0 -36.5 7.5t-30.5 20.5t-20.5 30t-7.5 37zM594 1256q0 20 7.5 37.5t20.5 30t30.5 20t36.5 7.5q40 0 67.5 -27.5t27.5 -67.5q0 -20 -7.5 -37t-20 -30t-30 -20.5 t-37.5 -7.5q-19 0 -36.5 7.5t-30.5 20.5t-20.5 30t-7.5 37z" />
<glyph unicode="&#x62b;" horiz-adv-x="1350" d="M1160 1222q8 -28 17 -51.5t16 -37.5q21 -50 40 -104.5t33 -111.5t22 -114t9 -112q0 -59 -12 -118t-36.5 -115t-63 -108t-91.5 -97q-53 -42 -114.5 -74.5t-128.5 -55t-136 -34.5t-137 -12q-64 0 -128 9.5t-122.5 30t-109.5 52.5t-88.5 76.5t-59 102.5t-21.5 130 q0 63 22.5 142t72.5 176l136 -69q-76 -156 -76 -251q0 -69 34 -116.5t88 -76t121 -41t133 -12.5q113 0 221.5 35.5t193.5 105.5q80 66 113.5 146.5t33.5 171.5q0 50 -8.5 99.5t-22 99t-30.5 98.5t-34 97v-1q-3 7 -7 19.5t-9 25t-9 24.5t-7 20zM516 1624q0 20 7.5 37.5 t20.5 30t30.5 20t36.5 7.5q40 0 67.5 -27.5t27.5 -67.5t-27.5 -67.5t-67.5 -27.5q-19 0 -36.5 7.5t-30.5 20t-20.5 30t-7.5 37.5zM662 1387q0 19 7.5 36.5t20.5 30.5t30.5 20.5t36.5 7.5q20 0 37.5 -7.5t30 -20.5t20 -30.5t7.5 -36.5q0 -40 -27.5 -67.5t-67.5 -27.5 q-19 0 -36.5 7.5t-30.5 20t-20.5 30t-7.5 37.5zM381 1387q0 19 7.5 36.5t20.5 30.5t30.5 20.5t36.5 7.5t36.5 -7.5t30.5 -20.5t20.5 -30.5t7.5 -36.5q0 -20 -7.5 -37.5t-20.5 -30t-30.5 -20t-36.5 -7.5t-36.5 7.5t-30.5 20t-20.5 30t-7.5 37.5z" />
<glyph unicode="&#x62c;" horiz-adv-x="1027" d="M38 1132q86 89 157 128.5t131 39.5q49 0 91.5 -20.5t81.5 -57.5q41 -40 76 -100t65.5 -130.5t57.5 -148t53 -153.5q2 -5 2.5 -6.5l0.5 -1.5l0.5 -1.5t2.5 -6.5q31 9 68.5 18.5t63.5 15.5l37 -148q-141 -34 -256.5 -86t-203.5 -113.5t-148 -130t-91 -135.5 q-31 -68 -31 -123q0 -39 16.5 -71.5t50 -56t84.5 -36.5t120 -13q85 0 201.5 24t268.5 78l52 -144q-166 -58 -295 -84.5t-228 -26.5q-109 0 -189 26t-132 70.5t-77 104t-25 127.5q0 89 45 188q29 63 77 127t114 124t149.5 113.5t183.5 97.5q-7 18 -13 38.5t-8 26.5l1 -1 q-29 82 -58.5 163.5t-62 146.5t-68.5 106t-77 41q-30 0 -74 -26.5t-104 -89.5zM432 74q0 20 8 37.5t21 30t30 20t36 7.5q40 0 67.5 -27.5t27.5 -67.5t-27.5 -67.5t-67.5 -27.5q-19 0 -36 7.5t-30 20t-21 30t-8 37.5z" />
<glyph unicode="&#x62d;" horiz-adv-x="1027" d="M38 1132q86 89 157 128.5t131 39.5q49 0 91.5 -20.5t81.5 -57.5q41 -40 76 -100t65.5 -130.5t57.5 -148t53 -153.5q2 -5 2.5 -6.5l0.5 -1.5l0.5 -1.5t2.5 -6.5q31 9 68.5 18.5t63.5 15.5l37 -148q-141 -34 -256.5 -86t-203.5 -113.5t-148 -130t-91 -135.5 q-31 -68 -31 -123q0 -39 16.5 -71.5t50 -56t84.5 -36.5t120 -13q85 0 201.5 24t268.5 78l52 -144q-166 -58 -295 -84.5t-228 -26.5q-109 0 -189 26t-132 70.5t-77 104t-25 127.5q0 89 45 188q29 63 77 127t114 124t149.5 113.5t183.5 97.5q-7 18 -13 38.5t-8 26.5l1 -1 q-29 82 -58.5 163.5t-62 146.5t-68.5 106t-77 41q-30 0 -74 -26.5t-104 -89.5z" />
<glyph unicode="&#x62e;" horiz-adv-x="1027" d="M38 1132q86 89 157 128.5t131 39.5q49 0 91.5 -20.5t81.5 -57.5q41 -40 76 -100t65.5 -130.5t57.5 -148t53 -153.5q2 -5 2.5 -6.5l0.5 -1.5l0.5 -1.5t2.5 -6.5q31 9 68.5 18.5t63.5 15.5l37 -148q-141 -34 -256.5 -86t-203.5 -113.5t-148 -130t-91 -135.5 q-31 -68 -31 -123q0 -39 16.5 -71.5t50 -56t84.5 -36.5t120 -13q85 0 201.5 24t268.5 78l52 -144q-166 -58 -295 -84.5t-228 -26.5q-109 0 -189 26t-132 70.5t-77 104t-25 127.5q0 89 45 188q29 63 77 127t114 124t149.5 113.5t183.5 97.5q-7 18 -13 38.5t-8 26.5l1 -1 q-29 82 -58.5 163.5t-62 146.5t-68.5 106t-77 41q-30 0 -74 -26.5t-104 -89.5zM342 1500q0 20 7.5 37.5t20.5 30t30.5 20t36.5 7.5q40 0 67.5 -27.5t27.5 -67.5t-27.5 -67.5t-67.5 -27.5q-19 0 -36.5 7.5t-30.5 20t-20.5 30t-7.5 37.5z" />
<glyph unicode="&#x62f;" horiz-adv-x="813" d="M207 1283q77 0 149 -37t134.5 -102.5t114 -154.5t88.5 -192.5t57.5 -217.5t21.5 -228v-38t-1 -61q-113 -41 -205 -67.5t-176 -37.5q-35 -5 -71.5 -8.5t-73.5 -3.5q-46 0 -100 5t-122 18l28 150q54 -9 98.5 -14t82.5 -5q33 0 67.5 2.5t69.5 7.5q65 9 126 24.5t124 37.5 q-2 92 -17 183.5t-41.5 175.5t-62 157.5t-77 128t-87.5 87.5t-93 37h-34v153z" />
<glyph unicode="&#x630;" horiz-adv-x="813" d="M207 1283q77 0 149 -37t134.5 -102.5t114 -154.5t88.5 -192.5t57.5 -217.5t21.5 -228v-38t-1 -61q-113 -41 -205 -67.5t-176 -37.5q-35 -5 -71.5 -8.5t-73.5 -3.5q-46 0 -100 5t-122 18l28 150q54 -9 98.5 -14t82.5 -5q33 0 67.5 2.5t69.5 7.5q65 9 126 24.5t124 37.5 q-2 92 -17 183.5t-41.5 175.5t-62 157.5t-77 128t-87.5 87.5t-93 37h-34v153zM322 1500q0 20 7.5 37.5t20.5 30t30.5 20t36.5 7.5q40 0 67.5 -27.5t27.5 -67.5t-27.5 -67.5t-67.5 -27.5q-19 0 -36.5 7.5t-30.5 20t-20.5 30t-7.5 37.5z" />
<glyph unicode="&#x631;" horiz-adv-x="605" d="M333 1133q103 -232 152 -421t49 -339q0 -106 -22 -195t-64 -163q-43 -75 -108 -129.5t-146 -91.5q-75 -35 -172 -52t-210 -17v155q203 0 321 53q119 53 181 160q32 55 49 125t17 155q0 136 -45.5 308.5t-141.5 387.5z" />
<glyph unicode="&#x632;" horiz-adv-x="605" d="M333 1133q103 -232 152 -421t49 -339q0 -106 -22 -195t-64 -163q-43 -75 -108 -129.5t-146 -91.5q-75 -35 -172 -52t-210 -17v155q203 0 321 53q119 53 181 160q32 55 49 125t17 155q0 136 -45.5 308.5t-141.5 387.5zM72 1354q0 20 7.5 37.5t20.5 30t30.5 20t36.5 7.5 q40 0 67.5 -27.5t27.5 -67.5q0 -20 -7.5 -37t-20 -30t-30 -20.5t-37.5 -7.5q-19 0 -36.5 7.5t-30.5 20.5t-20.5 30t-7.5 37z" />
<glyph unicode="&#x633;" horiz-adv-x="2209" d="M913 88q40 66 63 150t25 187q0 185 1 382.5t1 383.5h154v-536q0 -76 12 -136.5t34 -102.5t51.5 -65t64.5 -25q32 4 61 28t51 66t35 101t13 133v537h154v-536q0 -73 12.5 -131.5t35 -101t53.5 -67t69 -29.5q52 0 87.5 20.5t56.5 55t30 81.5t9 100q0 58 -9 122t-23 128 t-31.5 126t-35 116.5t-33 98t-25.5 71.5l144 52q11 -31 28 -78t35.5 -105.5t37 -125.5t33.5 -137t24 -140t9 -134q0 -83 -16 -155.5t-54 -127t-101 -87t-156 -34.5q-88 2 -151.5 41t-105.5 108q-39 -66 -94 -103.5t-121 -45.5l-44 1q-92 9 -160 77q-25 -119 -77 -215 t-123.5 -164t-158.5 -105t-183 -37q-100 0 -195.5 45t-170.5 138t-121 236.5t-46 341.5q0 14 0.5 33t1.5 39t2 39.5t2 34.5l154 -10q-1 -15 -2 -33t-2 -37t-1.5 -36.5t-0.5 -30.5q0 -158 32.5 -272.5t85.5 -188.5t122 -109.5t141 -35.5q46 0 91.5 14t86 40.5t76 64.5 t62.5 85z" />
<glyph unicode="&#x634;" horiz-adv-x="2209" d="M913 88q40 66 63 150t25 187q0 186 1 383t1 383h154v-536q0 -76 12 -136.5t34 -102.5t51.5 -65t64.5 -25q32 4 61 28t51 66t35 101t13 133v537h154v-536q0 -73 12.5 -131.5t35 -101t53.5 -67t69 -29.5q52 0 87.5 20.5t56.5 55t30 81.5t9 100q0 58 -9 122t-23 128 t-31.5 126t-35 116.5t-33 98t-25.5 71.5l144 52q11 -31 28 -78t35.5 -105.5t37 -125.5t33.5 -137t24 -140t9 -134q0 -83 -16 -155.5t-54 -127t-101 -87t-156 -34.5q-88 2 -151.5 41t-105.5 108q-39 -66 -94 -103.5t-121 -45.5l-44 1q-92 9 -160 77q-25 -119 -77 -215 t-123.5 -164t-158.5 -105t-183 -37q-100 0 -195.5 45t-170.5 138t-121 236.5t-46 341.5q0 14 0.5 33t1.5 39t2 39.5t2 34.5l154 -10q-1 -15 -2 -33t-2 -37t-1.5 -36.5t-0.5 -30.5q0 -158 32.5 -272.5t85.5 -188.5t122 -109.5t141 -35.5q46 0 91.5 14t86 40.5t76 64.5 t62.5 85zM1449 1727q0 20 7.5 37.5t20.5 30t30.5 20t36.5 7.5q40 0 67.5 -27.5t27.5 -67.5t-27.5 -67.5t-67.5 -27.5q-19 0 -36.5 7.5t-30.5 20t-20.5 30t-7.5 37.5zM1595 1490q0 19 7.5 36.5t20.5 30.5t30.5 20.5t36.5 7.5q20 0 37.5 -7.5t30 -20.5t20 -30.5t7.5 -36.5 q0 -40 -27.5 -67.5t-67.5 -27.5q-19 0 -36.5 7.5t-30.5 20t-20.5 30t-7.5 37.5zM1314 1490q0 19 7.5 36.5t20.5 30.5t30.5 20.5t36.5 7.5t36.5 -7.5t30.5 -20.5t20.5 -30.5t7.5 -36.5q0 -20 -7.5 -37.5t-20.5 -30t-30.5 -20t-36.5 -7.5t-36.5 7.5t-30.5 20t-20.5 30 t-7.5 37.5z" />
<glyph unicode="&#x635;" horiz-adv-x="1950" d="M924 1224q54 -103 92.5 -193t64.5 -171q73 222 177.5 334t246.5 117q87 -7 158.5 -49t121.5 -109t77.5 -153.5t27.5 -181.5q0 -119 -37.5 -233.5t-107.5 -205t-168.5 -147t-220.5 -59.5h-244q-14 -45 -32 -86.5t-39 -76.5v1q-38 -66 -87.5 -118t-107.5 -88t-123 -55.5 t-132 -19.5q-100 0 -195.5 45t-170.5 138t-121 236.5t-46 341.5q0 14 0.5 33t1.5 39t2 39.5t2 34.5l154 -10q-1 -15 -2 -33t-2 -37t-1.5 -36.5t-0.5 -30.5q0 -158 32.5 -272.5t85.5 -188.5t122 -109.5t141 -35.5q82 0 155 40t128.5 113.5t88 177t32.5 229.5q0 141 -48.5 318 t-160.5 391zM1736 824q-1 64 -17.5 121t-46.5 101t-72.5 73t-96.5 38q-47 -3 -87.5 -33.5t-75 -79.5t-63.5 -111t-53 -127.5t-43.5 -129.5t-35.5 -117q3 -29 4 -56t1 -56q0 -33 -2 -62.5t-5 -58.5h210q88 4 159 49.5t120.5 115.5t76.5 157t27 176z" />
<glyph unicode="&#x636;" horiz-adv-x="1950" d="M924 1224q54 -103 92.5 -193t64.5 -171q73 222 177.5 334t246.5 117q87 -7 158.5 -49t121.5 -109t77.5 -153.5t27.5 -181.5q0 -119 -37.5 -233.5t-107.5 -205t-168.5 -147t-220.5 -59.5h-244q-14 -45 -32 -86.5t-39 -76.5v1q-38 -66 -87.5 -118t-107.5 -88t-123 -55.5 t-132 -19.5q-100 0 -195.5 45t-170.5 138t-121 236.5t-46 341.5q0 14 0.5 33t1.5 39t2 39.5t2 34.5l154 -10q-1 -15 -2 -33t-2 -37t-1.5 -36.5t-0.5 -30.5q0 -158 32.5 -272.5t85.5 -188.5t122 -109.5t141 -35.5q82 0 155 40t128.5 113.5t88 177t32.5 229.5q0 141 -48.5 318 t-160.5 391zM1736 824q-1 64 -17.5 121t-46.5 101t-72.5 73t-96.5 38q-47 -3 -87.5 -33.5t-75 -79.5t-63.5 -111t-53 -127.5t-43.5 -129.5t-35.5 -117q3 -29 4 -56t1 -56q0 -33 -2 -62.5t-5 -58.5h210q88 4 159 49.5t120.5 115.5t76.5 157t27 176zM1023 1498q0 20 7.5 37.5 t20.5 30t30.5 20t36.5 7.5q40 0 67.5 -27.5t27.5 -67.5t-27.5 -67.5t-67.5 -27.5q-19 0 -36.5 7.5t-30.5 20t-20.5 30t-7.5 37.5z" />
<glyph unicode="&#x637;" horiz-adv-x="1095" d="M304 937q29 76 69.5 144t87.5 119t100 81t108 30q62 0 129 -32.5t123 -96t92.5 -156t36.5 -212.5q0 -78 -17 -155.5t-49 -148t-78.5 -131t-105.5 -106t-130 -72t-152 -28.5h-449v153h81v1460h154v-849zM808 1080q-63 57 -117 57q-42 0 -80.5 -25.5t-73.5 -69t-66 -101.5 t-56.5 -123.5t-46 -134t-34.5 -133.5t-21.5 -122t-7.5 -100q1 -1 1 -2h209q84 4 154.5 48t121 112t78.5 153.5t28 173.5q0 91 -26 157.5t-64 111.5z" />
<glyph unicode="&#x638;" horiz-adv-x="1095" d="M304 937q29 76 69.5 144t87.5 119t100 81t108 30q62 0 129 -32.5t123 -96t92.5 -156t36.5 -212.5q0 -78 -17 -155.5t-49 -148t-78.5 -131t-105.5 -106t-130 -72t-152 -28.5h-449v153h81v1460h154v-849zM808 1080q-63 57 -117 57q-42 0 -80.5 -25.5t-73.5 -69t-66 -101.5 t-56.5 -123.5t-46 -134t-34.5 -133.5t-21.5 -122t-7.5 -100q1 -1 1 -2h209q84 4 154.5 48t121 112t78.5 153.5t28 173.5q0 91 -26 157.5t-64 111.5zM398 1498q0 20 7.5 37.5t20.5 30t30.5 20t36.5 7.5q40 0 67.5 -27.5t27.5 -67.5t-27.5 -67.5t-67.5 -27.5q-19 0 -36.5 7.5 t-30.5 20t-20.5 30t-7.5 37.5z" />
<glyph unicode="&#x639;" horiz-adv-x="1027" d="M241 632q-49 46 -71 96.5t-22 102.5q0 74 36.5 145.5t96.5 134.5q37 40 86 78t103.5 67.5t112 47.5t113.5 18q47 0 86.5 -14t68.5 -42.5t45 -72t16 -103.5q0 -23 -3.5 -53t-9.5 -68l-152 28q5 34 8 56t3 33q0 45 -16.5 63t-43.5 18q-47 0 -94 -16t-91 -42.5t-82 -61 t-66 -71.5t-44 -74.5t-16 -69.5q0 -23 9.5 -45.5t31.5 -42.5l176 -165q75 39 165.5 71.5t197.5 57.5l37 -148q-141 -34 -256.5 -86t-203.5 -113.5t-148 -130t-91 -135.5q-31 -68 -31 -123q0 -39 16.5 -71.5t50 -56t84.5 -36.5t120 -13q85 0 201.5 24t268.5 78l52 -144 q-166 -58 -295 -84.5t-228 -26.5q-109 0 -189 26t-132 70.5t-77 104t-25 127.5q0 89 45 188q39 87 116.5 175t183.5 163z" />
<glyph unicode="&#x63a;" horiz-adv-x="1027" d="M241 632q-49 47 -71 96.5t-22 102.5q0 74 36.5 145.5t96.5 134.5q37 40 86 78t103.5 67.5t112 47.5t113.5 18q47 0 86.5 -14t68.5 -42.5t45 -72t16 -103.5q0 -23 -3.5 -53t-9.5 -68l-152 28q5 34 8 56t3 33q0 45 -16.5 63t-43.5 18q-47 0 -94 -16t-91 -42.5t-82 -61 t-66 -71.5t-44 -74.5t-16 -69.5q0 -23 9.5 -45.5t31.5 -42.5l176 -165q75 39 165.5 71.5t197.5 57.5l37 -148q-141 -34 -256.5 -86t-203.5 -113.5t-148 -130t-91 -135.5q-31 -68 -31 -123q0 -39 16.5 -71.5t50 -56t84.5 -36.5t120 -13q85 0 201.5 24t268.5 78l52 -144 q-166 -58 -295 -84.5t-228 -26.5q-109 0 -189 26t-132 70.5t-77 104t-25 127.5q0 89 45 188q39 87 116 174.5t184 162.5zM231 1434q0 20 7.5 37.5t20.5 30t30.5 20t36.5 7.5q40 0 67.5 -27.5t27.5 -67.5t-27.5 -67.5t-67.5 -27.5q-19 0 -36.5 7.5t-30.5 20t-20.5 30 t-7.5 37.5z" />
<glyph unicode="&#x640;" horiz-adv-x="360" d="M387 326v-153h-412v153h412z" />
<glyph unicode="&#x641;" horiz-adv-x="1413" d="M793 275q72 22 138.5 57t120.5 84q-122 10 -210.5 54t-146 109t-85.5 145t-28 161q0 83 27 158.5t78 132.5t124.5 91t167.5 34q95 -3 167 -50.5t120.5 -124.5t73 -174.5t24.5 -200.5q0 -108 -34.5 -199t-94 -165.5t-139.5 -131.5t-170.5 -95.5t-187 -58t-189.5 -19.5 q-101 0 -192.5 24t-161 73t-110.5 123t-41 174q0 64 22 143.5t73 176.5l136 -70q-42 -81 -60 -142.5t-18 -106.5q0 -63 28 -108.5t76 -75t112 -44t136 -14.5q60 0 122 10t122 30zM1169 565q20 43 31 91t11 100q0 74 -16 144.5t-46.5 125t-75.5 88t-103 33.5t-101.5 -23 t-72.5 -60.5t-44 -85.5t-16 -99q3 -56 27 -112t71.5 -101t118.5 -73t169 -28h47zM886 1498q0 20 8 37.5t21 30t30 20t36 7.5q40 0 67.5 -27.5t27.5 -67.5t-27.5 -67.5t-67.5 -27.5q-19 0 -36 7.5t-30 20t-21 30t-8 37.5z" />
<glyph unicode="&#x642;" horiz-adv-x="1319" d="M230 663q-16 -95 -26.5 -190t-10.5 -177q0 -100 16 -192t57 -162.5t111.5 -112.5t179.5 -42q119 0 210.5 38t157.5 103t109 150.5t65 181.5q-55 -45 -123 -69t-143 -24q-99 0 -174 47.5t-125 126t-75.5 180.5t-25.5 210q0 106 25 208t74.5 181t123 127.5t171.5 48.5 q67 0 126.5 -31t109.5 -85.5t90 -129.5t67.5 -163.5t42.5 -187.5t15 -200q0 -107 -17.5 -212.5t-54 -202t-94 -179t-138 -143t-185 -95t-235.5 -34.5q-100 0 -177 25t-134 69.5t-96 106t-62.5 135.5t-34 157t-10.5 170q0 92 10.5 192t26.5 198zM1104 721q-16 87 -43 164 t-63 134t-79.5 90t-91.5 33q-59 0 -104 -35.5t-75 -93.5t-45.5 -132t-15.5 -150q0 -80 16 -154t47.5 -130.5t78.5 -90.5t109 -34q64 0 115 27t86.5 72t54 103t18.5 121q0 33 -8 76zM620 1495q0 20 7.5 37.5t20.5 30t30.5 20t36.5 7.5q40 0 67.5 -27.5t27.5 -67.5 q0 -20 -7.5 -37t-20 -30t-30 -20.5t-37.5 -7.5q-19 0 -36.5 7.5t-30.5 20.5t-20.5 30t-7.5 37zM849 1495q0 20 7.5 37.5t20.5 30t30.5 20t36.5 7.5q40 0 67.5 -27.5t27.5 -67.5q0 -20 -7.5 -37t-20 -30t-30 -20.5t-37.5 -7.5q-19 0 -36.5 7.5t-30.5 20.5t-20.5 30t-7.5 37z " />
<glyph unicode="&#x643;" horiz-adv-x="1314" d="M1257 1786l-1 -1064q-1 -99 -6 -178.5t-32 -145t-85 -118.5t-164 -99q-37 -16 -80 -28.5t-88 -23.5q-57 -14 -118.5 -21t-118.5 -7q-104 0 -198.5 24.5t-167.5 74.5t-116 126t-43 179q0 72 23 158t75 189l138 -71q-45 -87 -63.5 -154.5t-18.5 -121.5q0 -65 30 -112 t81 -78t118 -46t142 -15q52 0 103 6.5t100 17.5q83 19 139.5 43t94 54.5t57.5 66.5t29.5 79.5t12 93.5t2.5 108q0 260 0.5 531.5t0.5 531.5h154zM863 1210l-150 -128q204 -138 204 -246q-2 -47 -27 -76.5t-61 -46.5t-77 -23.5t-75 -6.5q-39 0 -79.5 8t-77.5 23t-68.5 37.5 t-51.5 51.5l127 89q19 -29 58 -42.5t81 -13.5q25 0 50.5 2t41.5 10q-5 8 -17 19t-33 28v-1q-28 21 -60.5 42.5t-61 45t-47.5 48t-19 51.5q0 35 33 64l210 183z" />
<glyph unicode="&#x644;" horiz-adv-x="891" d="M824 1761v-1304q0 -54 -8.5 -116.5t-27 -125t-48.5 -121t-74 -103t-102.5 -71.5t-133.5 -27q-98 0 -171.5 48.5t-123 127.5t-74.5 180.5t-25 207.5q0 78 16.5 161t50.5 168l142 -58q-28 -71 -41 -141t-14 -130q0 -77 15.5 -151t45.5 -132t75 -93t104 -35q46 0 82 20 t62.5 53t45 75.5t29.5 88.5t16 91t5 83v1304h154z" />
<glyph unicode="&#x645;" horiz-adv-x="1194" d="M746 168q-50 0 -94 13.5t-82.5 38t-70 58.5t-55.5 76q-74 -3 -124 -12t-80 -24t-43 -35.5t-13 -45.5q0 -66 34.5 -152t83.5 -193q7 -17 17 -38t20.5 -44t21 -45.5t18.5 -41.5l-144 -57q-12 30 -25.5 61.5t-26.5 61.5t-25 57t-22 49q-24 53 -44 98t-33.5 85.5t-21 79 t-7.5 79.5q0 56 17.5 102t59 80.5t109 56.5t167.5 29q-15 56 -22 113.5t-7 116.5q0 62 9 127t28.5 126t50.5 116t74.5 96.5t100.5 67t129 28.5q73 -3 130.5 -29t101.5 -68t74.5 -97.5t50 -117.5t28.5 -127.5t9 -128.5q0 -56 -9 -119.5t-28 -125.5t-49.5 -119t-74.5 -100.5 t-102 -69.5t-131 -26zM986 731q-1 65 -12.5 135t-39 128.5t-73.5 99t-115 47.5q-69 -7 -115 -47.5t-73 -99t-38.5 -128.5t-12.5 -135q1 -63 10.5 -121.5t29.5 -113.5q11 -32 29 -63t42 -56t54.5 -40t66.5 -15q48 0 85.5 19.5t64.5 52.5t45.5 75.5t30 88t16.5 90.5t5 83z" />
<glyph unicode="&#x646;" horiz-adv-x="1173" d="M907 1224q121 -231 173 -425.5t52 -354.5q0 -108 -20.5 -203t-57.5 -174t-88.5 -142t-113.5 -106t-132.5 -66t-145.5 -23q-100 0 -195.5 45t-170.5 138t-121 236.5t-46 341.5q0 14 0.5 33t1.5 39t2 39.5t2 34.5l153 -10q-1 -15 -2 -33t-2 -37t-1.5 -36.5t-0.5 -30.5 q0 -158 32.5 -272.5t86 -188.5t122 -109.5t140.5 -35.5q82 0 155.5 40t129 113.5t88 177t32.5 229.5q0 141 -49 318t-161 391zM374 1158q0 20 7.5 37.5t20.5 30.5t30.5 20.5t36.5 7.5q40 0 67.5 -28t27.5 -68q0 -20 -7.5 -37t-20 -30t-30 -20.5t-37.5 -7.5q-19 0 -36.5 7.5 t-30.5 20.5t-20.5 30t-7.5 37z" />
<glyph unicode="&#x647;" horiz-adv-x="860" d="M743 1182q32 -48 46.5 -112t14.5 -137q0 -84 -18 -174.5t-49 -178t-73.5 -166.5t-92 -138.5t-103.5 -94.5t-109 -35q-61 0 -117.5 46.5t-101.5 153.5t-74.5 280.5t-37.5 427.5v42l35 24q144 95 256.5 137.5t195.5 42.5q79 0 135 -31.5t93 -86.5zM615 1097 q-15 23 -40.5 36t-63.5 13q-56 0 -136.5 -30.5t-190.5 -99.5q8 -199 25.5 -335.5t41 -220.5t51.5 -121.5t58 -39.5q32 3 66 34t66.5 80.5t61.5 113t50.5 133t34.5 140.5t13 134q0 50 -8.5 92t-28.5 71z" />
<glyph unicode="&#x648;" horiz-adv-x="860" d="M429 1296q70 -4 125.5 -28t99 -64t74.5 -93t51 -114.5t30.5 -128.5t11.5 -134q0 -136 -13.5 -263t-47.5 -239.5t-92.5 -205.5t-148 -160t-213.5 -104t-289 -37v155q103 0 186 17.5t148.5 49.5t114.5 75.5t82 96.5q12 22 23.5 45.5t22.5 48.5q-75 -45 -174 -45 q-67 0 -121.5 24t-97.5 65.5t-74.5 96.5t-52.5 117t-31 127.5t-10 126.5q0 57 9 121.5t28 128t50 121.5t74.5 102.5t101.5 71t132 26.5h1zM668 725q-2 70 -13.5 142.5t-38.5 132.5t-72 99.5t-113 42.5q-48 0 -84.5 -20.5t-63.5 -54.5t-45.5 -77.5t-29.5 -89.5t-16 -91 t-5 -82q0 -44 6 -90.5t19 -91.5t32.5 -85.5t46 -71t61 -48.5t76.5 -18q58 0 103 34.5t75 91t45.5 129t16.5 148.5z" />
<glyph unicode="&#x649;" horiz-adv-x="1215" d="M964 1142q-125 0 -214 -15.5t-146 -42t-84 -62.5t-27 -77q0 -38 17.5 -80t48.5 -83.5t73.5 -81.5t92.5 -75q65 -45 141.5 -104t142.5 -131q35 -39 65.5 -81t53.5 -87t36.5 -93.5t14.5 -100.5q0 -66 -22 -120.5t-61 -98.5t-92 -77t-115.5 -55t-132 -33t-140.5 -11 q-165 0 -274.5 40.5t-175 111.5t-93 167t-27.5 206q0 61 8 127.5t21 135t30.5 137.5t35.5 137l149 -41q-18 -63 -34.5 -128t-29 -128.5t-20 -124t-7.5 -115.5q0 -77 18.5 -144.5t66 -118t128 -79.5t204.5 -29q76 0 149.5 15t131 45t93.5 75t36 104q-2 69 -38.5 135.5 t-90.5 125.5q-28 30 -61 59t-67 55.5t-67 50.5t-62 45q-45 31 -86.5 68.5t-77 77t-63 81t-44.5 81.5q-14 34 -21.5 70.5t-8.5 70.5q0 70 34 133.5t109 111.5t193.5 76.5t288.5 28.5v-154z" />
<glyph unicode="&#x64a;" horiz-adv-x="1215" d="M964 1142q-125 0 -214 -15.5t-146 -42t-84 -62.5t-27 -77q0 -38 17.5 -80t48.5 -83.5t73.5 -81.5t92.5 -75q65 -45 141.5 -104t142.5 -131q35 -39 65.5 -81t53.5 -87t36.5 -93.5t14.5 -100.5q0 -66 -22 -120.5t-61 -98.5t-92 -77t-115.5 -55t-132 -33t-140.5 -11 q-165 0 -274.5 40.5t-175 111.5t-93 167t-27.5 206q0 61 8 127.5t21 135t30.5 137.5t35.5 137l149 -41q-18 -63 -34.5 -128t-29 -128.5t-20 -124t-7.5 -115.5q0 -77 18.5 -144.5t66 -118t128 -79.5t204.5 -29q76 0 149.5 15t131 45t93.5 75t36 104q-2 69 -38.5 135.5 t-90.5 125.5q-28 30 -61 59t-67 55.5t-67 50.5t-62 45q-45 31 -86.5 68.5t-77 77t-63 81t-44.5 81.5q-14 34 -21.5 70.5t-8.5 70.5q0 70 34 133.5t109 111.5t193.5 76.5t288.5 28.5v-154zM390 -590q0 20 7.5 37.5t20.5 30t30.5 20t36.5 7.5q40 0 67.5 -27.5t27.5 -67.5 q0 -20 -7.5 -37t-20 -30t-30 -20.5t-37.5 -7.5q-19 0 -36.5 7.5t-30.5 20.5t-20.5 30t-7.5 37zM619 -590q0 20 7.5 37.5t20.5 30t30.5 20t36.5 7.5q40 0 67.5 -27.5t27.5 -67.5q0 -20 -7.5 -37t-20 -30t-30 -20.5t-37.5 -7.5q-19 0 -36.5 7.5t-30.5 20.5t-20.5 30t-7.5 37z " />
<glyph unicode="&#x64b;" horiz-adv-x="408" d="M389 1675l-340 -193l17 91l340 193zM403 1842l-340 -193l17 91l340 193z" />
<glyph unicode="&#x64c;" horiz-adv-x="469" d="M409 1632q-8 -18 -28 -45.5t-47 -53t-58 -43.5t-62 -18t-46 16t-15 36q0 23 8 47t8 41q0 12 -6.5 19.5t-26.5 7.5q-14 0 -36.5 -4.5t-54.5 -15.5q23 34 55.5 51t61.5 17t49 -16.5t20 -51.5q0 -34 -23 -80q46 20 85.5 44t71.5 62q-45 11 -64 35.5t-19 53.5q0 26 12 51 t30.5 45t42 32.5t47.5 12.5q20 -2 27 -23t7 -47q0 -29 -5 -58t-9 -40l38 -12l-17 -76zM388 1793q-6 6 -12.5 8t-12.5 2q-15 0 -22 -11t-7 -24q0 -20 19 -30t43 -21q0 5 1 10q0 5 0.5 10.5t0.5 12.5q0 14 -2 27.5t-8 17.5v-2z" />
<glyph unicode="&#x64d;" horiz-adv-x="408" d="M405 -148l-340 -193l17 91l340 193zM378 -316l-340 -193l17 91l340 193z" />
<glyph unicode="&#x64e;" horiz-adv-x="408" d="M389 1675l-340 -193l17 91l340 193z" />
<glyph unicode="&#x64f;" horiz-adv-x="414" d="M366 1664q-11 -23 -36.5 -51.5t-60.5 -53.5t-76 -42.5t-83 -17.5q-28 0 -47 1t-30 2.5t-16 2.5l-5 1q61 26 105.5 44t79.5 36t63 39.5t56 54.5q-52 12 -73.5 38t-21.5 58q0 27 12.5 54t33 48.5t46.5 35.5t52 14t35.5 -22t9.5 -54t-6 -63t-11 -44l44 -13l-19 -80z M341 1841q-6 7 -14.5 8.5t-13.5 1.5q-17 0 -25.5 -11.5t-8.5 -25.5q0 -23 21 -34t50 -22q0 5 1 11q0 5 0.5 12t0.5 15q0 15 -2 28.5t-9 18.5v-2z" />
<glyph unicode="&#x650;" horiz-adv-x="408" d="M395 -148l-340 -193l17 91l340 193z" />
<glyph unicode="&#x651;" horiz-adv-x="425" d="M398 1823q17 -26 25 -57.5t8 -61.5q0 -28 -6.5 -54.5t-19 -47t-31 -33t-43.5 -12.5t-37.5 9t-27.5 23q-6 -11 -16 -25t-24.5 -26.5t-34.5 -21t-45 -8.5t-42 9.5t-27 25t-14 35.5t-4 41q0 37 9 70t18 47q0 -1 1 -1t5.5 3.5t9.5 7t9.5 7t6.5 3.5q1 0 1 -1 q-8 -17 -12.5 -39.5t-4.5 -43.5q0 -29 11.5 -48.5t40.5 -19.5q28 0 43.5 15.5t24 37.5t13 44.5t12.5 37.5l1 -1q5 0 13.5 9.5t12.5 9.5q2 0 2 -1q-4 -15 -4 -32q0 -34 17 -57t44 -23q6 0 14 1.5t15.5 5t13 10.5t5.5 19q0 19 -9.5 40.5t-20.5 36.5q13 18 24.5 34t22.5 32z " />
<glyph unicode="&#x652;" horiz-adv-x="328" d="M347 1696q1 -4 1 -8v-8q0 -31 -14.5 -65t-37.5 -78v1q0 1 1 2l-3 -5q-13 -8 -30 -15.5t-36.5 -13.5t-40.5 -9.5t-40 -3.5q-40 0 -65 19.5t-25 69.5q0 37 12 78t32.5 75t48.5 56.5t60 22.5q25 0 48.5 -12t42.5 -29.5t31 -38t15 -38.5zM283 1628q-3 13 -12.5 28.5t-23 28.5 t-29.5 21.5t-32 8.5q-32 0 -48 -21t-16 -43q0 -28 20.5 -40t48.5 -12q23 0 47.5 7.5t43.5 20.5z" />
<glyph unicode="&#x660;" horiz-adv-x="1131" d="M725 567l-83 -327l-253 213l100 336z" />
<glyph unicode="&#x661;" horiz-adv-x="1131" d="M418 1353q22 -40 50 -91.5t56 -117t54.5 -146.5t47.5 -181.5t33.5 -221.5t12.5 -266q0 -48 -1.5 -104.5t-3.5 -110.5h-54q-14 102 -31.5 208.5t-50 227.5t-85.5 260t-137 306z" />
<glyph unicode="&#x662;" horiz-adv-x="1131" d="M264 1337q29 -42 69.5 -81.5t86.5 -69.5t93.5 -48.5t91.5 -18.5q29 0 55.5 10.5t47.5 33.5t36.5 60t22.5 90h50q13 -52 19.5 -95t6.5 -81q0 -69 -19.5 -117t-51.5 -78.5t-73.5 -44t-85.5 -13.5q-35 0 -70 7.5t-66 20.5q26 -73 45 -153t31.5 -160t18.5 -155t6 -138 q0 -70 -8.5 -120.5t-24.5 -71.5h-58q2 15 3.5 28.5t1.5 25.5q0 48 -11.5 117.5t-32.5 151.5t-51 171t-65.5 175t-76.5 164t-85 138q10 30 19 62.5t19 63.5l39 123z" />
<glyph unicode="&#x663;" horiz-adv-x="1131" d="M227 1334q14 -46 39 -85.5t56.5 -68.5t68 -45.5t73.5 -16.5q31 0 62 13.5t58.5 43t51.5 76t41 112.5h49q1 -22 2.5 -37t3 -28.5t3 -28t3.5 -34.5q26 -8 52.5 -19.5t53.5 -11.5q16 0 31.5 7t30.5 25t28 49t25 78h54q-12 -65 -25 -130t-33.5 -116.5t-51.5 -84t-80 -32.5 q-26 0 -56 10.5t-70 34.5q-24 -85 -66.5 -125.5t-106.5 -40.5q-20 0 -43.5 4t-49.5 13q27 -75 47 -156t32.5 -161t19 -154t6.5 -135q0 -63 -7.5 -109t-22.5 -67h-58q2 15 3.5 28.5t1.5 25.5q0 48 -11.5 117.5t-33 151.5t-51 171t-65 175t-77 164t-85.5 138q20 62 38.5 124 t38.5 125h20z" />
<glyph unicode="&#x664;" horiz-adv-x="1131" d="M861 335q-17 -56 -34 -109.5t-34 -108.5q-44 8 -96 15t-105.5 16.5t-103.5 23.5t-89 35t-62.5 50.5t-23.5 71.5q0 37 17 80h-1q15 48 46.5 93t67.5 82.5t71 66.5t57 47q-34 8 -77.5 15t-83 20.5t-68.5 36t-33 61.5q1 84 28 152.5t69.5 123t94 96.5t101 72t90.5 49.5 t63 29.5q-11 -59 -19.5 -114t-16.5 -109q-25 -5 -54.5 -17.5t-60 -29t-59 -36t-51 -38.5t-36 -36t-13.5 -29q0 -10 11 -15h-1q32 -12 66.5 -20t74 -15t84.5 -15t99 -19l-44 -155q-32 -27 -69 -57.5t-70 -63t-58 -66.5t-31 -67q0 -29 31.5 -45t81.5 -26t111.5 -16.5 t121.5 -16.5z" />
<glyph unicode="&#x665;" horiz-adv-x="1131" d="M556 1140q30 9 61 9q62 0 121 -32.5t105.5 -85t74.5 -119.5t28 -137v-10q-11 -79 -42 -153t-86 -133.5t-137 -100t-196 -51.5h-8q-36 0 -82 10t-88.5 33.5t-74 61t-38.5 91.5v-2q-5 17 -6.5 35.5t-1.5 39.5q0 52 14 110t39 114.5t59 109.5t75.5 96t88 73t95.5 41h-1z M625 576q40 13 69.5 30.5t51.5 36.5t36 38.5t22 36.5q-23 45 -46 81.5t-50.5 63t-61.5 41t-77 14.5q-51 0 -94.5 -22.5t-75 -55t-49.5 -68t-18 -61.5q0 -74 37.5 -116.5t118.5 -42.5q27 0 63 6.5t74 17.5z" />
<glyph unicode="&#x666;" horiz-adv-x="1131" d="M233 1315q-9 -24 -9 -41q0 -35 35 -48t91 -13q42 0 91.5 5.5t101.5 13.5t103.5 15.5t97.5 12.5q-14 -108 -21.5 -198.5t-7.5 -164.5q0 -101 11.5 -182.5t33 -144.5t53.5 -109t74 -77q-11 -64 -22.5 -128t-21.5 -131q-76 63 -125 140.5t-77.5 164t-40 177.5t-11.5 180 q0 66 4.5 130t11.5 121q-72 -10 -119.5 -17.5t-81 -12.5t-57 -7.5t-46.5 -2.5q-46 0 -76.5 15t-48.5 39.5t-25.5 55t-7.5 60.5q0 25 4.5 49.5t11 45.5t15 37.5t16.5 24.5q11 2 18.5 2.5t14.5 1.5z" />
<glyph unicode="&#x667;" horiz-adv-x="1131" d="M1029 1045q-71 -90 -122 -190.5t-87 -196t-58 -177.5t-35 -135q-3 -12 -3.5 -17t-1.5 -9t-3.5 -8t-7.5 -14t-14.5 -28t-25.5 -49q-9 -17 -17 -33.5t-15.5 -29t-15 -20.5t-13.5 -8q-30 119 -84 242.5t-123 243.5t-149.5 233t-164.5 212l55 317q114 -148 198 -272.5 t143.5 -232.5t98.5 -202t64 -182q20 97 50.5 203t75.5 218t107.5 228.5t147.5 235.5v-329z" />
<glyph unicode="&#x668;" horiz-adv-x="1131" d="M158 439q71 90 122 190.5t87 195.5t58.5 177t35.5 135q3 12 3.5 17t1.5 9t2.5 8t7 14t14.5 27.5t25 48.5q9 17 17 33.5t15.5 29.5t15 21t14.5 8q30 -119 73.5 -239t100 -237t127 -228t154.5 -210l-55 -317q-116 150 -190.5 272.5t-122 226.5t-75.5 194.5t-50 177.5 q-20 -96 -50.5 -202t-75.5 -218t-107.5 -228.5t-147.5 -234.5v329z" />
<glyph unicode="&#x669;" horiz-adv-x="1131" d="M825 98q-67 42 -106.5 102.5t-51.5 135.5q-11 74 -15.5 177t-5.5 234q-107 -32 -187 -50.5t-133 -18.5q-39 0 -63 11.5t-31 40.5q-21 87 -21 163q0 69 15 126.5t37 105t47.5 85.5t46.5 68q61 53 110 73.5t87 20.5q33 0 58 -11.5t42.5 -28t29 -35t19.5 -31.5 q22 -49 34 -98t17.5 -97t7 -94.5t1.5 -89.5q0 -57 3 -109q11 -114 43 -228t84 -215zM615 954q-3 27 -8 60t-16 62t-29.5 48.5t-48.5 19.5q-44 0 -75.5 -21.5t-51 -51t-29 -59.5t-9.5 -48q10 -20 27 -32.5t46 -12.5q17 0 37.5 4t47.5 14z" />
<glyph unicode="&#x66a;" horiz-adv-x="709" d="M201 158l-188 -165l485 1772l202 182zM458 499q0 20 7.5 37.5t20.5 30t30.5 20t36.5 7.5q40 0 67.5 -27.5t27.5 -67.5t-27.5 -67.5t-67.5 -27.5q-19 0 -36.5 7.5t-30.5 20t-20.5 30t-7.5 37.5zM77 1422q0 20 7.5 37.5t20.5 30t30.5 20t36.5 7.5q40 0 67.5 -27.5 t27.5 -67.5t-27.5 -67.5t-67.5 -27.5q-19 0 -36.5 7.5t-30.5 20t-20.5 30t-7.5 37.5z" />
<glyph unicode="&#x66d;" horiz-adv-x="815" d="M374 1445h68l17 -213l163 139l49 -49l-140 -162l214 -18v-68l-214 -17l140 -163l-49 -48l-163 139l-17 -214h-68l-17 214l-164 -139l-47 48l139 163l-214 17v68l214 18l-139 162l47 49l164 -139z" />
<glyph unicode="&#x6f9;" horiz-adv-x="1033" d="M93 1109h934v-934h-934v934zM223 304h675v675h-675v-675z" />
<glyph unicode="&#x200c;" horiz-adv-x="45" d="M35 -80h-25v1631h25v-1631z" />
<glyph unicode="&#x200d;" horiz-adv-x="45" d="M148 1427l-16 -16l-97 96v-1587h-25v1586l-96 -95l-16 16l109 109l-109 108l16 16l109 -108l109 108l16 -16l-109 -108z" />
<glyph unicode="&#x200e;" horiz-adv-x="45" d="M291 1537q-32 -33 -62.5 -63.5l-62.5 -62.5l-17 17l97 97h-213v-1605h-25v1631h234l-93 93l17 17z" />
<glyph unicode="&#x200f;" horiz-adv-x="45" d="M37 -80h-25v1605h-213l97 -97l-17 -17q-32 32 -62.5 63t-62.5 63l125 124l17 -17l-93 -93h234v-1631z" />
<glyph unicode="&#x2013;" d="M0 745h990v-192h-990v192z" />
<glyph unicode="&#x2014;" horiz-adv-x="1782" d="M0 745h1782v-192h-1782v192z" />
<glyph unicode="&#x2018;" horiz-adv-x="351" d="M288 903h-113l-114 462h113z" />
<glyph unicode="&#x2019;" horiz-adv-x="351" d="M174 1365h113l-114 -462h-113z" />
<glyph unicode="&#x201a;" horiz-adv-x="495" d="M123 150v226h249v-169q0 -135 -59 -211t-184 -102v90q34 10 57.5 23.5t38.5 33t23 46t12 63.5h-137z" />
<glyph unicode="&#x201c;" horiz-adv-x="603" d="M288 903h-113l-114 462h113zM540 903h-113l-114 462h113z" />
<glyph unicode="&#x201d;" horiz-adv-x="603" d="M176 1365h138l-139 -462h-113zM428 1365h113l-114 -462h-113z" />
<glyph unicode="&#x2022;" horiz-adv-x="613" d="M303 820q63 0 118.5 -24t96.5 -65t64.5 -96.5t23.5 -119.5q0 -63 -23.5 -118t-64.5 -96t-96.5 -64.5t-118.5 -23.5q-64 0 -119.5 23.5t-96.5 64.5t-64.5 96t-23.5 118q0 64 23.5 119.5t65 97t97 65t118.5 23.5z" />
<glyph unicode="&#x2122;" horiz-adv-x="1484" d="M838 1418l131 -334l123 334h130v-468h-85v387l-144 -387h-49l-151 387v-387h-86v468h131zM604 1418v-69h-150v-399h-94v399h-149v69h393z" />
<glyph unicode="&#xe000;" horiz-adv-x="1095" d="M0 1095h1095v-1095h-1095v1095z" />
<glyph unicode="&#xe820;" horiz-adv-x="408" d="M401 1225l-340 -193l17 91l340 193z" />
<glyph unicode="&#xe821;" horiz-adv-x="414" d="M346 1204q-11 -23 -36.5 -51.5t-60.5 -53.5t-76 -42.5t-83 -17.5q-28 0 -47 1t-30 2.5t-16 2.5l-5 1q61 26 105.5 44t79.5 36t63 39.5t56 54.5q-52 12 -73.5 38t-21.5 58q0 27 12.5 54t33 48.5t46.5 35.5t52 14t35.5 -22t9.5 -54t-6 -63t-11 -44l44 -13l-19 -80z M321 1381q-6 7 -14.5 8.5t-13.5 1.5q-17 0 -25.5 -11.5t-8.5 -25.5q0 -23 21 -34t50 -22q0 5 1 11q0 5 0.5 12t0.5 15q0 15 -2 28.5t-9 18.5v-2z" />
<glyph unicode="&#xe822;" horiz-adv-x="328" d="M344 1249q1 -4 1 -8v-8q0 -31 -14.5 -65t-37.5 -78v1q0 1 1 2l-3 -5q-13 -8 -30 -15.5t-36.5 -13.5t-40.5 -9.5t-40 -3.5q-40 0 -65 19.5t-25 69.5q0 37 12 78t32.5 75t48.5 56.5t60 22.5q25 0 48.5 -12t42.5 -29.5t31 -38t15 -38.5zM280 1181q-3 13 -12.5 28.5t-23 28.5 t-29.5 21.5t-32 8.5q-32 0 -48 -21t-16 -43q0 -28 20.5 -40t48.5 -12q23 0 47.5 7.5t43.5 20.5z" />
<glyph unicode="&#xe823;" horiz-adv-x="408" d="M391 1222l-340 -193l17 91l340 193zM405 1389l-340 -193l17 91l340 193z" />
<glyph unicode="&#xe824;" horiz-adv-x="469" d="M408 1207q-8 -18 -28 -45.5t-47 -53t-58 -43.5t-62 -18t-46 16t-15 36q0 23 8 47t8 41q0 12 -6.5 19.5t-26.5 7.5q-14 0 -36.5 -4.5t-54.5 -15.5q23 34 55.5 51t61.5 17t49 -16.5t20 -51.5q0 -34 -23 -80q46 20 85.5 44t71.5 62q-45 11 -64 35.5t-19 53.5q0 26 12 51 t30.5 45t42 32.5t47.5 12.5q20 -2 27 -23t7 -47q0 -29 -5 -58t-9 -40l38 -12l-17 -76zM387 1368q-6 6 -12.5 8t-12.5 2q-15 0 -22 -11t-7 -24q0 -20 19 -30t43 -21q0 5 1 10q0 5 0.5 10.5t0.5 12.5q0 14 -2 27.5t-8 17.5v-2z" />
<glyph unicode="&#xe825;" horiz-adv-x="425" d="M396 1364q17 -26 25 -57.5t8 -61.5q0 -28 -6.5 -54.5t-19 -47t-31 -33t-43.5 -12.5t-37.5 9t-27.5 23q-6 -11 -16 -25t-24.5 -26.5t-34.5 -21t-45 -8.5t-42 9.5t-27 25t-14 35.5t-4 41q0 37 9 70t18 47q0 -1 1 -1t5.5 3.5t9.5 7t9.5 7t6.5 3.5q1 0 1 -1 q-8 -17 -12.5 -39.5t-4.5 -43.5q0 -29 11.5 -48.5t40.5 -19.5q28 0 43.5 15.5t24 37.5t13 44.5t12.5 37.5l1 -1q5 0 13.5 9.5t12.5 9.5q2 0 2 -1q-4 -15 -4 -32q0 -34 17 -57t44 -23q6 0 14 1.5t15.5 5t13 10.5t5.5 19q0 19 -9.5 40.5t-20.5 36.5q13 18 24.5 34t22.5 32z " />
<glyph unicode="&#xe826;" horiz-adv-x="408" d="M395 -148l-340 -193l17 91l340 193z" />
<glyph unicode="&#xe827;" horiz-adv-x="408" d="M405 -148l-340 -193l17 91l340 193zM378 -316l-340 -193l17 91l340 193z" />
<glyph unicode="&#xe828;" horiz-adv-x="425" d="M397 1372q6 -11 6 -16q0 -4 -1 -6.5t-1 -7.5q0 -2 0.5 -5t2.5 -8q15 -41 15 -83q0 -24 -5.5 -46.5t-17 -40t-29 -27.5t-41.5 -10q-17 0 -29 6t-26 16q-5 -14 -14 -31t-24 -33t-38 -26.5t-54 -10.5q-22 0 -36.5 8t-23.5 21.5t-12.5 30.5t-3.5 34q0 22 4.5 41.5t9.5 30.5 q0 -1 1 -1t4.5 4t8 9t8.5 9t6 4q1 0 1 -1q-3 -14 -5.5 -27.5t-2.5 -24.5q0 -19 8 -31t29 -12q25 0 40.5 8t24.5 21t13 29.5t5.5 33.5t2.5 32.5t5 27.5l1 -1q2 0 5 3.5t6 8t6.5 8t5.5 3.5q1 0 2 -1q-1 -5 -1 -13q0 -38 19.5 -64t47.5 -26q5 0 13.5 2t16.5 6.5t14 11.5t6 17 q0 20 -14 42t-29 37q5 10 14.5 15.5t20 10t20 9.5t15.5 13zM400 1452l-340 -193l17 91l340 193z" />
<glyph unicode="&#xe829;" horiz-adv-x="425" d="M381 1402q26 -31 39.5 -69.5t13.5 -78.5q0 -25 -5.5 -48t-17.5 -40t-30 -27.5t-42 -10.5q-17 0 -28.5 6.5t-25.5 16.5q-5 -12 -13.5 -29t-23 -32.5t-36 -26.5t-50.5 -11q-26 0 -43.5 12.5t-28 33t-14.5 45t-4 48.5q0 26 4 47t9 32q0 -1 1 -1t5 4l8.5 8.5l8.5 8.5t6 4 q1 0 1 -1q-3 -12 -5 -26.5t-2 -29.5q0 -17 2.5 -33t9 -28.5t16.5 -20t25 -7.5q33 0 48 17.5t21 42t7.5 49.5t6.5 40l1 -1q2 0 5 3.5t6.5 8t6.5 8t5 3.5t2 -1q-1 -5 -1 -14q0 -38 19.5 -64t47.5 -26q5 0 13.5 2t16.5 6t14 10.5t6 16.5q0 20 -14 43t-28 38q11 20 19.5 37.5 t17.5 34.5zM356 1471q-11 -18 -36 -40.5t-59 -42.5t-74.5 -33.5t-81.5 -13.5q-45 0 -66.5 3t-26.5 3l-2 -1q0 1 1 1q60 20 103 34t77 28t61.5 31t54.5 43q-51 9 -72 30t-21 46q0 22 13 43.5t34 38t47 27t52 10.5q23 -2 31 -19.5t8 -40.5q0 -25 -6 -49.5t-11 -34.5l43 -10 l-19 -63zM331 1610q-6 5 -13 6.5t-12 1.5q-17 0 -26 -9t-9 -20q0 -18 20.5 -27t48.5 -17q0 4 1 9q0 4 0.5 9.5t0.5 11.5q0 11 -2 22t-9 14v-1z" />
<glyph unicode="&#xe82a;" horiz-adv-x="425" d="M425 1277q0 -76 -29.5 -121t-75.5 -45q-21 0 -64 21q-38 -87 -108 -87q-78 0 -78 109q0 34 22 101l23 4q0 -111 39 -111q14 0 29 13t28 35.5t22 52t11 61.5l19 6q24 -98 61 -98q12 0 23.5 12t20.5 32t14.5 46.5t5.5 56.5l22 11q15 -51 15 -99zM412 1701q0 -24 -1 -39.5 t-6 -26t-15 -18.5t-27 -18l-289 -166q0 22 2.5 37.5t9.5 27.5t20 22t34 22zM412 1550q0 -23 -1 -38t-6 -26t-15 -19t-27 -18l-289 -166q0 22 1.5 36.5t8 25.5t20 21t36.5 24z" />
<glyph unicode="&#xe82b;" horiz-adv-x="468" d="M422 1486q-9 -15 -30 -38t-49 -44.5t-60.5 -37t-64.5 -15.5q-33 0 -49 13.5t-16 30.5q0 19 9 39.5t9 35.5q0 10 -7 16t-27 6q-15 0 -38.5 -4t-58.5 -13q25 29 58.5 43.5t64.5 14.5q30 0 51 -14.5t21 -43.5q0 -14 -5.5 -31t-18.5 -37q48 17 89.5 38t75.5 53 q-48 10 -67.5 30.5t-19.5 45.5q0 22 12 43t31.5 37.5t44.5 27t50 10.5q21 -2 28.5 -19t7.5 -40q0 -26 -5.5 -50t-9.5 -33l40 -10l-18 -65zM393 1404q26 -31 39.5 -69.5t13.5 -78.5q0 -25 -5.5 -48t-17.5 -40t-30 -27.5t-42 -10.5q-17 0 -28.5 6.5t-25.5 16.5 q-5 -12 -13.5 -29t-23 -32.5t-36 -26.5t-50.5 -11q-26 0 -43.5 12.5t-28 32.5t-14.5 44.5t-4 48.5q0 26 4 47t9 32q0 -1 1 -1t5 4t8.5 9t8.5 9t6 4q1 0 1 -1q-3 -12 -5 -26.5t-2 -29.5q0 -17 2.5 -33t9 -28.5t16.5 -20t25 -7.5q33 0 48 17.5t21 42t7.5 49.5t6.5 40l1 -1 q2 0 5 3.5t6.5 8t6.5 8t5 3.5t2 -1q-1 -5 -1 -14q0 -38 19.5 -64t47.5 -26q5 0 13.5 2t16.5 6t14 10.5t6 16.5q0 20 -14 43t-28 38q11 20 19.5 37.5t17.5 34.5zM400 1623q-6 6 -13.5 7t-12.5 1q-17 0 -24 -9t-7 -20q0 -17 20 -25l45 -18q0 5 1 9q0 4 0.5 9t0.5 11 q0 12 -2 22.5t-8 14.5v-2z" />
<glyph unicode="&#xe82c;" horiz-adv-x="425" d="M375 1606q24 -30 36.5 -67.5t12.5 -75.5q0 -26 -6 -49.5t-18 -41.5t-30 -28.5t-42 -10.5q-18 0 -29.5 7t-26.5 18q-5 -12 -13.5 -28.5t-23.5 -31.5t-36 -25.5t-49 -10.5q-26 0 -43 12t-27.5 31.5t-14.5 43t-4 47.5q0 28 4.5 51.5t10.5 34.5q0 -1 1 -1t5 4l8.5 8.5 l8.5 8.5t6 4q1 0 1 -1q-8 -29 -8 -62t11.5 -59t40.5 -26q32 0 47.5 17t22 41t8 49t7.5 40l1 -1q2 0 5 3.5t7 7.5t7 7.5t5 3.5t2 -1q-1 -5 -1 -9v-9q0 -37 18.5 -62t46.5 -25q5 0 13 2t16 6t14 11t6 17q0 19 -12.5 41t-26.5 38q11 20 20 37t19 34zM412 1224l-340 -193l17 91 l340 193z" />
<glyph unicode="&#xe82d;" horiz-adv-x="425" d="M374 1619q24 -30 36.5 -67.5t12.5 -75.5q0 -26 -6 -49.5t-18 -41.5t-30 -28.5t-42 -10.5q-18 0 -29.5 7t-26.5 18q-5 -12 -13.5 -28.5t-23.5 -31.5t-36 -25.5t-49 -10.5q-26 0 -43 12t-27.5 31.5t-14.5 43t-4 47.5q0 28 4.5 51.5t10.5 34.5q0 -1 1 -1t5 4l8.5 8.5 l8.5 8.5t6 4q1 0 1 -1q-8 -29 -8 -62t11.5 -59t40.5 -26q32 0 47.5 17t22 41t8 49t7.5 40l1 -1q2 0 5 3.5t7 7.5t7 7.5t5 3.5t2 -1q-1 -5 -1 -9v-9q0 -37 18.5 -62t46.5 -25q5 0 13 2t16 6t14 11t6 17q0 19 -12.5 41t-26.5 38q11 20 20 37t19 34zM395 1253l-350 -141l33 75 l350 141zM385 1148l-350 -141l33 75l350 141z" />
<glyph unicode="&#xe832;" horiz-adv-x="408" d="M394 1426q-97 -51 -192 -101.5t-192 -102.5q5 23 8 38.5t7 38.5q99 52 191.5 101.5t191.5 102.5z" />
<glyph unicode="&#xe833;" horiz-adv-x="408" d="M389 1171q-97 -51 -192 -101.5t-192 -102.5q5 23 8 38.5t7 38.5q99 52 191.5 101.5t191.5 102.5z" />
<glyph unicode="&#xe834;" horiz-adv-x="566" d="M268 1588q1 -4 1 -8v-8q0 -31 -16 -68t-40 -83q-14 -8 -32.5 -16t-39.5 -15t-43 -11t-42 -4q-41 0 -65.5 19.5t-24.5 69.5q0 39 12.5 82.5t34 80.5t50.5 61t63 24q26 0 50 -12t43.5 -30.5t32.5 -40.5t16 -41zM218 1512q-4 16 -15.5 35.5t-28 36t-36 28t-39.5 11.5 t-34.5 -7.5t-25 -19.5t-15.5 -26t-5 -27q0 -37 26 -53t61 -16z" />
<glyph unicode="&#xe835;" horiz-adv-x="420" d="M365 1288q17 -26 25 -57.5t8 -61.5q0 -28 -6.5 -54.5t-19 -47t-31 -33t-43.5 -12.5t-37.5 9t-27.5 23q-6 -11 -16 -25t-24.5 -26.5t-34.5 -21t-45 -8.5t-42 9.5t-27 25t-14 35.5t-4 41q0 37 9 70t18 47q0 -1 1 -1t5.5 3.5t9.5 7t9.5 7t6.5 3.5q1 0 1 -1 q-8 -17 -12.5 -39.5t-4.5 -43.5q0 -29 11.5 -48.5t40.5 -19.5q28 0 43.5 15.5t24 37.5t13 44.5t12.5 37.5l1 -1q5 0 13.5 9.5t12.5 9.5q2 0 2 -1q-4 -15 -4 -32q0 -34 17 -57t44 -23q6 0 14 1.5t15.5 5t13 10.5t5.5 19q0 19 -9.5 40.5t-20.5 36.5q13 18 24.5 34t22.5 32z " />
<glyph unicode="&#xe836;" horiz-adv-x="381" d="M297 1715q17 -26 25 -57.5t8 -61.5q0 -28 -6.5 -54.5t-19 -47t-31 -33t-43.5 -12.5t-37.5 9t-27.5 23q-6 -11 -16 -25t-24.5 -26.5t-34.5 -21t-45 -8.5t-42 9.5t-27 25t-14 35.5t-4 41q0 37 9 70t18 47q0 -1 1 -1t5.5 3.5t9.5 7t9.5 7t6.5 3.5q1 0 1 -1 q-8 -17 -12.5 -39.5t-4.5 -43.5q0 -29 11.5 -48.5t40.5 -19.5q28 0 43.5 15.5t24 37.5t13 44.5t12.5 37.5l1 -1q5 0 13.5 9.5t12.5 9.5q2 0 2 -1q-4 -15 -4 -32q0 -34 17 -57t44 -23q6 0 14 1.5t15.5 5t13 10.5t5.5 19q0 19 -9.5 40.5t-20.5 36.5q13 18 24.5 34t22.5 32z " />
<glyph unicode="&#xfd3e;" horiz-adv-x="750" d="M550 -50h-350v1950h350v-150h-200v-1650h200v-150z" />
<glyph unicode="&#xfd3f;" horiz-adv-x="750" d="M544 -50h-350v150h200v1650h-200v150h350v-1950z" />
<glyph unicode="&#xfeff;" horiz-adv-x="744" />
</font>
</defs>
</svg>
